<?xml version="1.0" encoding="UTF-8"?>
<svg version="1.1" xmlns="http://www.w3.org/2000/svg" width="555" height="552">
<path d="M0 0 C183.15 0 366.3 0 555 0 C555 182.16 555 364.32 555 552 C371.85 552 188.7 552 0 552 C0 369.84 0 187.68 0 0 Z " fill="#D77655" transform="translate(0,0)"/>
<path d="M0 0 C1.11181641 0.04253906 1.11181641 0.04253906 2.24609375 0.0859375 C8.10419782 0.38283946 11.18591759 2.82841623 15 7 C16.75857011 9.80931226 18.00349029 12.74701625 19.25 15.8125 C19.6207666 16.67705811 19.9915332 17.54161621 20.37353516 18.43237305 C21.17511853 20.30212675 21.96931501 22.17506123 22.75683594 24.05078125 C24.91079456 29.16072236 27.1441756 34.23575009 29.375 39.3125 C29.8397876 40.37178711 30.3045752 41.43107422 30.78344727 42.52246094 C42.02321631 68.02175419 54.53788911 93.08434462 67.625 117.6875 C73.26783699 128.33034825 78.21087637 138.55468375 81.04296875 150.296875 C81.51669922 151.63492188 81.51669922 151.63492188 82 153 C82.99 153.33 83.98 153.66 85 154 C84.98259766 152.04707031 84.98259766 152.04707031 84.96484375 150.0546875 C84.95546027 148.32812644 84.94636066 146.60156382 84.9375 144.875 C84.92912109 144.0190625 84.92074219 143.163125 84.91210938 142.28125 C84.89454282 137.71394497 85.17300413 133.50462145 86 129 C86.1268764 126.73032225 86.22782744 124.45914374 86.3125 122.1875 C86.75095841 113.17440781 87.92350411 104.26913234 89.07678223 95.32550049 C90.29170401 85.81949855 91.27092229 76.31401011 92.046875 66.76171875 C92.17523994 65.18701813 92.17523994 65.18701813 92.30619812 63.58050537 C92.72738084 58.36069008 93.13129967 53.14004354 93.5168457 47.91748047 C93.66858187 45.97752336 93.82051016 44.03758126 93.97265625 42.09765625 C94.06163177 40.79002571 94.06163177 40.79002571 94.15240479 39.45597839 C94.64522407 33.32336693 96.06019323 27.82611454 98 22 C98.24794815 21.18584122 98.4958963 20.37168243 98.75135803 19.53285217 C100.8385122 12.96894795 105.39145813 9.9988948 110.9296875 6.23828125 C114 5 114 5 117.19921875 5.69921875 C124.51708051 9.09789095 129.97969197 13.36176076 133 21 C133.15119833 23.99014025 132.78317136 26.85233445 132.375 29.8125 C132.2723584 30.64975113 132.1697168 31.48700226 132.06396484 32.34962463 C131.0123062 40.60159075 129.5669928 48.77038044 128 56.9375 C127.70101435 58.52707493 127.40261336 60.11675992 127.10473633 61.70654297 C126.08287644 67.14020936 125.04270501 72.57030033 124 78 C123.69204498 79.6046109 123.69204498 79.6046109 123.37786865 81.24163818 C121.384723 91.62333053 119.39077913 102.00486515 117.37695312 112.38256836 C117.16802933 113.4619014 116.95910553 114.54123444 116.74385071 115.65327454 C116.35466997 117.66336189 115.96430506 119.67322054 115.57243347 121.68278503 C114.26619488 128.43716859 113.10303375 135.20957763 112 142 C115.96352167 140.53100104 117.86319095 139.41518465 120.34765625 135.95703125 C120.94674805 135.13799316 121.54583984 134.31895508 122.16308594 133.47509766 C123.1032959 132.15711182 123.1032959 132.15711182 124.0625 130.8125 C125.40039376 128.98164637 126.7402579 127.15223106 128.08203125 125.32421875 C128.74412598 124.41849121 129.4062207 123.51276367 130.08837891 122.57958984 C132.72335048 119.02389257 135.46522853 115.5639527 138.25 112.125 C139.22269403 110.92190554 140.19535078 109.71878095 141.16796875 108.515625 C141.6376709 107.93490234 142.10737305 107.35417969 142.59130859 106.75585938 C144.47981093 104.40194104 146.33367052 102.02188202 148.1875 99.640625 C156.11104926 89.46606742 164.43972798 79.64483137 173 70 C173.67289062 69.23429687 174.34578125 68.46859375 175.0390625 67.6796875 C180.78005258 61.20839479 186.72237654 54.95423074 193 49 C193.73605469 48.26265625 194.47210938 47.5253125 195.23046875 46.765625 C201.16148697 42.98449632 208.73176912 43.04637804 215.53173828 44.15332031 C221.90467653 46.33940833 225.33993468 52.22004354 228.28125 57.9609375 C230.87325056 64.34557285 230.01899239 69.32367987 227.5390625 75.5859375 C227.03117187 76.71257812 226.52328125 77.83921875 226 79 C225.57847656 80.16402344 225.57847656 80.16402344 225.1484375 81.3515625 C223.17111072 86.20500097 219.64660638 90.00656626 216.26708984 93.94848633 C212.51469459 98.32538062 208.98606576 102.84637083 205.5 107.4375 C204.94586426 108.16694824 204.39172852 108.89639648 203.82080078 109.64794922 C202.72523924 111.09141034 201.63017617 112.53524996 200.53564453 113.97949219 C198.35191229 116.85271445 196.14455225 119.7071483 193.9375 122.5625 C188.22245758 129.99019357 182.58297034 137.47256506 177 145 C176.06220703 146.25490234 176.06220703 146.25490234 175.10546875 147.53515625 C170.94712163 153.2718541 167.29490836 159.31943609 163.625 165.375 C163.08810547 166.25639648 162.55121094 167.13779297 161.99804688 168.04589844 C161.49595703 168.88411133 160.99386719 169.72232422 160.4765625 170.5859375 C159.797146 171.71588135 159.797146 171.71588135 159.10400391 172.86865234 C158.04004404 174.92269252 157.45245504 176.74028468 157 179 C158.25425781 178.72027344 159.50851562 178.44054687 160.80078125 178.15234375 C185.76309701 172.63304954 210.85797902 167.632186 236 163 C236.97453125 162.81808105 237.9490625 162.63616211 238.953125 162.44873047 C242.0504839 161.87332601 245.14983934 161.31009437 248.25 160.75 C249.19133789 160.5744458 250.13267578 160.3988916 251.10253906 160.21801758 C259.50266146 158.72745483 266.63472621 157.65075343 274.4375 161.75 C275.95150391 162.51570313 275.95150391 162.51570313 277.49609375 163.296875 C280.09999965 165.06801848 281.02880518 166.04521334 282 169 C281.875 171.625 281.875 171.625 281 175 C280.78601563 175.82628906 280.57203125 176.65257812 280.3515625 177.50390625 C279.93003906 178.83228516 279.93003906 178.83228516 279.5 180.1875 C279.2421875 181.02667969 278.984375 181.86585938 278.71875 182.73046875 C273.6149271 189.4698349 260.29520623 189.90276782 252.375 191.6875 C251.62798828 191.85752533 250.88097656 192.02755066 250.11132812 192.20272827 C235.80661147 195.45693814 221.44723804 198.43186258 207.06005859 201.29760742 C199.77219891 202.75678043 192.58232433 204.29293494 185.43188477 206.34106445 C182.19019519 207.21942206 178.91795293 207.83400014 175.62060547 208.46386719 C169.46240007 209.72373481 163.39168752 211.39521558 157.30664062 212.96484375 C156.27861328 213.22652344 155.25058594 213.48820313 154.19140625 213.7578125 C153.26529541 213.9964502 152.33918457 214.23508789 151.38500977 214.48095703 C149 215 149 215 146 215 C146 215.66 146 216.32 146 217 C146.61746094 216.98912354 147.23492187 216.97824707 147.87109375 216.96704102 C152.8283039 216.9175255 157.64236893 217.09678909 162.56542969 217.66015625 C174.61057745 219.03232711 186.64255325 219.27597581 198.75 219.5 C212.78348871 219.7627711 226.69310311 220.25682627 240.67578125 221.55859375 C244.02170445 221.86709155 247.30808625 222.04749542 250.66796875 222.03515625 C262.58299259 222.04470573 269.23940949 226.33527408 277.58203125 234.5390625 C280.85808356 238.24541941 283.44593764 241.36469049 283.6875 246.4375 C282.9699131 250.15590482 282.72913323 250.70866195 280 253 C277.34535106 254.75383517 274.54626223 256.23476047 271.75 257.75 C271.01136719 258.17410156 270.27273438 258.59820312 269.51171875 259.03515625 C268.41537109 259.62876953 268.41537109 259.62876953 267.296875 260.234375 C266.64041992 260.59756836 265.98396484 260.96076172 265.30761719 261.33496094 C258.74641619 263.22585297 250.17240732 259.73677011 243.734375 258.234375 C242.54636292 257.95909973 241.35835083 257.68382446 240.13433838 257.40020752 C237.61916935 256.81659739 235.1043449 256.23150054 232.58984375 255.64501953 C228.80566616 254.76297508 225.02012464 253.88698802 221.234375 253.01171875 C209.86690381 250.37377738 198.52687459 247.68270277 187.25543213 244.65866089 C180.70548776 242.90328164 174.11746354 241.35565747 167.5 239.875 C159.60793896 238.10311736 151.78527863 236.19758237 144 234 C146.39095325 238.49865769 149.45973926 241.72921825 153.0625 245.25 C153.60455078 245.79140625 154.14660156 246.3328125 154.70507812 246.890625 C157.58423211 249.8012653 157.58423211 249.8012653 161 252 C161 252.66 161 253.32 161 254 C161.87833496 254.39505737 161.87833496 254.39505737 162.77441406 254.7980957 C165.09856286 256.05322783 166.70607738 257.40685954 168.609375 259.23046875 C169.28226562 259.86919922 169.95515625 260.50792969 170.6484375 261.16601562 C171.68871094 262.16665039 171.68871094 262.16665039 172.75 263.1875 C177.43525104 267.66342899 182.16152021 272.05130079 187.05761719 276.29614258 C190.18870726 279.04273353 193.21723337 281.89582241 196.25 284.75 C200.81088379 289.02526184 205.38452365 293.28369998 210 297.5 C215.26901113 302.31331287 220.48691419 307.17927232 225.68408203 312.07006836 C229.55737693 315.70223018 233.49259018 319.20092003 237.6796875 322.47265625 C240.14286733 325.32207434 239.98850987 328.87131058 240.3125 332.5 C239.93549623 336.72244226 239.23197496 338.26525196 236 341 C232.08680083 341.77047445 230.12893519 341.65661477 226.65649414 339.63696289 C223.9704853 337.69026565 221.38710789 335.65428207 218.8125 333.5625 C216.93643792 332.08302894 215.06013744 330.60386015 213.18359375 329.125 C212.28753418 328.40957031 211.39147461 327.69414062 210.46826172 326.95703125 C207.48339138 324.59039222 204.44295082 322.32012478 201.375 320.0625 C193.06642752 313.84287259 185.18782671 307.22287997 177.515625 300.23828125 C174.10100491 297.20011773 170.55658114 294.33826433 167 291.46875 C164.78081419 289.64254501 162.60093391 287.79635928 160.4375 285.90625 C159.82551758 285.37298096 159.21353516 284.83971191 158.58300781 284.2902832 C157.39571107 283.25211017 156.2124836 282.20925725 155.03417969 281.16088867 C151.24946717 277.85781668 147.43338884 275.36859988 143 273 C145.69643914 278.95463644 149.03322622 283.92375123 152.93359375 289.16015625 C155.48881951 292.67178031 157.78574911 296.30907773 160.08984375 299.98828125 C162.32130829 303.50660264 164.62151572 306.97446041 166.9375 310.4375 C167.58114502 311.39994629 167.58114502 311.39994629 168.23779297 312.38183594 C169.0903381 313.65565006 169.94319733 314.92925402 170.79638672 316.20263672 C173.17930105 319.76105768 175.55408864 323.32476279 177.9140625 326.8984375 C179.4628815 329.20136312 181.03769597 331.46783475 182.6484375 333.7265625 C191.62623192 346.45870732 191.62623192 346.45870732 192 355 C192.09861328 356.42505859 192.09861328 356.42505859 192.19921875 357.87890625 C192.35388662 361.88427087 192.27218018 365.18345946 191 369 C187.27066039 372.72933961 183.33833911 373.91823989 178.20703125 374.09765625 C172.42618934 373.7777986 169.28086016 373.11906387 165 369 C163.19374158 366.71338076 161.59620147 364.31138577 160 361.875 C159.03470247 360.43345355 158.06716459 358.99340535 157.09765625 357.5546875 C156.59379395 356.80670898 156.08993164 356.05873047 155.57080078 355.28808594 C152.94499434 351.46324012 150.18271906 347.73951218 147.4375 344 C142.49975983 337.22865456 137.94758567 330.31170714 133.578125 323.1640625 C131.25884516 319.38121215 128.8299252 315.6781787 126.3840332 311.97631836 C120.77724538 303.47943371 115.44945584 294.8519884 110.3125 286.0625 C109.71211914 285.03769531 109.11173828 284.01289063 108.49316406 282.95703125 C106.02824043 278.70137545 103.7403826 274.61028845 102 270 C101.34 270.33 100.68 270.66 100 271 C99.50415621 272.90234436 99.50415621 272.90234436 99.30224609 275.27026367 C99.19602936 276.22935135 99.08981262 277.18843903 98.9803772 278.17658997 C98.81606705 279.81200996 98.81606705 279.81200996 98.6484375 281.48046875 C98.52447601 282.65087204 98.40051453 283.82127533 98.27279663 285.02714539 C97.13057043 296.10111283 96.16490672 307.19148871 95.19065094 318.28125381 C94.91258468 321.4425826 94.63269461 324.60374485 94.35223389 327.76486206 C94.25835766 328.82381117 94.16448143 329.88276028 94.06776047 330.97379875 C93.8762115 333.13409761 93.68450171 335.29438222 93.49263382 337.45465279 C93.00372803 342.97388072 92.52317037 348.49364271 92.05761719 354.01489258 C91.59995415 359.4359418 91.1208601 364.85471806 90.62720871 370.27260399 C90.4447517 372.31839938 90.27013728 374.36491073 90.1037178 376.41207314 C89.87158966 379.25522662 89.61212317 382.09465168 89.34619141 384.93481445 C89.28472427 385.76849548 89.22325714 386.60217651 89.15992737 387.46112061 C88.58416232 393.17709733 87.11603398 395.95978371 83 400 C80.5 401.4609375 80.5 401.4609375 78 402.375 C77.175 402.69210937 76.35 403.00921875 75.5 403.3359375 C72.77196646 404.06057141 70.80583898 404.35904101 68 404 C61.430463 399.93419885 57.02433338 394.41836915 55 387 C54.00666585 378.69640637 56.21658842 370.97036798 58.3125 363 C60.57172432 354.31212694 62.46863877 345.72559598 63.88046265 336.86706543 C64.71390469 331.64912617 65.65015255 326.46324292 66.68359375 321.28125 C66.82591934 320.56617279 66.96824493 319.85109558 67.11488342 319.11434937 C67.40593801 317.65594155 67.69752223 316.19763935 67.98962402 314.73944092 C70.54464157 301.96400499 72.91007582 289.20890544 74.66967773 276.29492188 C75.56084693 269.97523789 76.98479441 264.0571984 79 258 C78.01 258 77.02 258 76 258 C75.75894531 258.53367187 75.51789063 259.06734375 75.26953125 259.6171875 C73.65861116 262.6407606 71.69590847 265.35899934 69.6875 268.125 C69.25163574 268.72973145 68.81577148 269.33446289 68.36669922 269.95751953 C67.41640523 271.27528272 66.46485521 272.59214084 65.51220703 273.90820312 C63.9601968 276.05505873 62.41504107 278.20671489 60.87109375 280.359375 C55.19408423 288.26362499 49.45478996 296.11398981 43.59472656 303.88354492 C40.2604543 308.30719498 36.96316337 312.75631031 33.68530273 317.22192383 C31.32722525 320.43355222 28.9611704 323.6392381 26.59277344 326.84326172 C25.60424345 328.18180769 24.61755921 329.52172141 23.63378906 330.86376953 C17.79782609 338.80678393 11.46786191 346.01748719 4.6640625 353.1328125 C2.14426754 355.76867729 -0.30876554 358.44999853 -2.7265625 361.1796875 C-3.33790039 361.86111816 -3.94923828 362.54254883 -4.57910156 363.24462891 C-5.74066443 364.54167586 -6.89185559 365.84811932 -8.03027344 367.16552734 C-11.71563509 371.23677328 -15.40002035 374.25513319 -21 375 C-24.1875 373.98046875 -24.1875 373.98046875 -27 372.1875 C-27.94875 371.60355469 -28.8975 371.01960938 -29.875 370.41796875 C-32 369 -32 369 -32.421875 366.9375 C-33.28003476 359.25492687 -31.27780694 354.9950848 -26.6875 349.125 C-25.03180803 347.05532355 -23.35385935 345.00905034 -21.65039062 342.97851562 C-19.63632529 340.56402073 -17.70752425 338.09060173 -15.78125 335.60595703 C-14.43161777 333.86742278 -13.06967025 332.13932588 -11.703125 330.4140625 C-9.02414373 327.03160774 -6.35377816 323.64247537 -3.6875 320.25 C-3.01509277 319.39462646 -3.01509277 319.39462646 -2.32910156 318.52197266 C2.59414895 312.25303366 7.48521988 305.95912059 12.375 299.6640625 C14.80879371 296.5309482 17.24651373 293.40095116 19.6875 290.2734375 C20.89598922 288.72407991 22.10432446 287.17460221 23.3125 285.625 C23.90047363 284.870979 24.48844727 284.11695801 25.09423828 283.34008789 C28.34581308 279.15995163 31.54146377 274.94752414 34.6875 270.6875 C38.71818455 265.27056132 43.02558372 260.12796813 47.421875 255.0078125 C48.27265625 254.01523437 49.1234375 253.02265625 50 252 C50.69512695 251.20287598 50.69512695 251.20287598 51.40429688 250.38964844 C53.51847897 247.92815809 54.96286986 246.11139041 56 243 C54.97003906 243.66644531 53.94007813 244.33289063 52.87890625 245.01953125 C34.68359375 256.79296875 34.68359375 256.79296875 32.58911133 258.14819336 C31.18136164 259.05910957 29.77364753 259.97008076 28.3659668 260.88110352 C24.89843839 263.12512424 21.43037665 265.3683094 17.9609375 267.609375 C9.7942252 272.88632756 1.64243393 278.18565316 -6.5 283.5 C-17.44127449 290.64107453 -17.44127449 290.64107453 -22.6484375 294.015625 C-23.35766357 294.47525635 -24.06688965 294.9348877 -24.79760742 295.40844727 C-26.17060448 296.29511066 -27.54573773 297.1784758 -28.9230957 298.05834961 C-32.44976372 300.31611406 -35.91510788 302.62953789 -39.33203125 305.05078125 C-48.21671781 311.2535793 -54.89607227 314.82090439 -66 315 C-67.80597656 315.0928125 -67.80597656 315.0928125 -69.6484375 315.1875 C-74.18443694 314.93373779 -75.76800865 313.69009032 -78.71875 310.390625 C-80.9259339 306.27234285 -80.66315027 302.66564683 -79.9921875 298.12890625 C-78.20777144 292.50167294 -74.77024347 290.23296944 -70 287 C-68.55515124 285.98165717 -67.11121833 284.96201426 -65.66796875 283.94140625 C-61.57776029 281.07754782 -57.44387176 278.2852153 -53.28613281 275.52050781 C-51.32769567 274.21795052 -49.37781206 272.90381957 -47.4296875 271.5859375 C-37.82967305 265.22448214 -27.72385482 259.85454598 -17.59033203 254.40185547 C-14.06040296 252.49150177 -10.55689022 250.53695393 -7.0625 248.5625 C-6.44681152 248.21461426 -5.83112305 247.86672852 -5.19677734 247.50830078 C-3.88172638 246.76431578 -2.5669598 246.01982792 -1.25244141 245.27490234 C2.39502205 243.21040482 6.04748793 241.15478291 9.69897461 239.09741211 C12.68525994 237.41154806 15.66708627 235.71800797 18.6484375 234.0234375 C21.78225554 232.24413136 24.92449322 230.48985251 28.1015625 228.7890625 C29.72191406 227.90347656 29.72191406 227.90347656 31.375 227 C32.26960937 226.525625 33.16421875 226.05125 34.0859375 225.5625 C36.24561886 224.09991934 36.24561886 224.09991934 36.7890625 221.3125 C36.85867187 220.549375 36.92828125 219.78625 37 219 C30.06740955 218.19959093 23.20996616 217.82029752 16.234375 217.71875 C14.74058319 217.69113586 14.74058319 217.69113586 13.21661377 217.66296387 C10.06112993 217.60479542 6.90559472 217.55177866 3.75 217.5 C-19.78858114 217.11114278 -19.78858114 217.11114278 -30.50830078 216.23632812 C-38.9403786 215.66562114 -47.40681476 215.62136912 -55.85473633 215.44775391 C-58.33683582 215.39553952 -60.81879456 215.33854313 -63.30078125 215.28125 C-64.04161453 215.26767456 -64.78244781 215.25409912 -65.54573059 215.2401123 C-70.05228151 215.13473229 -74.46470544 214.75983164 -78.94010925 214.22613525 C-81.56559519 213.93790884 -84.17245351 213.84052263 -86.8125 213.7890625 C-87.82570312 213.76070312 -88.83890625 213.73234375 -89.8828125 213.703125 C-91.96075649 213.6510462 -94.03891081 213.60677349 -96.1171875 213.5703125 C-103.7493869 213.33726824 -110.84082887 212.94793383 -116.62890625 207.546875 C-122.50811707 199.0428044 -122.50811707 199.0428044 -123 195.125 C-121.70818254 191.08807044 -120.08769159 189.85209458 -116.41796875 187.87109375 C-111.29003855 186.0237134 -106.24404725 186.65188498 -100.953125 187.47265625 C-95.58496791 188.18876416 -90.21676962 188.4866015 -84.8125 188.8125 C-82.79992971 188.93924344 -80.78736212 189.06603107 -78.77484131 189.19355774 C-76.39794472 189.34413497 -74.02099543 189.49386221 -71.64404297 189.64355469 C-61.03404411 190.31308394 -50.42456369 190.98989635 -39.81600952 191.68197632 C-37.23283189 191.8494621 -34.64952181 192.01492022 -32.06607056 192.1781311 C-15.74632361 193.21009186 0.49320816 194.57414916 16.74829102 196.34912109 C24.15391774 197.14719342 31.55980263 197.66021146 39 198 C37.50770167 194.14776342 35.43470754 192.64741374 32.01171875 190.42578125 C30.99400391 189.75740234 29.97628906 189.08902344 28.92773438 188.40039062 C27.85845703 187.71138672 26.78917969 187.02238281 25.6875 186.3125 C23.60724372 184.95569757 21.52782067 183.59761679 19.44921875 182.23828125 C18.39033447 181.54742432 17.3314502 180.85656738 16.24047852 180.14477539 C11.86030918 177.24567288 7.55463045 174.24438068 3.24389648 171.2434082 C-2.06289823 167.57334448 -7.43787248 164.00715277 -12.8125 160.4375 C-13.98505299 159.65681958 -15.15749534 158.87597297 -16.32983398 158.0949707 C-22.03098056 154.29804116 -27.73806056 150.51033676 -33.453125 146.734375 C-44.81639893 139.21483871 -55.99997527 131.52484876 -66.98339844 123.4609375 C-69.59971701 121.56553189 -72.25848873 119.73521466 -74.91845703 117.90185547 C-77.65787323 115.99207851 -80.33186568 114.0083511 -83 112 C-83.70125 111.49210937 -84.4025 110.98421875 -85.125 110.4609375 C-90.37579889 105.74026734 -90.81958727 97.96695137 -91.21875 91.27734375 C-91.21875 87.33704445 -90.49869262 85.13558453 -87.8125 82.125 C-86.55626616 81.06577228 -85.28570121 80.02325911 -84 79 C-83.59652344 78.27554688 -83.19304687 77.55109375 -82.77734375 76.8046875 C-81 75 -81 75 -77.234375 74.6875 C-75.73822456 74.76988129 -74.24318793 74.87492956 -72.75 75 C-72.01136719 75.03222656 -71.27273437 75.06445312 -70.51171875 75.09765625 C-62.24625601 75.66618014 -56.99079419 79.76991482 -50.6875 84.875 C-49.4548208 85.85726512 -48.22172748 86.83901072 -46.98828125 87.8203125 C-46.34068848 88.33754883 -45.6930957 88.85478516 -45.02587891 89.38769531 C-22.39915431 107.39527415 0.95262409 124.45978616 24.2824707 141.53808594 C26.62928388 143.25665265 28.96209288 144.9692879 31.22265625 146.80078125 C33.05713057 148.2796582 33.05713057 148.2796582 36 148 C34.67977581 144.54935291 33.17793551 141.31759724 31.41796875 138.0703125 C30.90508301 137.12236816 30.39219727 136.17442383 29.86376953 135.19775391 C29.31060059 134.18374512 28.75743164 133.16973633 28.1875 132.125 C27.6085498 131.06071777 27.02959961 129.99643555 26.43310547 128.89990234 C20.41052305 117.86366269 14.23895798 106.91506853 8 96 C7.40429199 94.95553711 6.80858398 93.91107422 6.19482422 92.83496094 C-1.12532266 80.01362445 -8.54622662 67.27158293 -16.34545898 54.734375 C-21.58094198 46.25855041 -26.63642909 37.99952001 -28 28 C-28.26490234 26.78957031 -28.26490234 26.78957031 -28.53515625 25.5546875 C-29.59772547 17.37168319 -25.38552606 12.52036827 -20.70849609 6.30639648 C-14.41967945 -1.5695427 -9.51970069 -1.15146872 0 0 Z " fill="#FBF1EC" transform="translate(197,74)"/>
<path d="M0 0 C0.33 0 0.66 0 1 0 C1 39.27 1 78.54 1 119 C-36.95 119 -74.9 119 -114 119 C-114 118.67 -114 118.34 -114 118 C-112.81148438 117.87625 -111.62296875 117.7525 -110.3984375 117.625 C-85.42889954 114.66506192 -61.77676264 104.91112276 -43 88 C-42.175 87.31679688 -41.35 86.63359375 -40.5 85.9296875 C-18.35539616 67.17597612 -3.66346551 37.55405123 -0.47265625 8.84375 C-0.23834828 5.89082758 -0.05943678 2.96103244 0 0 Z " fill="#FEFDFD" transform="translate(554,433)"/>
<path d="M0 0 C0.33 0 0.66 0 1 0 C1.17015625 1.20914062 1.3403125 2.41828125 1.515625 3.6640625 C5.3206394 29.76630061 13.60958629 52.89763094 31 73 C31.97646484 74.19302734 31.97646484 74.19302734 32.97265625 75.41015625 C53.0578564 99.0994297 82.66898624 112.11271999 113 116 C113 116.33 113 116.66 113 117 C75.71 117 38.42 117 0 117 C0 78.39 0 39.78 0 0 Z " fill="#FEFDFD" transform="translate(0,435)"/>
<path d="M0 0 C37.95 0 75.9 0 115 0 C115 37.62 115 75.24 115 114 C114.67 114 114.34 114 114 114 C113.84144531 112.97003906 113.68289063 111.94007812 113.51953125 110.87890625 C110.80021166 93.95490468 106.30662188 79.03528334 98 64 C97.48308594 63.05253906 96.96617187 62.10507812 96.43359375 61.12890625 C92.88113263 54.92419896 88.6129763 49.44859862 84 44 C83.33355469 43.18660156 82.66710937 42.37320313 81.98046875 41.53515625 C62.86318756 19.08387797 33.09640291 4.32151365 3.9375 1.25 C2.638125 1.1675 1.33875 1.085 0 1 C0 0.67 0 0.34 0 0 Z " fill="#FEFDFD" transform="translate(440,0)"/>
<path d="M0 0 C37.29 0 74.58 0 113 0 C113 0.33 113 0.66 113 1 C111.88818359 1.12955078 111.88818359 1.12955078 110.75390625 1.26171875 C78.87393234 5.51498332 48.00799974 21.45244478 28 47 C12.92068575 67.25696889 2.69771357 90.59283833 1 116 C0.67 116 0.34 116 0 116 C0 77.72 0 39.44 0 0 Z " fill="#FEFEFD" transform="translate(0,0)"/>
</svg>
