<?xml version="1.0" encoding="UTF-8"?>
<svg version="1.1" xmlns="http://www.w3.org/2000/svg" width="640" height="640">
<path d="M0 0 C1.98 0 3.96 0 6 0 C6 31.02 6 62.04 6 94 C10.95 94 15.9 94 21 94 C24.6721916 94.2911195 28.23725133 94.62490592 31.875 95.125 C32.83768799 95.25551758 33.80037598 95.38603516 34.79223633 95.52050781 C81.94889625 102.37054521 123.04195044 122.95512124 158 155 C158.33 129.92 158.66 104.84 159 79 C160.98 79 162.96 79 165 79 C165 105.07 165 131.14 165 158 C191.07 158 217.14 158 244 158 C244 159.98 244 161.96 244 164 C218.92 164.33 193.84 164.66 168 165 C170.31 167.31 172.62 169.62 175 172 C176.82514941 174.14539674 178.59030627 176.27758403 180.3125 178.5 C180.77833496 179.09893066 181.24416992 179.69786133 181.72412109 180.31494141 C190.59041366 191.86181076 198.21864919 204.12666293 205 217 C205.33741211 217.63534668 205.67482422 218.27069336 206.02246094 218.92529297 C221.79084625 249.08521434 229 283.18488616 229 317 C260.02 317 291.04 317 323 317 C323 318.98 323 320.96 323 323 C291.98 323 260.96 323 229 323 C229 327.95 229 332.9 229 338 C228.7088805 341.6721916 228.37509408 345.23725133 227.875 348.875 C227.74448242 349.83768799 227.61396484 350.80037598 227.47949219 351.79223633 C220.61337153 399.05961577 199.93984488 439.86617063 168 475 C193.08 475.33 218.16 475.66 244 476 C244 477.98 244 479.96 244 482 C217.93 482 191.86 482 165 482 C165 508.07 165 534.14 165 561 C163.02 561 161.04 561 159 561 C158.67 535.92 158.34 510.84 158 485 C155.36 487.64 152.72 490.28 150 493 C136.55933898 504.35591788 121.54148931 513.81313357 106 522 C105.36465332 522.33741211 104.72930664 522.67482422 104.07470703 523.02246094 C73.91478566 538.79084625 39.81511384 546 6 546 C6 577.02 6 608.04 6 640 C4.02 640 2.04 640 0 640 C0 608.98 0 577.96 0 546 C-4.95 546 -9.9 546 -15 546 C-18.6721916 545.7088805 -22.23725133 545.37509408 -25.875 544.875 C-26.83768799 544.74448242 -27.80037598 544.61396484 -28.79223633 544.47949219 C-76.05961577 537.61337153 -116.86617063 516.93984488 -152 485 C-152.33 510.08 -152.66 535.16 -153 561 C-154.98 561 -156.96 561 -159 561 C-159 534.93 -159 508.86 -159 482 C-185.07 482 -211.14 482 -238 482 C-238 480.02 -238 478.04 -238 476 C-200.38 475.505 -200.38 475.505 -162 475 C-165.96 471.04 -165.96 471.04 -170 467 C-203.98992156 426.63958759 -223 375.7073572 -223 323 C-254.02 323 -285.04 323 -317 323 C-317 321.02 -317 319.04 -317 317 C-285.98 317 -254.96 317 -223 317 C-223 312.05 -223 307.1 -223 302 C-222.7088805 298.3278084 -222.37509408 294.76274867 -221.875 291.125 C-221.74448242 290.16231201 -221.61396484 289.19962402 -221.47949219 288.20776367 C-214.62945479 241.05110375 -194.04487876 199.95804956 -162 165 C-187.08 164.67 -212.16 164.34 -238 164 C-238 162.02 -238 160.04 -238 158 C-211.93 158 -185.86 158 -159 158 C-159 131.93 -159 105.86 -159 79 C-157.02 79 -155.04 79 -153 79 C-152.67 104.08 -152.34 129.16 -152 155 C-149.69 152.69 -147.38 150.38 -145 148 C-142.85460326 146.17485059 -140.72241597 144.40969373 -138.5 142.6875 C-137.90106934 142.22166504 -137.30213867 141.75583008 -136.68505859 141.27587891 C-125.13818924 132.40958634 -112.87333707 124.78135081 -100 118 C-99.36465332 117.66258789 -98.72930664 117.32517578 -98.07470703 116.97753906 C-67.91478566 101.20915375 -33.81511384 94 0 94 C0 62.98 0 31.96 0 0 Z M-136 149 C-138.72292568 151.1694855 -141.45913725 153.32100338 -144.19921875 155.46875 C-144.79347656 155.9740625 -145.38773438 156.479375 -146 157 C-146 157.33 -146 157.66 -146 158 C-100.13 158 -54.26 158 -7 158 C0.27871312 138.59009835 0.50994667 120.43905493 0 100 C-48.00181107 97.90854193 -99.80231802 117.77516251 -136 149 Z M6 100 C5.38277441 120.01140319 5.58487559 138.75462678 12 158 C57.87 158 103.74 158 151 158 C146.41225447 152.44989116 146.41225447 152.44989116 141.328125 147.859375 C140.67392578 147.35204834 140.01972656 146.84472168 139.34570312 146.32202148 C138.30833008 145.54387085 138.30833008 145.54387085 137.25 144.75 C136.50685547 144.19062744 135.76371094 143.63125488 134.99804688 143.05493164 C100.76815768 117.70225238 56.6340424 99.60217212 13.52734375 99.95703125 C12.79833862 99.96013306 12.0693335 99.96323486 11.3182373 99.96643066 C9.54547425 99.97442591 7.77273158 99.98675169 6 100 Z M-150 164 C-145.22760892 169.60521069 -145.22760892 169.60521069 -140.21685791 174.91685486 C-139.18650169 175.95360855 -139.18650169 175.95360855 -138.1353302 177.01130676 C-137.03628609 178.1096711 -137.03628609 178.1096711 -135.91503906 179.23022461 C-135.12733627 180.02128601 -134.33963348 180.81234741 -133.52806091 181.62738037 C-130.94321145 184.22167215 -128.3546604 186.81222985 -125.765625 189.40234375 C-123.96287787 191.20830545 -122.16020563 193.01434192 -120.35760498 194.82044983 C-116.59027741 198.59374986 -112.82092568 202.36501368 -109.05029297 206.13500977 C-104.68875685 210.49594242 -100.3328599 214.86245295 -95.97950006 219.23154634 C-91.78498928 223.44067566 -87.58499218 227.64429973 -83.38286591 231.8458271 C-81.59659186 233.63328483 -79.81194744 235.42237258 -78.02893829 237.21308708 C-75.54644324 239.70531365 -73.05777259 242.191203 -70.56738281 244.67553711 C-69.82658981 245.42194962 -69.08579681 246.16836212 -68.32255554 246.93739319 C-67.64693069 247.60882355 -66.97130585 248.28025391 -66.27520752 248.97203064 C-65.68752216 249.56026076 -65.09983681 250.14849089 -64.4943428 250.75454617 C-63.06815809 252.21341181 -63.06815809 252.21341181 -61 252 C-59.52901313 250.62375656 -59.52901313 250.62375656 -58 248.75 C-57.37609375 248.01265625 -56.7521875 247.2753125 -56.109375 246.515625 C-55.06523437 245.27039063 -55.06523437 245.27039063 -54 244 C-53.24203125 243.12859375 -52.4840625 242.2571875 -51.703125 241.359375 C-36.19843504 223.28702938 -9 189.12521702 -9 164 C-55.53 164 -102.06 164 -150 164 Z M14 164 C18.51913697 176.26622892 22.87977212 187.60529002 29 199 C29.34256836 199.65033203 29.68513672 200.30066406 30.03808594 200.97070312 C38.43100181 216.84919261 48.72860417 231.11333023 60.671875 244.50439453 C61.87910988 245.86386528 63.06576468 247.24154184 64.25 248.62109375 C67.81286429 252.74761431 71.47756448 256.50848866 75.65234375 260.015625 C77.42377816 261.51294393 79.16031759 263.05168541 80.87890625 264.609375 C103.39483901 284.86549699 130.37687267 299.45895756 159 309 C159 261.15 159 213.3 159 164 C111.15 164 63.3 164 14 164 Z M-153 170 C-153 215.87 -153 261.74 -153 309 C-140.73377108 304.48086303 -129.39470998 300.12022788 -118 294 C-117.34966797 293.65743164 -116.69933594 293.31486328 -116.02929688 292.96191406 C-98.08146549 283.47520319 -81.20006648 271.57827649 -67 257 C-68.38369069 253.88847963 -69.98119221 251.7694193 -72.38478088 249.36798096 C-73.08445984 248.66410751 -73.78413879 247.96023407 -74.50502014 247.23503113 C-75.27236984 246.47330093 -76.03971954 245.71157074 -76.83032227 244.92675781 C-78.04267044 243.71156212 -78.04267044 243.71156212 -79.2795105 242.47181702 C-81.95361319 239.79400793 -84.63485094 237.12346941 -87.31640625 234.453125 C-89.17239703 232.59832595 -91.02801873 230.7431575 -92.88328552 228.88763428 C-96.77124625 225.00060934 -100.66305705 221.11747358 -104.55737305 217.23681641 C-109.06529775 212.74464393 -113.56794742 208.24723914 -118.06763607 203.74681783 C-122.39328854 199.42055608 -126.72183881 195.09720836 -131.05189323 190.77535248 C-132.89658904 188.93384995 -134.74067 187.09173132 -136.58413887 185.24900055 C-139.15327241 182.68202193 -141.72566351 180.11835577 -144.29907227 177.55566406 C-145.0684462 176.78583694 -145.83782013 176.01600983 -146.63050842 175.22285461 C-147.32736755 174.53026047 -148.02422668 173.83766632 -148.74220276 173.12408447 C-149.35075387 172.51720921 -149.95930498 171.91033394 -150.58629704 171.28506851 C-151.80491403 169.88789341 -151.80491403 169.88789341 -153 170 Z M-162.08203125 174.02734375 C-174.74679589 187.52555499 -184.5342384 202.58027855 -193 219 C-193.38784668 219.74443359 -193.77569336 220.48886719 -194.17529297 221.25585938 C-209.48758835 250.96877469 -217.26866815 283.65258406 -217 317 C-196.98859681 317.61722559 -178.24537322 317.41512441 -159 311 C-159 265.13 -159 219.26 -159 172 C-160.36492845 171.88372753 -160.36492845 171.88372753 -162.08203125 174.02734375 Z M165 172 C165 217.87 165 263.74 165 311 C181.80119448 315.49170098 181.80119448 315.49170098 198.48828125 317.09765625 C199.5430793 317.09553383 199.5430793 317.09553383 200.6191864 317.09336853 C202.85033544 317.08780109 205.08138164 317.07525475 207.3125 317.0625 C208.83137875 317.05748079 210.35025909 317.05291862 211.86914062 317.04882812 C215.57946012 317.03784236 219.28972001 317.02060034 223 317 C223.11578208 308.4621438 223.10601323 300.09110372 221.875 291.625 C221.74448242 290.71000732 221.61396484 289.79501465 221.47949219 288.85229492 C214.97128879 246.06915515 196.77958354 203.10104133 166 172 C165.67 172 165.34 172 165 172 Z M2 193 C1.64772339 193.7892688 1.64772339 193.7892688 1.28833008 194.59448242 C-7.34803848 213.76088771 -17.56501304 231.77305482 -31 248 C-31.65355469 248.8036499 -31.65355469 248.8036499 -32.3203125 249.62353516 C-44.61939973 264.71187967 -58.26759144 278.50846222 -74 290 C-75.15105017 290.85806152 -76.30209177 291.71613451 -77.453125 292.57421875 C-92.02051812 303.31163891 -107.81235211 311.96777289 -124 320 C-122.03022445 321.96977555 -120.78022766 322.67278842 -118.28125 323.77734375 C-117.52303955 324.11999268 -116.7648291 324.4626416 -115.98364258 324.81567383 C-114.7542395 325.37097778 -114.7542395 325.37097778 -113.5 325.9375 C-97.37567451 333.42483276 -82.8996343 342.95854787 -69 354 C-68.16807129 354.65621338 -68.16807129 354.65621338 -67.31933594 355.32568359 C-53.56257345 366.27179 -40.54855032 378.92908665 -30 393 C-29.52675293 393.61858887 -29.05350586 394.23717773 -28.56591797 394.87451172 C-16.24039478 411.04145769 -6.12857949 428.36723503 2 447 C5.35154405 444.24657766 6.86419742 440.51490247 8.6875 436.6875 C17.69610231 418.32014501 28.61577661 401.50011165 42 386 C42.680625 385.20851563 43.36125 384.41703125 44.0625 383.6015625 C53.81596341 372.5213412 64.22439492 361.92908477 76 353 C76.62293945 352.52240234 77.24587891 352.04480469 77.88769531 351.55273438 C94.05032937 339.23323258 111.37390349 329.12567037 130 321 C127.24657766 317.64845595 123.51490247 316.13580258 119.6875 314.3125 C96.26904375 302.82649348 75.90575959 287.95193429 57 270 C56.46584473 269.49452637 55.93168945 268.98905273 55.38134766 268.46826172 C47.08472799 260.56120101 39.81598617 252.2070678 33 243 C32.57090332 242.42636719 32.14180664 241.85273438 31.69970703 241.26171875 C20.44355993 226.15691553 11.36232924 209.85291507 3 193 C2.67 193 2.34 193 2 193 Z M-217 323 C-217.11934147 331.7406579 -217.06297601 340.26201274 -215.875 348.9375 C-215.74375732 349.90421631 -215.61251465 350.87093262 -215.47729492 351.86694336 C-209.85467788 390.41803991 -194.02992835 429.64402525 -168 459 C-167.24203125 459.87785156 -166.4840625 460.75570312 -165.703125 461.66015625 C-162.90623454 464.88025702 -162.90623454 464.88025702 -160 468 C-159.67 468 -159.34 468 -159 468 C-159 422.46 -159 376.92 -159 330 C-178.40990165 322.72128688 -196.56094507 322.49005333 -217 323 Z M165 330 C165 375.54 165 421.08 165 468 C171.84077535 462.13647827 176.80473262 456.19481367 182 449 C182.40089844 448.45263184 182.80179687 447.90526367 183.21484375 447.34130859 C204.35702486 418.20149094 216.78224774 383.82528159 221.875 348.375 C221.99536621 347.54790527 222.11573242 346.72081055 222.23974609 345.86865234 C223.21039593 338.25544689 223.1038803 330.66021037 223 323 C193.23518436 321.76091635 193.23518436 321.76091635 165 330 Z M-153 332 C-153 379.52 -153 427.04 -153 476 C-105.48 476 -57.96 476 -9 476 C-11.2704636 467.28067818 -11.2704636 467.28067818 -14.41796875 459.16796875 C-14.86358154 458.19182617 -15.30919434 457.21568359 -15.76831055 456.20996094 C-16.23664307 455.21254883 -16.70497559 454.21513672 -17.1875 453.1875 C-17.67581299 452.13723633 -18.16412598 451.08697266 -18.66723633 450.00488281 C-28.62341774 428.84207976 -41.51891655 409.67380285 -57.5546875 392.65625 C-60 390 -60 390 -62.109375 387.34765625 C-63.76916833 385.28663189 -65.36574961 383.64218076 -67.375 381.9375 C-69.94474563 379.75510573 -72.49589628 377.56184129 -75 375.3046875 C-92.50801414 359.67939514 -112.69540793 347.90394787 -134.125 338.5 C-135.08494873 338.07831543 -136.04489746 337.65663086 -137.03393555 337.22216797 C-142.43110093 334.91537986 -147.18037001 333.4549075 -153 332 Z M73 383 C72.34 383.99 71.68 384.98 71 386 C82.3230919 397.34641848 93.64901944 408.68999743 104.97836208 420.03017426 C110.23831637 425.29529201 115.49732683 430.56134614 120.75415039 435.82958984 C125.33425062 440.41963535 129.91608663 445.00793969 134.50004441 449.5941329 C136.92872779 452.02412365 139.35651338 454.45499677 141.78222466 456.88795471 C144.48549394 459.59923477 147.19263576 462.306627 149.90014648 465.01367188 C150.71006546 465.82718613 151.51998444 466.64070038 152.35444641 467.47886658 C153.45455551 468.57691368 153.45455551 468.57691368 154.57688904 469.69714355 C155.21753516 470.33871147 155.85818129 470.98027939 156.51824093 471.64128876 C157.78777459 473.11264024 157.78777459 473.11264024 159 473 C159 426.47 159 379.94 159 332 C129.96721189 332 92.56730343 363.56402076 73 383 Z M62.5625 393.125 C45.10018634 411.12219534 14 449.91603469 14 476 C59.87 476 105.74 476 153 476 C148.26448144 470.43377338 148.26448144 470.43377338 143.29278564 465.15907288 C142.62270981 464.48473206 141.95263397 463.81039124 141.26225281 463.11561584 C140.54825821 462.40207443 139.83426361 461.68853302 139.09863281 460.95336914 C138.33043716 460.18181488 137.56224152 459.41026062 136.77076721 458.61532593 C134.25084746 456.08596669 131.72722929 453.5603392 129.203125 451.03515625 C127.44521843 449.27403497 125.68738669 447.512839 123.92962646 445.75157166 C120.25645565 442.07242913 116.58123981 438.39534336 112.90478516 434.71948242 C109.12429513 430.93907417 105.34720457 427.15533021 101.57373047 423.36791992 C97.01313715 418.79072303 92.44773828 414.21837741 87.87850189 409.64980888 C86.13688518 407.90700855 84.39689794 406.16257831 82.65854645 404.41652107 C80.2383169 401.9865597 77.81191347 399.56293798 75.38378906 397.14086914 C74.66169754 396.41315811 73.93960602 395.68544708 73.19563293 394.9356842 C72.5368364 394.28108215 71.87803986 393.6264801 71.19927979 392.95204163 C70.62634312 392.37856019 70.05340645 391.80507875 69.46310806 391.21421909 C66.40434859 388.67578447 64.94933566 390.75305105 62.5625 393.125 Z M-145 482 C-139.13647827 488.84077535 -133.19481367 493.80473262 -126 499 C-125.45263184 499.40089844 -124.90526367 499.80179687 -124.34130859 500.21484375 C-95.20149094 521.35702486 -60.82528159 533.78224774 -25.375 538.875 C-24.54790527 538.99536621 -23.72081055 539.11573242 -22.86865234 539.23974609 C-15.25544689 540.21039593 -7.66021037 540.1038803 0 540 C1.23908365 510.23518436 1.23908365 510.23518436 -7 482 C-52.54 482 -98.08 482 -145 482 Z M12 482 C7.50829902 498.80119448 7.50829902 498.80119448 5.90234375 515.48828125 C5.9037587 516.19147995 5.90517365 516.89467865 5.90663147 517.6191864 C5.91219891 519.85033544 5.92474525 522.08138164 5.9375 524.3125 C5.94251921 525.83137875 5.94708138 527.35025909 5.95117188 528.86914062 C5.96215764 532.57946012 5.97939966 536.28972001 6 540 C14.5378562 540.11578208 22.90889628 540.10601323 31.375 538.875 C32.28999268 538.74448242 33.20498535 538.61396484 34.14770508 538.47949219 C68.18219852 533.30213945 100.86381417 521.00846603 129 501 C129.56493164 500.60184082 130.12986328 500.20368164 130.71191406 499.79345703 C137.88020468 494.70222025 144.74927912 489.19540476 151 483 C151 482.67 151 482.34 151 482 C105.13 482 59.26 482 12 482 Z " fill="#63A2FF" transform="translate(317,0)"/>
</svg>
