<svg xmlns="http://www.w3.org/2000/svg" viewBox="0 0 1040 1030" width="1040" height="1030" role="img" aria-label="Arionear system architecture: user, processing, human gate, output and infrastructure layers"><title>Arionear system architecture: user, processing, human gate, output and infrastructure layers</title><style>:root{--pp:#F7F6F2;--ik:#0A0A0A;--rd:#C9000C;--mu:#555555;--tp:#FEFDFB;--fl:#E2E1DF;--fr:#C9C7C1;--on:#F7F6F2}@media (prefers-color-scheme:dark){:root{--pp:#0F0D08;--ik:#ECEBE7;--rd:#EE3533;--mu:#A7A49E;--tp:#2E2C26;--fl:#221F1A;--fr:#181611;--on:#0F0D08}}.d{font-family:'Playfair Display', Georgia, 'Times New Roman', serif}.dv{font-family:'Playfair Display', 'Noto Serif Display', 'Noto Serif', 'Times New Roman', Times, serif}.s{font-family:'Source Serif 4', 'Source Serif Pro', Georgia, 'Times New Roman', serif}.sv{font-family:'Source Serif 4', 'Noto Serif', 'Times New Roman', Times, serif}.m{font-family:'JetBrains Mono', ui-monospace, 'Cascadia Mono', Consolas, Menlo, monospace}.u{font-family:Inter, 'Helvetica Neue', Arial, sans-serif}.k{letter-spacing:.12em}.i{fill:var(--ik)}.p{fill:var(--pp)}.r{fill:var(--rd)}.q{fill:var(--mu)}.t{fill:var(--tp)}.L{fill:var(--fl)}.R{fill:var(--fr)}.o{fill:var(--on)}.e{stroke:var(--ik);stroke-width:1.3;stroke-linejoin:round}.h{paint-order:stroke;stroke:var(--pp);stroke-width:5px;stroke-linejoin:round}.ln{fill:none;stroke:var(--ik)}.sh{fill:var(--ik);fill-opacity:.18}.tk{fill:none;stroke:var(--ik);stroke-opacity:.42;stroke-width:1.3}.dt{fill:none;stroke:var(--ik);stroke-opacity:.6;stroke-width:1.3;stroke-dasharray:2 5;stroke-linecap:round}.fw{fill:none;stroke:var(--rd);stroke-width:2;stroke-dasharray:6 10;animation:fw 1.4s linear infinite}@keyframes fw{to{stroke-dashoffset:-32}}.pl{fill:none;stroke:var(--rd);stroke-width:1.6;transform-box:fill-box;transform-origin:center;animation:pl 2.8s ease-out infinite}@keyframes pl{0%{opacity:.9;transform:scale(1)}100%{opacity:0;transform:scale(1.35)}}@media (prefers-reduced-motion:reduce){.fw,.pl{animation:none}.pl{opacity:.5}.pk{display:none}}</style><defs><pattern id="dots" width="4" height="4" patternUnits="userSpaceOnUse"><path d="M1 3h1v1H1zM3 1h1v1H3z" class="i" fill-opacity=".05"/></pattern><pattern id="hatch" width="4" height="4" patternUnits="userSpaceOnUse"><path d="M1 0V4" class="ln" stroke-width=".8" stroke-opacity=".26"/></pattern><marker id="ah" viewBox="0 0 10 10" refX="9" refY="5" markerWidth="9" markerHeight="9" markerUnits="userSpaceOnUse" orient="auto-start-reverse"><path d="M0,1 L10,5 L0,9 z" class="i"/></marker></defs><rect width="1040" height="1030" class="p"/><rect width="1040" height="1030" fill="url(#dots)"/><rect x=".75" y=".75" width="1038.5" height="1028.5" class="ln" stroke-width="1.5"/><text x="40.0" y="38.0" class="m k i" font-size="14" font-weight="700">ARIONEAR · ARCHITECTURE DESK</text><text x="1000.0" y="38.0" class="m k r" font-size="14" text-anchor="end" font-weight="700">FIG. 1.2</text><path d="M 40.0 50.0 L 1000.0 50.0" class="ln" stroke-width="1.0"/><rect x="40.0" y="66.0" width="98.6" height="26" class="r"/><text x="50.0" y="84.0" class="m k o" font-size="14" font-weight="700">OVERVIEW</text><text x="152.6" y="84.0" class="m q" font-size="14">src/ · frontend/</text><text x="40.0" y="140.0" class="d i" font-size="42" font-weight="700">System Architecture</text><text x="40.0" y="172.0" class="sv q" font-size="18" font-style="italic">5 tầng xử lý — mọi đề xuất của AI đều phải qua Human Gate trước khi trở thành output</text><rect x="40" y="188" width="960" height="3" class="i"/><path d="M 40.0 196.0 L 1000.0 196.0" class="ln" stroke-width="1.0"/><rect x="0" y="990" width="1040" height="40" class="i"/><text x="40.0" y="1015.0" class="m k o" font-size="14" font-weight="700">LATEX-NATIVE</text><path d="M 173.0 1004 l 6 6 l -6 6 l -6 -6 z" class="r"/><text x="191.0" y="1015.0" class="m k o" font-size="14" font-weight="700">HUMAN-IN-THE-LOOP</text><path d="M 374.3 1004 l 6 6 l -6 6 l -6 -6 z" class="r"/><text x="392.3" y="1015.0" class="m k o" font-size="14" font-weight="700">MULTI-LLM FAILOVER</text><path d="M 585.8 1004 l 6 6 l -6 6 l -6 -6 z" class="r"/><text x="603.8" y="1015.0" class="m k o" font-size="14" font-weight="700">QUOTA-METERED</text><path d="M 746.8 1004 l 6 6 l -6 6 l -6 -6 z" class="r"/><text x="764.8" y="1015.0" class="m k o" font-size="14" font-weight="700">SANDBOXED TEX</text><path d="M 40.0 212.0 L 1000.0 212.0" class="ln" stroke-width="1.3"/><path d="M 72.0 220.0 L 72.0 360.0" class="ln" stroke-width="1.0" stroke-opacity="0.35"/><g transform="translate(61 290.0) rotate(-90)"><text x="0" y="0" text-anchor="middle" class="m k i" font-size="14" font-weight="700"><tspan class="r">01</tspan> USER</text></g><rect x="40" y="378" width="960" height="138" class="i" fill-opacity=".035"/><path d="M 40.0 378.0 L 1000.0 378.0" class="ln" stroke-width="1.3"/><path d="M 72.0 386.0 L 72.0 508.0" class="ln" stroke-width="1.0" stroke-opacity="0.35"/><g transform="translate(61 447.0) rotate(-90)"><text x="0" y="0" text-anchor="middle" class="m k i" font-size="14" font-weight="700"><tspan class="r">02</tspan> PROCESSING</text></g><path d="M 40.0 526.0 L 1000.0 526.0" class="ln" stroke-width="1.3"/><path d="M 72.0 534.0 L 72.0 636.0" class="ln" stroke-width="1.0" stroke-opacity="0.35"/><g transform="translate(61 585.0) rotate(-90)"><text x="0" y="0" text-anchor="middle" class="m k i" font-size="14" font-weight="700"><tspan class="r">03</tspan> GATE</text></g><rect x="40" y="654" width="960" height="152" class="i" fill-opacity=".035"/><path d="M 40.0 654.0 L 1000.0 654.0" class="ln" stroke-width="1.3"/><path d="M 72.0 662.0 L 72.0 798.0" class="ln" stroke-width="1.0" stroke-opacity="0.35"/><g transform="translate(61 730.0) rotate(-90)"><text x="0" y="0" text-anchor="middle" class="m k i" font-size="14" font-weight="700"><tspan class="r">04</tspan> OUTPUT</text></g><path d="M 40.0 816.0 L 1000.0 816.0" class="ln" stroke-width="1.3"/><path d="M 72.0 824.0 L 72.0 966.0" class="ln" stroke-width="1.0" stroke-opacity="0.35"/><g transform="translate(61 895.0) rotate(-90)"><text x="0" y="0" text-anchor="middle" class="m k i" font-size="14" font-weight="700"><tspan class="r">05</tspan> INFRA</text></g><path d="M 542.0 261.0 V 240" class="tk"/><path d="M 542.0 261.0 V 240" class="fw"/><path d="M 149.4 240.0 H 934.6" class="tk"/><path d="M 149.4 240.0 H 934.6" class="fw"/><path d="M 149.4 240.0 V 257.0" class="tk" marker-end="url(#ah)"/><path d="M 280.3 240.0 V 257.0" class="tk" marker-end="url(#ah)"/><path d="M 411.1 240.0 V 257.0" class="tk" marker-end="url(#ah)"/><path d="M 803.7 240.0 V 257.0" class="tk" marker-end="url(#ah)"/><path d="M 934.6 240.0 V 257.0" class="tk" marker-end="url(#ah)"/><path d="M 149.4 363 V 405.0" class="tk" marker-end="url(#ah)"/><path d="M 280.3 363 V 405.0" class="tk" marker-end="url(#ah)"/><path d="M 411.1 363 V 405.0" class="tk" marker-end="url(#ah)"/><path d="M 803.7 363 V 405.0" class="tk" marker-end="url(#ah)"/><path d="M 934.6 363 V 405.0" class="tk" marker-end="url(#ah)"/><path d="M 183.4 436.0 H 244.3" class="tk" marker-end="url(#ah)"/><path d="M 183.4 436.0 H 244.3" class="fw"/><path d="M 314.3 436.0 H 375.1" class="tk" marker-end="url(#ah)"/><path d="M 314.3 436.0 H 375.1" class="fw"/><path d="M 445.1 436.0 H 496.0" class="tk" marker-end="url(#ah)"/><path d="M 445.1 436.0 H 496.0" class="fw"/><path d="M 586.0 436.0 H 636.9" class="tk" marker-end="url(#ah)"/><path d="M 586.0 436.0 H 636.9" class="fw"/><path d="M 672.9 511 V 544.6" class="tk" marker-end="url(#ah)"/><path d="M 672.9 511 V 544.6" class="fw"/><path d="M 803.7 511 V 588.0 H 726.9" class="tk" marker-end="url(#ah)"/><path d="M 803.7 511 V 588.0 H 726.9" class="fw"/><path d="M 934.6 511 V 695.0" class="tk" marker-end="url(#ah)"/><path d="M 934.6 511 V 695.0" class="fw"/><path d="M 672.9 627.4 V 676" class="tk"/><path d="M 672.9 627.4 V 676" class="fw"/><path d="M 149.4 676.0 H 803.7" class="tk"/><path d="M 149.4 676.0 H 803.7" class="fw"/><path d="M 149.4 676.0 V 695.0" class="tk" marker-end="url(#ah)"/><path d="M 280.3 676.0 V 695.0" class="tk" marker-end="url(#ah)"/><path d="M 411.1 676.0 V 695.0" class="tk" marker-end="url(#ah)"/><path d="M 542.0 676.0 V 695.0" class="tk" marker-end="url(#ah)"/><path d="M 672.9 676.0 V 695.0" class="tk" marker-end="url(#ah)"/><path d="M 803.7 676.0 V 695.0" class="tk" marker-end="url(#ah)"/><path d="M 149.4 874 H 934.6" class="tk"/><path d="M 149.4 874 H 934.6" class="fw"/><g class="b"><polygon points="123.4,280.0 149.4,265.0 175.4,280.0 175.4,296.0 149.4,311.0 123.4,296.0" class="sh" transform="translate(4 4)"/><polygon points="123.4,280.0 149.4,295.0 149.4,311.0 123.4,296.0" class="L e"/><polygon points="149.4,295.0 175.4,280.0 175.4,296.0 149.4,311.0" class="R e"/><polygon points="149.4,295.0 175.4,280.0 175.4,296.0 149.4,311.0" fill="url(#hatch)"/><polygon points="149.4,265.0 175.4,280.0 149.4,295.0 123.4,280.0" class="t e"/><g transform="matrix(.866 .5 -.866 .5 149.4 280.0)"><text x="0" y="5.0" text-anchor="middle" class="m i" font-size="14.0" font-weight="700" fill-opacity="0.8">ZIP</text></g></g><g class="b"><polygon points="254.3,280.0 280.3,265.0 306.3,280.0 306.3,296.0 280.3,311.0 254.3,296.0" class="sh" transform="translate(4 4)"/><polygon points="254.3,280.0 280.3,295.0 280.3,311.0 254.3,296.0" class="L e"/><polygon points="280.3,295.0 306.3,280.0 306.3,296.0 280.3,311.0" class="R e"/><polygon points="280.3,295.0 306.3,280.0 306.3,296.0 280.3,311.0" fill="url(#hatch)"/><polygon points="280.3,265.0 306.3,280.0 280.3,295.0 254.3,280.0" class="t e"/><g transform="matrix(.866 .5 -.866 .5 280.3 280.0)"><text x="0" y="5.0" text-anchor="middle" class="m i" font-size="14.0" font-weight="700" fill-opacity="0.8">DOC</text></g></g><g class="b"><polygon points="385.1,280.0 411.1,265.0 437.1,280.0 437.1,296.0 411.1,311.0 385.1,296.0" class="sh" transform="translate(4 4)"/><polygon points="385.1,280.0 411.1,295.0 411.1,311.0 385.1,296.0" class="L e"/><polygon points="411.1,295.0 437.1,280.0 437.1,296.0 411.1,311.0" class="R e"/><polygon points="411.1,295.0 437.1,280.0 437.1,296.0 411.1,311.0" fill="url(#hatch)"/><polygon points="411.1,265.0 437.1,280.0 411.1,295.0 385.1,280.0" class="t e"/><g transform="matrix(.866 .5 -.866 .5 411.1 280.0)"><text x="0" y="5.0" text-anchor="middle" class="m i" font-size="14.0" font-weight="700" fill-opacity="0.8">MSG</text></g></g><g class="b"><polygon points="516.0,280.0 542.0,265.0 568.0,280.0 568.0,296.0 542.0,311.0 516.0,296.0" class="sh" transform="translate(4 4)"/><polygon points="516.0,280.0 542.0,295.0 542.0,311.0 516.0,296.0" class="L e"/><polygon points="542.0,295.0 568.0,280.0 568.0,296.0 542.0,311.0" class="R e"/><polygon points="542.0,295.0 568.0,280.0 568.0,296.0 542.0,311.0" fill="url(#hatch)"/><polygon points="542.0,265.0 568.0,280.0 542.0,295.0 516.0,280.0" class="t e"/><g transform="matrix(.866 .5 -.866 .5 542.0 280.0)"><text x="0" y="5.0" text-anchor="middle" class="m i" font-size="14.0" font-weight="700" fill-opacity="0.8">USR</text></g></g><g class="b"><polygon points="777.7,280.0 803.7,265.0 829.7,280.0 829.7,296.0 803.7,311.0 777.7,296.0" class="sh" transform="translate(4 4)"/><polygon points="777.7,280.0 803.7,295.0 803.7,311.0 777.7,296.0" class="L e"/><polygon points="803.7,295.0 829.7,280.0 829.7,296.0 803.7,311.0" class="R e"/><polygon points="803.7,295.0 829.7,280.0 829.7,296.0 803.7,311.0" fill="url(#hatch)"/><polygon points="803.7,265.0 829.7,280.0 803.7,295.0 777.7,280.0" class="t e"/><g transform="matrix(.866 .5 -.866 .5 803.7 280.0)"><text x="0" y="5.0" text-anchor="middle" class="m i" font-size="14.0" font-weight="700" fill-opacity="0.8">R1</text></g></g><g class="b"><polygon points="908.6,280.0 934.6,265.0 960.6,280.0 960.6,296.0 934.6,311.0 908.6,296.0" class="sh" transform="translate(4 4)"/><polygon points="908.6,280.0 934.6,295.0 934.6,311.0 908.6,296.0" class="L e"/><polygon points="934.6,295.0 960.6,280.0 960.6,296.0 934.6,311.0" class="R e"/><polygon points="934.6,295.0 960.6,280.0 960.6,296.0 934.6,311.0" fill="url(#hatch)"/><polygon points="934.6,265.0 960.6,280.0 934.6,295.0 908.6,280.0" class="t e"/><g transform="matrix(.866 .5 -.866 .5 934.6 280.0)"><text x="0" y="5.0" text-anchor="middle" class="m i" font-size="14.0" font-weight="700" fill-opacity="0.8">QA</text></g></g><g class="b"><polygon points="123.4,428.0 149.4,413.0 175.4,428.0 175.4,444.0 149.4,459.0 123.4,444.0" class="sh" transform="translate(4 4)"/><polygon points="123.4,428.0 149.4,443.0 149.4,459.0 123.4,444.0" class="L e"/><polygon points="149.4,443.0 175.4,428.0 175.4,444.0 149.4,459.0" class="R e"/><polygon points="149.4,443.0 175.4,428.0 175.4,444.0 149.4,459.0" fill="url(#hatch)"/><polygon points="149.4,413.0 175.4,428.0 149.4,443.0 123.4,428.0" class="t e"/><g transform="matrix(.866 .5 -.866 .5 149.4 428.0)"><text x="0" y="5.0" text-anchor="middle" class="m i" font-size="14.0" font-weight="700" fill-opacity="0.8">TEX</text></g></g><g class="b"><polygon points="254.3,428.0 280.3,413.0 306.3,428.0 306.3,444.0 280.3,459.0 254.3,444.0" class="sh" transform="translate(4 4)"/><polygon points="254.3,428.0 280.3,443.0 280.3,459.0 254.3,444.0" class="L e"/><polygon points="280.3,443.0 306.3,428.0 306.3,444.0 280.3,459.0" class="R e"/><polygon points="280.3,443.0 306.3,428.0 306.3,444.0 280.3,459.0" fill="url(#hatch)"/><polygon points="280.3,413.0 306.3,428.0 280.3,443.0 254.3,428.0" class="t e"/><g transform="matrix(.866 .5 -.866 .5 280.3 428.0)"><text x="0" y="5.0" text-anchor="middle" class="m i" font-size="14.0" font-weight="700" fill-opacity="0.8">DB</text></g></g><g class="b"><polygon points="385.1,428.0 411.1,413.0 437.1,428.0 437.1,444.0 411.1,459.0 385.1,444.0" class="sh" transform="translate(4 4)"/><polygon points="385.1,428.0 411.1,443.0 411.1,459.0 385.1,444.0" class="L e"/><polygon points="411.1,443.0 437.1,428.0 437.1,444.0 411.1,459.0" class="R e"/><polygon points="411.1,443.0 437.1,428.0 437.1,444.0 411.1,459.0" fill="url(#hatch)"/><polygon points="411.1,413.0 437.1,428.0 411.1,443.0 385.1,428.0" class="t e"/><g transform="matrix(.866 .5 -.866 .5 411.1 428.0)"><text x="0" y="5.0" text-anchor="middle" class="m i" font-size="14.0" font-weight="700" fill-opacity="0.8">IR</text></g></g><g class="b"><polygon points="506.0,420.2 542.0,399.4 578.0,420.2 578.0,438.2 542.0,459.0 506.0,438.2" class="sh" transform="translate(4 4)"/><polygon points="506.0,420.2 542.0,441.0 542.0,459.0 506.0,438.2" class="L e"/><polygon points="542.0,441.0 578.0,420.2 578.0,438.2 542.0,459.0" class="R e"/><polygon points="542.0,441.0 578.0,420.2 578.0,438.2 542.0,459.0" fill="url(#hatch)"/><polygon points="542.0,399.4 578.0,420.2 542.0,441.0 506.0,420.2" class="t e"/><polygon points="528.9,405.7 535.9,409.8 535.9,415.8 528.9,411.7" class="L e" stroke-width="1"/><polygon points="535.9,409.8 542.9,405.7 542.9,411.7 535.9,415.8" class="R e" stroke-width="1"/><polygon points="535.9,401.7 542.9,405.7 535.9,409.8 528.9,405.7" class="t e" stroke-width="1"/><polygon points="541.9,413.2 548.9,417.3 548.9,423.3 541.9,419.2" class="L e" stroke-width="1"/><polygon points="548.9,417.3 555.9,413.2 555.9,419.2 548.9,423.3" class="R e" stroke-width="1"/><polygon points="548.9,409.2 555.9,413.2 548.9,417.3 541.9,413.2" class="t e" stroke-width="1"/><polygon points="515.1,413.7 522.1,417.8 522.1,423.8 515.1,419.7" class="L e" stroke-width="1"/><polygon points="522.1,417.8 529.1,413.7 529.1,419.7 522.1,423.8" class="R e" stroke-width="1"/><polygon points="522.1,409.7 529.1,413.7 522.1,417.8 515.1,413.7" class="t e" stroke-width="1"/><polygon points="554.9,420.7 561.9,424.8 561.9,430.8 554.9,426.7" class="L e" stroke-width="1"/><polygon points="561.9,424.8 568.9,420.7 568.9,426.7 561.9,430.8" class="R e" stroke-width="1"/><polygon points="561.9,416.7 568.9,420.7 561.9,424.8 554.9,420.7" class="t e" stroke-width="1"/><polygon points="528.1,421.2 535.1,425.3 535.1,431.3 528.1,427.2" class="L e" stroke-width="1"/><polygon points="535.1,425.3 542.1,421.2 542.1,427.2 535.1,431.3" class="R e" stroke-width="1"/><polygon points="535.1,417.2 542.1,421.2 535.1,425.3 528.1,421.2" class="t e" stroke-width="1"/><polygon points="541.1,428.7 548.1,432.8 548.1,438.8 541.1,434.7" class="L e" stroke-width="1"/><polygon points="548.1,432.8 555.1,428.7 555.1,434.7 548.1,438.8" class="R e" stroke-width="1"/><polygon points="548.1,424.7 555.1,428.7 548.1,432.8 541.1,428.7" class="t e" stroke-width="1"/></g><g class="b"><polygon points="646.9,428.0 672.9,413.0 698.9,428.0 698.9,444.0 672.9,459.0 646.9,444.0" class="sh" transform="translate(4 4)"/><polygon points="646.9,428.0 672.9,443.0 672.9,459.0 646.9,444.0" class="L e"/><polygon points="672.9,443.0 698.9,428.0 698.9,444.0 672.9,459.0" class="R e"/><polygon points="672.9,443.0 698.9,428.0 698.9,444.0 672.9,459.0" fill="url(#hatch)"/><polygon points="672.9,413.0 698.9,428.0 672.9,443.0 646.9,428.0" class="r e"/><g transform="matrix(.866 .5 -.866 .5 672.9 428.0)"><text x="0" y="5.0" text-anchor="middle" class="m o" font-size="14.0" font-weight="700" fill-opacity="0.8">L2</text></g></g><g class="b"><polygon points="777.7,428.0 803.7,413.0 829.7,428.0 829.7,444.0 803.7,459.0 777.7,444.0" class="sh" transform="translate(4 4)"/><polygon points="777.7,428.0 803.7,443.0 803.7,459.0 777.7,444.0" class="L e"/><polygon points="803.7,443.0 829.7,428.0 829.7,444.0 803.7,459.0" class="R e"/><polygon points="803.7,443.0 829.7,428.0 829.7,444.0 803.7,459.0" fill="url(#hatch)"/><polygon points="803.7,413.0 829.7,428.0 803.7,443.0 777.7,428.0" class="t e"/><g transform="matrix(.866 .5 -.866 .5 803.7 428.0)"><text x="0" y="5.0" text-anchor="middle" class="m i" font-size="14.0" font-weight="700" fill-opacity="0.8">PR</text></g></g><g class="b"><polygon points="908.6,428.0 934.6,413.0 960.6,428.0 960.6,444.0 934.6,459.0 908.6,444.0" class="sh" transform="translate(4 4)"/><polygon points="908.6,428.0 934.6,443.0 934.6,459.0 908.6,444.0" class="L e"/><polygon points="934.6,443.0 960.6,428.0 960.6,444.0 934.6,459.0" class="R e"/><polygon points="934.6,443.0 960.6,428.0 960.6,444.0 934.6,459.0" fill="url(#hatch)"/><polygon points="934.6,413.0 960.6,428.0 934.6,443.0 908.6,428.0" class="t e"/><g transform="matrix(.866 .5 -.866 .5 934.6 428.0)"><text x="0" y="5.0" text-anchor="middle" class="m i" font-size="14.0" font-weight="700" fill-opacity="0.8">AI</text></g></g><g class="b"><polygon points="628.9,578.0 672.9,552.6 716.9,578.0 716.9,598.0 672.9,623.4 628.9,598.0" class="sh" transform="translate(4 4)"/><polygon class="pl" points="672.9,545.6 728.9,578.0 672.9,610.4 616.9,578.0"/><polygon points="628.9,578.0 672.9,603.4 672.9,623.4 628.9,598.0" class="L e"/><polygon points="672.9,603.4 716.9,578.0 716.9,598.0 672.9,623.4" class="R e"/><polygon points="672.9,603.4 716.9,578.0 716.9,598.0 672.9,623.4" fill="url(#hatch)"/><polygon points="672.9,552.6 716.9,578.0 672.9,603.4 628.9,578.0" class="t e"/><g transform="matrix(.866 .5 -.866 .5 657.9 569.0)"><text x="0" y="8.6" text-anchor="middle" class="u i" font-size="24" font-weight="700" fill-opacity="0.9">✓</text></g><g transform="matrix(.866 .5 -.866 .5 687.9 587.0)"><text x="0" y="7.6" text-anchor="middle" class="u r" font-size="21" font-weight="700" fill-opacity="0.95">✕</text></g></g><g class="b"><polygon points="123.4,718.0 149.4,703.0 175.4,718.0 175.4,734.0 149.4,749.0 123.4,734.0" class="sh" transform="translate(4 4)"/><polygon points="123.4,718.0 149.4,733.0 149.4,749.0 123.4,734.0" class="L e"/><polygon points="149.4,733.0 175.4,718.0 175.4,734.0 149.4,749.0" class="R e"/><polygon points="149.4,733.0 175.4,718.0 175.4,734.0 149.4,749.0" fill="url(#hatch)"/><polygon points="149.4,703.0 175.4,718.0 149.4,733.0 123.4,718.0" class="t e"/><g transform="matrix(.866 .5 -.866 .5 149.4 718.0)"><text x="0" y="5.0" text-anchor="middle" class="m i" font-size="14.0" font-weight="700" fill-opacity="0.8">PDF</text></g></g><g class="b"><polygon points="254.3,718.0 280.3,703.0 306.3,718.0 306.3,734.0 280.3,749.0 254.3,734.0" class="sh" transform="translate(4 4)"/><polygon points="254.3,718.0 280.3,733.0 280.3,749.0 254.3,734.0" class="L e"/><polygon points="280.3,733.0 306.3,718.0 306.3,734.0 280.3,749.0" class="R e"/><polygon points="280.3,733.0 306.3,718.0 306.3,734.0 280.3,749.0" fill="url(#hatch)"/><polygon points="280.3,703.0 306.3,718.0 280.3,733.0 254.3,718.0" class="t e"/><g transform="matrix(.866 .5 -.866 .5 280.3 718.0)"><text x="0" y="5.0" text-anchor="middle" class="m i" font-size="14.0" font-weight="700" fill-opacity="0.8">%</text></g></g><g class="b"><polygon points="385.1,718.0 411.1,703.0 437.1,718.0 437.1,734.0 411.1,749.0 385.1,734.0" class="sh" transform="translate(4 4)"/><polygon points="385.1,718.0 411.1,733.0 411.1,749.0 385.1,734.0" class="L e"/><polygon points="411.1,733.0 437.1,718.0 437.1,734.0 411.1,749.0" class="R e"/><polygon points="411.1,733.0 437.1,718.0 437.1,734.0 411.1,749.0" fill="url(#hatch)"/><polygon points="411.1,703.0 437.1,718.0 411.1,733.0 385.1,718.0" class="t e"/><g transform="matrix(.866 .5 -.866 .5 411.1 718.0)"><text x="0" y="5.0" text-anchor="middle" class="m i" font-size="14.0" font-weight="700" fill-opacity="0.8">REF</text></g></g><g class="b"><polygon points="516.0,718.0 542.0,703.0 568.0,718.0 568.0,734.0 542.0,749.0 516.0,734.0" class="sh" transform="translate(4 4)"/><polygon points="516.0,718.0 542.0,733.0 542.0,749.0 516.0,734.0" class="L e"/><polygon points="542.0,733.0 568.0,718.0 568.0,734.0 542.0,749.0" class="R e"/><polygon points="542.0,733.0 568.0,718.0 568.0,734.0 542.0,749.0" fill="url(#hatch)"/><polygon points="542.0,703.0 568.0,718.0 542.0,733.0 516.0,718.0" class="t e"/><g transform="matrix(.866 .5 -.866 .5 542.0 718.0)"><text x="0" y="5.0" text-anchor="middle" class="m i" font-size="14.0" font-weight="700" fill-opacity="0.8">LOG</text></g></g><g class="b"><polygon points="646.9,718.0 672.9,703.0 698.9,718.0 698.9,734.0 672.9,749.0 646.9,734.0" class="sh" transform="translate(4 4)"/><polygon points="646.9,718.0 672.9,733.0 672.9,749.0 646.9,734.0" class="L e"/><polygon points="672.9,733.0 698.9,718.0 698.9,734.0 672.9,749.0" class="R e"/><polygon points="672.9,733.0 698.9,718.0 698.9,734.0 672.9,749.0" fill="url(#hatch)"/><polygon points="672.9,703.0 698.9,718.0 672.9,733.0 646.9,718.0" class="t e"/><g transform="matrix(.866 .5 -.866 .5 672.9 718.0)"><text x="0" y="5.0" text-anchor="middle" class="m i" font-size="14.0" font-weight="700" fill-opacity="0.8">AI</text></g></g><g class="b"><polygon points="777.7,718.0 803.7,703.0 829.7,718.0 829.7,734.0 803.7,749.0 777.7,734.0" class="sh" transform="translate(4 4)"/><polygon points="777.7,718.0 803.7,733.0 803.7,749.0 777.7,734.0" class="L e"/><polygon points="803.7,733.0 829.7,718.0 829.7,734.0 803.7,749.0" class="R e"/><polygon points="803.7,733.0 829.7,718.0 829.7,734.0 803.7,749.0" fill="url(#hatch)"/><polygon points="803.7,703.0 829.7,718.0 803.7,733.0 777.7,718.0" class="t e"/><g transform="matrix(.866 .5 -.866 .5 803.7 718.0)"><text x="0" y="5.0" text-anchor="middle" class="m i" font-size="14.0" font-weight="700" fill-opacity="0.8">TXT</text></g></g><g class="b"><polygon points="908.6,718.0 934.6,703.0 960.6,718.0 960.6,734.0 934.6,749.0 908.6,734.0" class="sh" transform="translate(4 4)"/><polygon points="908.6,718.0 934.6,733.0 934.6,749.0 908.6,734.0" class="L e"/><polygon points="934.6,733.0 960.6,718.0 960.6,734.0 934.6,749.0" class="R e"/><polygon points="934.6,733.0 960.6,718.0 960.6,734.0 934.6,749.0" fill="url(#hatch)"/><polygon points="934.6,703.0 960.6,718.0 934.6,733.0 908.6,718.0" class="t e"/><g transform="matrix(.866 .5 -.866 .5 934.6 718.0)"><text x="0" y="5.0" text-anchor="middle" class="m i" font-size="14.0" font-weight="700" fill-opacity="0.8">Q&amp;A</text></g></g><g class="b"><polygon points="123.4,866.0 149.4,851.0 175.4,866.0 175.4,882.0 149.4,897.0 123.4,882.0" class="sh" transform="translate(4 4)"/><polygon points="123.4,866.0 149.4,881.0 149.4,897.0 123.4,882.0" class="L e"/><polygon points="149.4,881.0 175.4,866.0 175.4,882.0 149.4,897.0" class="R e"/><polygon points="149.4,881.0 175.4,866.0 175.4,882.0 149.4,897.0" fill="url(#hatch)"/><polygon points="149.4,851.0 175.4,866.0 149.4,881.0 123.4,866.0" class="t e"/><g transform="matrix(.866 .5 -.866 .5 149.4 866.0)"><text x="0" y="5.0" text-anchor="middle" class="m i" font-size="14.0" font-weight="700" fill-opacity="0.8">API</text></g></g><g class="b"><polygon points="254.3,866.0 280.3,851.0 306.3,866.0 306.3,882.0 280.3,897.0 254.3,882.0" class="sh" transform="translate(4 4)"/><polygon points="254.3,866.0 280.3,881.0 280.3,897.0 254.3,882.0" class="L e"/><polygon points="280.3,881.0 306.3,866.0 306.3,882.0 280.3,897.0" class="R e"/><polygon points="280.3,881.0 306.3,866.0 306.3,882.0 280.3,897.0" fill="url(#hatch)"/><polygon points="280.3,851.0 306.3,866.0 280.3,881.0 254.3,866.0" class="t e"/><g transform="matrix(.866 .5 -.866 .5 280.3 866.0)"><text x="0" y="5.0" text-anchor="middle" class="m i" font-size="14.0" font-weight="700" fill-opacity="0.8">LG</text></g></g><g class="b"><polygon points="385.1,866.0 411.1,851.0 437.1,866.0 437.1,882.0 411.1,897.0 385.1,882.0" class="sh" transform="translate(4 4)"/><polygon points="385.1,866.0 411.1,881.0 411.1,897.0 385.1,882.0" class="L e"/><polygon points="411.1,881.0 437.1,866.0 437.1,882.0 411.1,897.0" class="R e"/><polygon points="411.1,881.0 437.1,866.0 437.1,882.0 411.1,897.0" fill="url(#hatch)"/><polygon points="411.1,851.0 437.1,866.0 411.1,881.0 385.1,866.0" class="t e"/><g transform="matrix(.866 .5 -.866 .5 411.1 866.0)"><text x="0" y="5.0" text-anchor="middle" class="m i" font-size="14.0" font-weight="700" fill-opacity="0.8">LLM</text></g></g><g class="b"><polygon points="516.0,866.0 542.0,851.0 568.0,866.0 568.0,882.0 542.0,897.0 516.0,882.0" class="sh" transform="translate(4 4)"/><polygon points="516.0,866.0 542.0,881.0 542.0,897.0 516.0,882.0" class="L e"/><polygon points="542.0,881.0 568.0,866.0 568.0,882.0 542.0,897.0" class="R e"/><polygon points="542.0,881.0 568.0,866.0 568.0,882.0 542.0,897.0" fill="url(#hatch)"/><polygon points="542.0,851.0 568.0,866.0 542.0,881.0 516.0,866.0" class="t e"/><g transform="matrix(.866 .5 -.866 .5 542.0 866.0)"><text x="0" y="5.0" text-anchor="middle" class="m i" font-size="14.0" font-weight="700" fill-opacity="0.8">PG</text></g></g><g class="b"><polygon points="646.9,866.0 672.9,851.0 698.9,866.0 698.9,882.0 672.9,897.0 646.9,882.0" class="sh" transform="translate(4 4)"/><polygon points="646.9,866.0 672.9,881.0 672.9,897.0 646.9,882.0" class="L e"/><polygon points="672.9,881.0 698.9,866.0 698.9,882.0 672.9,897.0" class="R e"/><polygon points="672.9,881.0 698.9,866.0 698.9,882.0 672.9,897.0" fill="url(#hatch)"/><polygon points="672.9,851.0 698.9,866.0 672.9,881.0 646.9,866.0" class="t e"/><g transform="matrix(.866 .5 -.866 .5 672.9 866.0)"><text x="0" y="5.0" text-anchor="middle" class="m i" font-size="14.0" font-weight="700" fill-opacity="0.8">TEX</text></g></g><g class="b"><polygon points="777.7,866.0 803.7,851.0 829.7,866.0 829.7,882.0 803.7,897.0 777.7,882.0" class="sh" transform="translate(4 4)"/><polygon points="777.7,866.0 803.7,881.0 803.7,897.0 777.7,882.0" class="L e"/><polygon points="803.7,881.0 829.7,866.0 829.7,882.0 803.7,897.0" class="R e"/><polygon points="803.7,881.0 829.7,866.0 829.7,882.0 803.7,897.0" fill="url(#hatch)"/><polygon points="803.7,851.0 829.7,866.0 803.7,881.0 777.7,866.0" class="t e"/><g transform="matrix(.866 .5 -.866 .5 803.7 866.0)"><text x="0" y="5.0" text-anchor="middle" class="m i" font-size="14.0" font-weight="700" fill-opacity="0.8">S2</text></g></g><g class="b"><polygon points="908.6,866.0 934.6,851.0 960.6,866.0 960.6,882.0 934.6,897.0 908.6,882.0" class="sh" transform="translate(4 4)"/><polygon points="908.6,866.0 934.6,881.0 934.6,897.0 908.6,882.0" class="L e"/><polygon points="934.6,881.0 960.6,866.0 960.6,882.0 934.6,897.0" class="R e"/><polygon points="934.6,881.0 960.6,866.0 960.6,882.0 934.6,897.0" fill="url(#hatch)"/><polygon points="934.6,851.0 960.6,866.0 934.6,881.0 908.6,866.0" class="t e"/><g transform="matrix(.866 .5 -.866 .5 934.6 866.0)"><text x="0" y="5.0" text-anchor="middle" class="m i" font-size="14.0" font-weight="700" fill-opacity="0.8">ADM</text></g></g><g class="pk" opacity="0"><path d="M0,-5.5 L5.5,0 L0,5.5 L-5.5,0z" class="r"/><animateMotion dur="12s" begin="0.0s" repeatCount="indefinite" path="M 542.0 260 V 240 H 411.1 V 436 H 672.9 V 578 V 676 H 149.4 V 718"/><animate attributeName="opacity" values="0;1;1;0" keyTimes="0;0.06;0.92;1" dur="12s" begin="0.0s" repeatCount="indefinite"/></g><g class="pk" opacity="0"><path d="M0,-5.5 L5.5,0 L0,5.5 L-5.5,0z" class="r"/><animateMotion dur="7s" begin="3s" repeatCount="indefinite" path="M 542.0 260 V 240 H 803.7 V 588.0 H 672.9"/><animate attributeName="opacity" values="0;1;1;0" keyTimes="0;0.06;0.92;1" dur="7s" begin="3s" repeatCount="indefinite"/></g><g class="pk" opacity="0"><path d="M0,-5.5 L5.5,0 L0,5.5 L-5.5,0z" class="r"/><animateMotion dur="6s" begin="1.5s" repeatCount="indefinite" path="M 542.0 260 V 240 H 934.6 V 718"/><animate attributeName="opacity" values="0;1;1;0" keyTimes="0;0.06;0.92;1" dur="6s" begin="1.5s" repeatCount="indefinite"/></g><g class="pk"><path d="M0,-5.5 L5.5,0 L0,5.5 L-5.5,0z" class="r"/><animateMotion dur="10s" begin="0.0s" repeatCount="indefinite" path="M 149.4 874 H 934.6" keyPoints="0;1;0" keyTimes="0;0.5;1" calcMode="linear"/></g><text x="149.4" y="337.0" class="s i" font-size="16" text-anchor="middle" font-weight="700">LaTeX Upload</text><text x="149.4" y="356.0" class="u q" font-size="14" text-anchor="middle">ZIP · templates</text><text x="280.3" y="337.0" class="s i" font-size="16" text-anchor="middle" font-weight="700">DOCX / PDF</text><text x="280.3" y="356.0" class="u q" font-size="14" text-anchor="middle">import → LaTeX</text><text x="411.1" y="337.0" class="s i" font-size="16" text-anchor="middle" font-weight="700">Chat Intent</text><text x="411.1" y="356.0" class="u q" font-size="14" text-anchor="middle">Style · Edit · …</text><text x="542.0" y="337.0" class="s i" font-size="16" text-anchor="middle" font-weight="700">Researcher</text><text x="542.0" y="356.0" class="u q" font-size="14" text-anchor="middle">tác giả bài báo</text><text x="803.7" y="337.0" class="s i" font-size="16" text-anchor="middle" font-weight="700">Peer Reviews</text><text x="803.7" y="356.0" class="u q" font-size="14" text-anchor="middle">reviewer comments</text><text x="934.6" y="337.0" class="s i" font-size="16" text-anchor="middle" font-weight="700">Defense Mode</text><text x="934.6" y="356.0" class="u q" font-size="14" text-anchor="middle">mock viva</text><text x="149.4" y="485.0" class="s i" font-size="16" text-anchor="middle" font-weight="700">LaTeX Parser</text><text x="149.4" y="504.0" class="u q" font-size="14" text-anchor="middle">sections · cites</text><text x="280.3" y="485.0" class="s i" font-size="16" text-anchor="middle" font-weight="700">Paper Store</text><text x="280.3" y="504.0" class="u q" font-size="14" text-anchor="middle">Postgres + cache</text><text x="411.1" y="485.0" class="s i" font-size="16" text-anchor="middle" font-weight="700">Intent Router</text><text x="411.1" y="504.0" class="u q" font-size="14" text-anchor="middle">rules → LLM</text><text x="542.0" y="485.0" class="s i" font-size="16" text-anchor="middle" font-weight="700">Ario Agents</text><text x="542.0" y="504.0" class="u q" font-size="14" text-anchor="middle">6 agents · L1</text><text x="672.9" y="485.0" class="s i" font-size="16" text-anchor="middle" font-weight="700">Integrity</text><text x="672.9" y="504.0" class="u q" font-size="14" text-anchor="middle">monitor · retry</text><text x="803.7" y="485.0" class="s i" font-size="16" text-anchor="middle" font-weight="700">Peer Review</text><text x="803.7" y="504.0" class="u q" font-size="14" text-anchor="middle">split → draft</text><text x="934.6" y="485.0" class="s i" font-size="16" text-anchor="middle" font-weight="700">AI Council</text><text x="934.6" y="504.0" class="u q" font-size="14" text-anchor="middle">defense panel</text><text x="610.9" y="584.0" class="s i" font-size="17" text-anchor="end" font-weight="700">Diff View · Accept / Reject</text><text x="610.9" y="603.0" class="u q" font-size="14" text-anchor="end">tác giả duyệt từng thay đổi — AI không tự áp dụng</text><text x="149.4" y="775.0" class="s i" font-size="16" text-anchor="middle" font-weight="700">Revised Draft</text><text x="149.4" y="794.0" class="u q" font-size="14" text-anchor="middle">PDF + SyncTeX</text><text x="280.3" y="775.0" class="s i" font-size="16" text-anchor="middle" font-weight="700">Paper Score</text><text x="280.3" y="794.0" class="u q" font-size="14" text-anchor="middle">export gate</text><text x="411.1" y="775.0" class="s i" font-size="16" text-anchor="middle" font-weight="700">Citations</text><text x="411.1" y="794.0" class="u q" font-size="14" text-anchor="middle">verify L1–L4</text><text x="542.0" y="775.0" class="s i" font-size="16" text-anchor="middle" font-weight="700">Logic Audit</text><text x="542.0" y="794.0" class="u q" font-size="14" text-anchor="middle">comment-only</text><text x="672.9" y="775.0" class="s i" font-size="16" text-anchor="middle" font-weight="700">AI Disclosure</text><text x="672.9" y="794.0" class="u q" font-size="14" text-anchor="middle">EN/VI · LaTeX</text><text x="803.7" y="775.0" class="s i" font-size="16" text-anchor="middle" font-weight="700">Reply Letter</text><text x="803.7" y="794.0" class="u q" font-size="14" text-anchor="middle">per-item drafts</text><text x="934.6" y="775.0" class="s i" font-size="16" text-anchor="middle" font-weight="700">Transcript</text><text x="934.6" y="794.0" class="u q" font-size="14" text-anchor="middle">defense Q&amp;A</text><text x="149.4" y="923.0" class="s i" font-size="16" text-anchor="middle" font-weight="700">FastAPI</text><text x="149.4" y="942.0" class="u q" font-size="14" text-anchor="middle">REST · SSE · WS</text><text x="280.3" y="923.0" class="s i" font-size="16" text-anchor="middle" font-weight="700">LangGraph</text><text x="280.3" y="942.0" class="u q" font-size="14" text-anchor="middle">chat_stream</text><text x="411.1" y="923.0" class="s i" font-size="16" text-anchor="middle" font-weight="700">LLM Providers</text><text x="411.1" y="942.0" class="u q" font-size="14" text-anchor="middle">5 · key failover</text><text x="542.0" y="923.0" class="s i" font-size="16" text-anchor="middle" font-weight="700">PostgreSQL</text><text x="542.0" y="942.0" class="u q" font-size="14" text-anchor="middle">Prisma schema</text><text x="672.9" y="923.0" class="s i" font-size="16" text-anchor="middle" font-weight="700">TeX Live</text><text x="672.9" y="942.0" class="u q" font-size="14" text-anchor="middle">sandboxed</text><text x="803.7" y="923.0" class="s i" font-size="16" text-anchor="middle" font-weight="700">Citation APIs</text><text x="803.7" y="942.0" class="u q" font-size="14" text-anchor="middle">arXiv · CrossRef</text><text x="803.7" y="960.0" class="u q" font-size="14" text-anchor="middle">S2 · OpenAlex</text><text x="934.6" y="923.0" class="s i" font-size="16" text-anchor="middle" font-weight="700">Admin &amp; Plans</text><text x="934.6" y="942.0" class="u q" font-size="14" text-anchor="middle">keys · quotas</text></svg>
