<svg xmlns="http://www.w3.org/2000/svg" viewBox="0 0 1280 780" width="1280" height="780" role="img" aria-label="Guardrail Architecture"><defs><linearGradient id="bg" x1="0" y1="0" x2="1" y2="1"><stop offset="0" stop-color="#0B1222"/><stop offset="1" stop-color="#151E3A"/></linearGradient><linearGradient id="headfade" x1="0" y1="0" x2="0" y2="1"><stop offset="0" stop-color="#0B1222" stop-opacity="0.95"/><stop offset="0.55" stop-color="#0D1428" stop-opacity="0.6"/><stop offset="1" stop-color="#0F1730" stop-opacity="0"/></linearGradient><clipPath id="card"><rect width="1280" height="780" rx="28"/></clipPath><filter id="soft" x="-50%" y="-50%" width="200%" height="200%"><feGaussianBlur stdDeviation="7"/></filter><filter id="dotglow" x="-200%" y="-200%" width="500%" height="500%"><feGaussianBlur stdDeviation="2.6" result="b"/><feMerge><feMergeNode in="b"/><feMergeNode in="SourceGraphic"/></feMerge></filter><marker id="arrow" viewBox="0 0 10 10" refX="8" refY="5" markerWidth="6.5" markerHeight="6.5" orient="auto-start-reverse"><path d="M0,0 L10,5 L0,10 z" fill="#64748B"/></marker><radialGradient id="glow0" cx="0.6" cy="0.45" r="0.6"><stop offset="0" stop-color="#DC2626" stop-opacity="0.12"/><stop offset="1" stop-color="#DC2626" stop-opacity="0"/></radialGradient><radialGradient id="glow1" cx="0.25" cy="0.3" r="0.5"><stop offset="0" stop-color="#7C3AED" stop-opacity="0.14"/><stop offset="1" stop-color="#7C3AED" stop-opacity="0"/></radialGradient><linearGradient id="g0" x1="0" y1="0" x2="1" y2="1"><stop offset="0" stop-color="#c5b3fb"/><stop offset="1" stop-color="#A78BFA"/></linearGradient><linearGradient id="g1" x1="0" y1="0" x2="1" y2="1"><stop offset="0" stop-color="#faa2a2"/><stop offset="1" stop-color="#F87171"/></linearGradient><linearGradient id="g2" x1="0" y1="0" x2="1" y2="1"><stop offset="0" stop-color="#76e3d5"/><stop offset="1" stop-color="#2DD4BF"/></linearGradient><linearGradient id="g3" x1="0" y1="0" x2="1" y2="1"><stop offset="0" stop-color="#fcd570"/><stop offset="1" stop-color="#FBBF24"/></linearGradient></defs><style>.flow{stroke-dasharray:6 8;animation:dash 1.1s linear infinite}@keyframes dash{to{stroke-dashoffset:-28}}.float{animation:float 5s ease-in-out infinite}@keyframes float{0%,100%{transform:translateY(0)}50%{transform:translateY(-4px)}}.pulse{transform-box:fill-box;transform-origin:center;animation:pulse 2.6s ease-out infinite}@keyframes pulse{0%{opacity:.85;transform:scale(1)}100%{opacity:0;transform:scale(1.45)}}@media (prefers-reduced-motion:reduce){.flow,.float,.pulse{animation:none}}</style><g clip-path="url(#card)"><rect width="1280" height="780" fill="url(#bg)"/><line x1="-1426" y1="0" x2="-75.0" y2="780" stroke="#1E293B" stroke-width="1" opacity="0.5"/><line x1="-1426" y1="0" x2="-2777.0" y2="780" stroke="#1E293B" stroke-width="1" opacity="0.5"/><line x1="-1380" y1="0" x2="-29.0" y2="780" stroke="#1E293B" stroke-width="1" opacity="0.5"/><line x1="-1380" y1="0" x2="-2731.0" y2="780" stroke="#1E293B" stroke-width="1" opacity="0.5"/><line x1="-1334" y1="0" x2="17.0" y2="780" stroke="#1E293B" stroke-width="1" opacity="0.5"/><line x1="-1334" y1="0" x2="-2685.0" y2="780" stroke="#1E293B" stroke-width="1" opacity="0.5"/><line x1="-1288" y1="0" x2="63.0" y2="780" stroke="#1E293B" stroke-width="1" opacity="0.5"/><line x1="-1288" y1="0" x2="-2639.0" y2="780" stroke="#1E293B" stroke-width="1" opacity="0.5"/><line x1="-1242" y1="0" x2="109.0" y2="780" stroke="#1E293B" stroke-width="1" opacity="0.5"/><line x1="-1242" y1="0" x2="-2593.0" y2="780" stroke="#1E293B" stroke-width="1" opacity="0.5"/><line x1="-1196" y1="0" x2="155.0" y2="780" stroke="#1E293B" stroke-width="1" opacity="0.5"/><line x1="-1196" y1="0" x2="-2547.0" y2="780" stroke="#1E293B" stroke-width="1" opacity="0.5"/><line x1="-1150" y1="0" x2="201.0" y2="780" stroke="#1E293B" stroke-width="1" opacity="0.5"/><line x1="-1150" y1="0" x2="-2501.0" y2="780" stroke="#1E293B" stroke-width="1" opacity="0.5"/><line x1="-1104" y1="0" x2="247.0" y2="780" stroke="#1E293B" stroke-width="1" opacity="0.5"/><line x1="-1104" y1="0" x2="-2455.0" y2="780" stroke="#1E293B" stroke-width="1" opacity="0.5"/><line x1="-1058" y1="0" x2="293.0" y2="780" stroke="#1E293B" stroke-width="1" opacity="0.5"/><line x1="-1058" y1="0" x2="-2409.0" y2="780" stroke="#1E293B" stroke-width="1" opacity="0.5"/><line x1="-1012" y1="0" x2="339.0" y2="780" stroke="#1E293B" stroke-width="1" opacity="0.5"/><line x1="-1012" y1="0" x2="-2363.0" y2="780" stroke="#1E293B" stroke-width="1" opacity="0.5"/><line x1="-966" y1="0" x2="385.0" y2="780" stroke="#1E293B" stroke-width="1" opacity="0.5"/><line x1="-966" y1="0" x2="-2317.0" y2="780" stroke="#1E293B" stroke-width="1" opacity="0.5"/><line x1="-920" y1="0" x2="431.0" y2="780" stroke="#1E293B" stroke-width="1" opacity="0.5"/><line x1="-920" y1="0" x2="-2271.0" y2="780" stroke="#1E293B" stroke-width="1" opacity="0.5"/><line x1="-874" y1="0" x2="477.0" y2="780" stroke="#1E293B" stroke-width="1" opacity="0.5"/><line x1="-874" y1="0" x2="-2225.0" y2="780" stroke="#1E293B" stroke-width="1" opacity="0.5"/><line x1="-828" y1="0" x2="523.0" y2="780" stroke="#1E293B" stroke-width="1" opacity="0.5"/><line x1="-828" y1="0" x2="-2179.0" y2="780" stroke="#1E293B" stroke-width="1" opacity="0.5"/><line x1="-782" y1="0" x2="569.0" y2="780" stroke="#1E293B" stroke-width="1" opacity="0.5"/><line x1="-782" y1="0" x2="-2133.0" y2="780" stroke="#1E293B" stroke-width="1" opacity="0.5"/><line x1="-736" y1="0" x2="615.0" y2="780" stroke="#1E293B" stroke-width="1" opacity="0.5"/><line x1="-736" y1="0" x2="-2087.0" y2="780" stroke="#1E293B" stroke-width="1" opacity="0.5"/><line x1="-690" y1="0" x2="661.0" y2="780" stroke="#1E293B" stroke-width="1" opacity="0.5"/><line x1="-690" y1="0" x2="-2041.0" y2="780" stroke="#1E293B" stroke-width="1" opacity="0.5"/><line x1="-644" y1="0" x2="707.0" y2="780" stroke="#1E293B" stroke-width="1" opacity="0.5"/><line x1="-644" y1="0" x2="-1995.0" y2="780" stroke="#1E293B" stroke-width="1" opacity="0.5"/><line x1="-598" y1="0" x2="753.0" y2="780" stroke="#1E293B" stroke-width="1" opacity="0.5"/><line x1="-598" y1="0" x2="-1949.0" y2="780" stroke="#1E293B" stroke-width="1" opacity="0.5"/><line x1="-552" y1="0" x2="799.0" y2="780" stroke="#1E293B" stroke-width="1" opacity="0.5"/><line x1="-552" y1="0" x2="-1903.0" y2="780" stroke="#1E293B" stroke-width="1" opacity="0.5"/><line x1="-506" y1="0" x2="845.0" y2="780" stroke="#1E293B" stroke-width="1" opacity="0.5"/><line x1="-506" y1="0" x2="-1857.0" y2="780" stroke="#1E293B" stroke-width="1" opacity="0.5"/><line x1="-460" y1="0" x2="891.0" y2="780" stroke="#1E293B" stroke-width="1" opacity="0.5"/><line x1="-460" y1="0" x2="-1811.0" y2="780" stroke="#1E293B" stroke-width="1" opacity="0.5"/><line x1="-414" y1="0" x2="937.0" y2="780" stroke="#1E293B" stroke-width="1" opacity="0.5"/><line x1="-414" y1="0" x2="-1765.0" y2="780" stroke="#1E293B" stroke-width="1" opacity="0.5"/><line x1="-368" y1="0" x2="983.0" y2="780" stroke="#1E293B" stroke-width="1" opacity="0.5"/><line x1="-368" y1="0" x2="-1719.0" y2="780" stroke="#1E293B" stroke-width="1" opacity="0.5"/><line x1="-322" y1="0" x2="1029.0" y2="780" stroke="#1E293B" stroke-width="1" opacity="0.5"/><line x1="-322" y1="0" x2="-1673.0" y2="780" stroke="#1E293B" stroke-width="1" opacity="0.5"/><line x1="-276" y1="0" x2="1075.0" y2="780" stroke="#1E293B" stroke-width="1" opacity="0.5"/><line x1="-276" y1="0" x2="-1627.0" y2="780" stroke="#1E293B" stroke-width="1" opacity="0.5"/><line x1="-230" y1="0" x2="1121.0" y2="780" stroke="#1E293B" stroke-width="1" opacity="0.5"/><line x1="-230" y1="0" x2="-1581.0" y2="780" stroke="#1E293B" stroke-width="1" opacity="0.5"/><line x1="-184" y1="0" x2="1167.0" y2="780" stroke="#1E293B" stroke-width="1" opacity="0.5"/><line x1="-184" y1="0" x2="-1535.0" y2="780" stroke="#1E293B" stroke-width="1" opacity="0.5"/><line x1="-138" y1="0" x2="1213.0" y2="780" stroke="#1E293B" stroke-width="1" opacity="0.5"/><line x1="-138" y1="0" x2="-1489.0" y2="780" stroke="#1E293B" stroke-width="1" opacity="0.5"/><line x1="-92" y1="0" x2="1259.0" y2="780" stroke="#1E293B" stroke-width="1" opacity="0.5"/><line x1="-92" y1="0" x2="-1443.0" y2="780" stroke="#1E293B" stroke-width="1" opacity="0.5"/><line x1="-46" y1="0" x2="1305.0" y2="780" stroke="#1E293B" stroke-width="1" opacity="0.5"/><line x1="-46" y1="0" x2="-1397.0" y2="780" stroke="#1E293B" stroke-width="1" opacity="0.5"/><line x1="0" y1="0" x2="1351.0" y2="780" stroke="#1E293B" stroke-width="1" opacity="0.5"/><line x1="0" y1="0" x2="-1351.0" y2="780" stroke="#1E293B" stroke-width="1" opacity="0.5"/><line x1="46" y1="0" x2="1397.0" y2="780" stroke="#1E293B" stroke-width="1" opacity="0.5"/><line x1="46" y1="0" x2="-1305.0" y2="780" stroke="#1E293B" stroke-width="1" opacity="0.5"/><line x1="92" y1="0" x2="1443.0" y2="780" stroke="#1E293B" stroke-width="1" opacity="0.5"/><line x1="92" y1="0" x2="-1259.0" y2="780" stroke="#1E293B" stroke-width="1" opacity="0.5"/><line x1="138" y1="0" x2="1489.0" y2="780" stroke="#1E293B" stroke-width="1" opacity="0.5"/><line x1="138" y1="0" x2="-1213.0" y2="780" stroke="#1E293B" stroke-width="1" opacity="0.5"/><line x1="184" y1="0" x2="1535.0" y2="780" stroke="#1E293B" stroke-width="1" opacity="0.5"/><line x1="184" y1="0" x2="-1167.0" y2="780" stroke="#1E293B" stroke-width="1" opacity="0.5"/><line x1="230" y1="0" x2="1581.0" y2="780" stroke="#1E293B" stroke-width="1" opacity="0.5"/><line x1="230" y1="0" x2="-1121.0" y2="780" stroke="#1E293B" stroke-width="1" opacity="0.5"/><line x1="276" y1="0" x2="1627.0" y2="780" stroke="#1E293B" stroke-width="1" opacity="0.5"/><line x1="276" y1="0" x2="-1075.0" y2="780" stroke="#1E293B" stroke-width="1" opacity="0.5"/><line x1="322" y1="0" x2="1673.0" y2="780" stroke="#1E293B" stroke-width="1" opacity="0.5"/><line x1="322" y1="0" x2="-1029.0" y2="780" stroke="#1E293B" stroke-width="1" opacity="0.5"/><line x1="368" y1="0" x2="1719.0" y2="780" stroke="#1E293B" stroke-width="1" opacity="0.5"/><line x1="368" y1="0" x2="-983.0" y2="780" stroke="#1E293B" stroke-width="1" opacity="0.5"/><line x1="414" y1="0" x2="1765.0" y2="780" stroke="#1E293B" stroke-width="1" opacity="0.5"/><line x1="414" y1="0" x2="-937.0" y2="780" stroke="#1E293B" stroke-width="1" opacity="0.5"/><line x1="460" y1="0" x2="1811.0" y2="780" stroke="#1E293B" stroke-width="1" opacity="0.5"/><line x1="460" y1="0" x2="-891.0" y2="780" stroke="#1E293B" stroke-width="1" opacity="0.5"/><line x1="506" y1="0" x2="1857.0" y2="780" stroke="#1E293B" stroke-width="1" opacity="0.5"/><line x1="506" y1="0" x2="-845.0" y2="780" stroke="#1E293B" stroke-width="1" opacity="0.5"/><line x1="552" y1="0" x2="1903.0" y2="780" stroke="#1E293B" stroke-width="1" opacity="0.5"/><line x1="552" y1="0" x2="-799.0" y2="780" stroke="#1E293B" stroke-width="1" opacity="0.5"/><line x1="598" y1="0" x2="1949.0" y2="780" stroke="#1E293B" stroke-width="1" opacity="0.5"/><line x1="598" y1="0" x2="-753.0" y2="780" stroke="#1E293B" stroke-width="1" opacity="0.5"/><line x1="644" y1="0" x2="1995.0" y2="780" stroke="#1E293B" stroke-width="1" opacity="0.5"/><line x1="644" y1="0" x2="-707.0" y2="780" stroke="#1E293B" stroke-width="1" opacity="0.5"/><line x1="690" y1="0" x2="2041.0" y2="780" stroke="#1E293B" stroke-width="1" opacity="0.5"/><line x1="690" y1="0" x2="-661.0" y2="780" stroke="#1E293B" stroke-width="1" opacity="0.5"/><line x1="736" y1="0" x2="2087.0" y2="780" stroke="#1E293B" stroke-width="1" opacity="0.5"/><line x1="736" y1="0" x2="-615.0" y2="780" stroke="#1E293B" stroke-width="1" opacity="0.5"/><line x1="782" y1="0" x2="2133.0" y2="780" stroke="#1E293B" stroke-width="1" opacity="0.5"/><line x1="782" y1="0" x2="-569.0" y2="780" stroke="#1E293B" stroke-width="1" opacity="0.5"/><line x1="828" y1="0" x2="2179.0" y2="780" stroke="#1E293B" stroke-width="1" opacity="0.5"/><line x1="828" y1="0" x2="-523.0" y2="780" stroke="#1E293B" stroke-width="1" opacity="0.5"/><line x1="874" y1="0" x2="2225.0" y2="780" stroke="#1E293B" stroke-width="1" opacity="0.5"/><line x1="874" y1="0" x2="-477.0" y2="780" stroke="#1E293B" stroke-width="1" opacity="0.5"/><line x1="920" y1="0" x2="2271.0" y2="780" stroke="#1E293B" stroke-width="1" opacity="0.5"/><line x1="920" y1="0" x2="-431.0" y2="780" stroke="#1E293B" stroke-width="1" opacity="0.5"/><line x1="966" y1="0" x2="2317.0" y2="780" stroke="#1E293B" stroke-width="1" opacity="0.5"/><line x1="966" y1="0" x2="-385.0" y2="780" stroke="#1E293B" stroke-width="1" opacity="0.5"/><line x1="1012" y1="0" x2="2363.0" y2="780" stroke="#1E293B" stroke-width="1" opacity="0.5"/><line x1="1012" y1="0" x2="-339.0" y2="780" stroke="#1E293B" stroke-width="1" opacity="0.5"/><line x1="1058" y1="0" x2="2409.0" y2="780" stroke="#1E293B" stroke-width="1" opacity="0.5"/><line x1="1058" y1="0" x2="-293.0" y2="780" stroke="#1E293B" stroke-width="1" opacity="0.5"/><line x1="1104" y1="0" x2="2455.0" y2="780" stroke="#1E293B" stroke-width="1" opacity="0.5"/><line x1="1104" y1="0" x2="-247.0" y2="780" stroke="#1E293B" stroke-width="1" opacity="0.5"/><line x1="1150" y1="0" x2="2501.0" y2="780" stroke="#1E293B" stroke-width="1" opacity="0.5"/><line x1="1150" y1="0" x2="-201.0" y2="780" stroke="#1E293B" stroke-width="1" opacity="0.5"/><line x1="1196" y1="0" x2="2547.0" y2="780" stroke="#1E293B" stroke-width="1" opacity="0.5"/><line x1="1196" y1="0" x2="-155.0" y2="780" stroke="#1E293B" stroke-width="1" opacity="0.5"/><line x1="1242" y1="0" x2="2593.0" y2="780" stroke="#1E293B" stroke-width="1" opacity="0.5"/><line x1="1242" y1="0" x2="-109.0" y2="780" stroke="#1E293B" stroke-width="1" opacity="0.5"/><line x1="1288" y1="0" x2="2639.0" y2="780" stroke="#1E293B" stroke-width="1" opacity="0.5"/><line x1="1288" y1="0" x2="-63.0" y2="780" stroke="#1E293B" stroke-width="1" opacity="0.5"/><line x1="1334" y1="0" x2="2685.0" y2="780" stroke="#1E293B" stroke-width="1" opacity="0.5"/><line x1="1334" y1="0" x2="-17.0" y2="780" stroke="#1E293B" stroke-width="1" opacity="0.5"/><line x1="1380" y1="0" x2="2731.0" y2="780" stroke="#1E293B" stroke-width="1" opacity="0.5"/><line x1="1380" y1="0" x2="29.0" y2="780" stroke="#1E293B" stroke-width="1" opacity="0.5"/><line x1="1426" y1="0" x2="2777.0" y2="780" stroke="#1E293B" stroke-width="1" opacity="0.5"/><line x1="1426" y1="0" x2="75.0" y2="780" stroke="#1E293B" stroke-width="1" opacity="0.5"/><line x1="1472" y1="0" x2="2823.0" y2="780" stroke="#1E293B" stroke-width="1" opacity="0.5"/><line x1="1472" y1="0" x2="121.0" y2="780" stroke="#1E293B" stroke-width="1" opacity="0.5"/><line x1="1518" y1="0" x2="2869.0" y2="780" stroke="#1E293B" stroke-width="1" opacity="0.5"/><line x1="1518" y1="0" x2="167.0" y2="780" stroke="#1E293B" stroke-width="1" opacity="0.5"/><line x1="1564" y1="0" x2="2915.0" y2="780" stroke="#1E293B" stroke-width="1" opacity="0.5"/><line x1="1564" y1="0" x2="213.0" y2="780" stroke="#1E293B" stroke-width="1" opacity="0.5"/><line x1="1610" y1="0" x2="2961.0" y2="780" stroke="#1E293B" stroke-width="1" opacity="0.5"/><line x1="1610" y1="0" x2="259.0" y2="780" stroke="#1E293B" stroke-width="1" opacity="0.5"/><line x1="1656" y1="0" x2="3007.0" y2="780" stroke="#1E293B" stroke-width="1" opacity="0.5"/><line x1="1656" y1="0" x2="305.0" y2="780" stroke="#1E293B" stroke-width="1" opacity="0.5"/><line x1="1702" y1="0" x2="3053.0" y2="780" stroke="#1E293B" stroke-width="1" opacity="0.5"/><line x1="1702" y1="0" x2="351.0" y2="780" stroke="#1E293B" stroke-width="1" opacity="0.5"/><line x1="1748" y1="0" x2="3099.0" y2="780" stroke="#1E293B" stroke-width="1" opacity="0.5"/><line x1="1748" y1="0" x2="397.0" y2="780" stroke="#1E293B" stroke-width="1" opacity="0.5"/><line x1="1794" y1="0" x2="3145.0" y2="780" stroke="#1E293B" stroke-width="1" opacity="0.5"/><line x1="1794" y1="0" x2="443.0" y2="780" stroke="#1E293B" stroke-width="1" opacity="0.5"/><line x1="1840" y1="0" x2="3191.0" y2="780" stroke="#1E293B" stroke-width="1" opacity="0.5"/><line x1="1840" y1="0" x2="489.0" y2="780" stroke="#1E293B" stroke-width="1" opacity="0.5"/><line x1="1886" y1="0" x2="3237.0" y2="780" stroke="#1E293B" stroke-width="1" opacity="0.5"/><line x1="1886" y1="0" x2="535.0" y2="780" stroke="#1E293B" stroke-width="1" opacity="0.5"/><line x1="1932" y1="0" x2="3283.0" y2="780" stroke="#1E293B" stroke-width="1" opacity="0.5"/><line x1="1932" y1="0" x2="581.0" y2="780" stroke="#1E293B" stroke-width="1" opacity="0.5"/><line x1="1978" y1="0" x2="3329.0" y2="780" stroke="#1E293B" stroke-width="1" opacity="0.5"/><line x1="1978" y1="0" x2="627.0" y2="780" stroke="#1E293B" stroke-width="1" opacity="0.5"/><line x1="2024" y1="0" x2="3375.0" y2="780" stroke="#1E293B" stroke-width="1" opacity="0.5"/><line x1="2024" y1="0" x2="673.0" y2="780" stroke="#1E293B" stroke-width="1" opacity="0.5"/><line x1="2070" y1="0" x2="3421.0" y2="780" stroke="#1E293B" stroke-width="1" opacity="0.5"/><line x1="2070" y1="0" x2="719.0" y2="780" stroke="#1E293B" stroke-width="1" opacity="0.5"/><line x1="2116" y1="0" x2="3467.0" y2="780" stroke="#1E293B" stroke-width="1" opacity="0.5"/><line x1="2116" y1="0" x2="765.0" y2="780" stroke="#1E293B" stroke-width="1" opacity="0.5"/><line x1="2162" y1="0" x2="3513.0" y2="780" stroke="#1E293B" stroke-width="1" opacity="0.5"/><line x1="2162" y1="0" x2="811.0" y2="780" stroke="#1E293B" stroke-width="1" opacity="0.5"/><line x1="2208" y1="0" x2="3559.0" y2="780" stroke="#1E293B" stroke-width="1" opacity="0.5"/><line x1="2208" y1="0" x2="857.0" y2="780" stroke="#1E293B" stroke-width="1" opacity="0.5"/><line x1="2254" y1="0" x2="3605.0" y2="780" stroke="#1E293B" stroke-width="1" opacity="0.5"/><line x1="2254" y1="0" x2="903.0" y2="780" stroke="#1E293B" stroke-width="1" opacity="0.5"/><line x1="2300" y1="0" x2="3651.0" y2="780" stroke="#1E293B" stroke-width="1" opacity="0.5"/><line x1="2300" y1="0" x2="949.0" y2="780" stroke="#1E293B" stroke-width="1" opacity="0.5"/><line x1="2346" y1="0" x2="3697.0" y2="780" stroke="#1E293B" stroke-width="1" opacity="0.5"/><line x1="2346" y1="0" x2="995.0" y2="780" stroke="#1E293B" stroke-width="1" opacity="0.5"/><line x1="2392" y1="0" x2="3743.0" y2="780" stroke="#1E293B" stroke-width="1" opacity="0.5"/><line x1="2392" y1="0" x2="1041.0" y2="780" stroke="#1E293B" stroke-width="1" opacity="0.5"/><line x1="2438" y1="0" x2="3789.0" y2="780" stroke="#1E293B" stroke-width="1" opacity="0.5"/><line x1="2438" y1="0" x2="1087.0" y2="780" stroke="#1E293B" stroke-width="1" opacity="0.5"/><line x1="2484" y1="0" x2="3835.0" y2="780" stroke="#1E293B" stroke-width="1" opacity="0.5"/><line x1="2484" y1="0" x2="1133.0" y2="780" stroke="#1E293B" stroke-width="1" opacity="0.5"/><line x1="2530" y1="0" x2="3881.0" y2="780" stroke="#1E293B" stroke-width="1" opacity="0.5"/><line x1="2530" y1="0" x2="1179.0" y2="780" stroke="#1E293B" stroke-width="1" opacity="0.5"/><line x1="2576" y1="0" x2="3927.0" y2="780" stroke="#1E293B" stroke-width="1" opacity="0.5"/><line x1="2576" y1="0" x2="1225.0" y2="780" stroke="#1E293B" stroke-width="1" opacity="0.5"/><line x1="2622" y1="0" x2="3973.0" y2="780" stroke="#1E293B" stroke-width="1" opacity="0.5"/><line x1="2622" y1="0" x2="1271.0" y2="780" stroke="#1E293B" stroke-width="1" opacity="0.5"/><rect width="1280" height="780" fill="url(#glow0)"/><rect width="1280" height="780" fill="url(#glow1)"/><rect width="1280" height="200" fill="url(#headfade)"/></g><rect x="0.5" y="0.5" width="1279" height="779" rx="28" fill="none" stroke="#24304D"/><text x="64.0" y="78.0" text-anchor="start" font-family="-apple-system, BlinkMacSystemFont, 'Segoe UI', Roboto, Helvetica, Arial, sans-serif" font-size="30" font-weight="700" fill="#F8FAFC">Guardrail Architecture</text><text x="64.0" y="110.0" text-anchor="start" font-family="-apple-system, BlinkMacSystemFont, 'Segoe UI', Roboto, Helvetica, Arial, sans-serif" font-size="15.5" font-weight="400" fill="#94A3B8">4 lớp phòng vệ — một vi phạm ở lớp 2 sẽ bị chặn trước khi tới tay tác giả</text><rect x="1110.4" y="58" width="105.6" height="28" rx="14" fill="#111A30" stroke="#2A3656"/><circle cx="1124.4" cy="72" r="4" fill="#FBBF24"/><text x="1134.4" y="76.5" text-anchor="start" font-family="-apple-system, BlinkMacSystemFont, 'Segoe UI', Roboto, Helvetica, Arial, sans-serif" font-size="12.5" font-weight="400" fill="#CBD5E1">audit trail</text><rect x="972.0" y="58" width="128.4" height="28" rx="14" fill="#111A30" stroke="#2A3656"/><circle cx="986.0" cy="72" r="4" fill="#F87171"/><text x="996.0" y="76.5" text-anchor="start" font-family="-apple-system, BlinkMacSystemFont, 'Segoe UI', Roboto, Helvetica, Arial, sans-serif" font-size="12.5" font-weight="400" fill="#CBD5E1">blocking flags</text><rect x="32" y="150" width="1216" height="140" rx="18" fill="#A78BFA" fill-opacity="0.045" stroke="#A78BFA" stroke-opacity="0.22"/><rect x="32" y="150" width="4" height="140" rx="2" fill="#A78BFA" fill-opacity="0.8"/><text x="56.0" y="210.0" text-anchor="start" font-family="ui-monospace, SFMono-Regular, 'Cascadia Code', Consolas, Menlo, monospace" font-size="12" font-weight="700" fill="#A78BFA">L1</text><text x="56.0" y="229.0" text-anchor="start" font-family="-apple-system, BlinkMacSystemFont, 'Segoe UI', Roboto, Helvetica, Arial, sans-serif" font-size="14.5" font-weight="700" fill="#E2E8F0" letter-spacing="0.6">PROMPT</text><text x="56.0" y="247.0" text-anchor="start" font-family="-apple-system, BlinkMacSystemFont, 'Segoe UI', Roboto, Helvetica, Arial, sans-serif" font-size="12" font-weight="400" fill="#7C8BA3">Ràng buộc trước khi gọi LLM</text><rect x="32" y="304" width="1216" height="140" rx="18" fill="#F87171" fill-opacity="0.045" stroke="#F87171" stroke-opacity="0.22"/><rect x="32" y="304" width="4" height="140" rx="2" fill="#F87171" fill-opacity="0.8"/><text x="56.0" y="364.0" text-anchor="start" font-family="ui-monospace, SFMono-Regular, 'Cascadia Code', Consolas, Menlo, monospace" font-size="12" font-weight="700" fill="#F87171">L2</text><text x="56.0" y="383.0" text-anchor="start" font-family="-apple-system, BlinkMacSystemFont, 'Segoe UI', Roboto, Helvetica, Arial, sans-serif" font-size="14.5" font-weight="700" fill="#E2E8F0" letter-spacing="0.6">OUTPUT CHECK</text><text x="56.0" y="401.0" text-anchor="start" font-family="-apple-system, BlinkMacSystemFont, 'Segoe UI', Roboto, Helvetica, Arial, sans-serif" font-size="12" font-weight="400" fill="#7C8BA3">Kiểm tra output của LLM</text><rect x="32" y="458" width="1216" height="140" rx="18" fill="#2DD4BF" fill-opacity="0.045" stroke="#2DD4BF" stroke-opacity="0.22"/><rect x="32" y="458" width="4" height="140" rx="2" fill="#2DD4BF" fill-opacity="0.8"/><text x="56.0" y="518.0" text-anchor="start" font-family="ui-monospace, SFMono-Regular, 'Cascadia Code', Consolas, Menlo, monospace" font-size="12" font-weight="700" fill="#2DD4BF">L3</text><text x="56.0" y="537.0" text-anchor="start" font-family="-apple-system, BlinkMacSystemFont, 'Segoe UI', Roboto, Helvetica, Arial, sans-serif" font-size="14.5" font-weight="700" fill="#E2E8F0" letter-spacing="0.6">DIFF DISPLAY</text><text x="56.0" y="555.0" text-anchor="start" font-family="-apple-system, BlinkMacSystemFont, 'Segoe UI', Roboto, Helvetica, Arial, sans-serif" font-size="12" font-weight="400" fill="#7C8BA3">Không ghi đè âm thầm</text><rect x="32" y="612" width="1216" height="140" rx="18" fill="#FBBF24" fill-opacity="0.045" stroke="#FBBF24" stroke-opacity="0.22"/><rect x="32" y="612" width="4" height="140" rx="2" fill="#FBBF24" fill-opacity="0.8"/><text x="56.0" y="672.0" text-anchor="start" font-family="ui-monospace, SFMono-Regular, 'Cascadia Code', Consolas, Menlo, monospace" font-size="12" font-weight="700" fill="#FBBF24">L4</text><text x="56.0" y="691.0" text-anchor="start" font-family="-apple-system, BlinkMacSystemFont, 'Segoe UI', Roboto, Helvetica, Arial, sans-serif" font-size="14.5" font-weight="700" fill="#E2E8F0" letter-spacing="0.6">AUDIT LOG</text><text x="56.0" y="709.0" text-anchor="start" font-family="-apple-system, BlinkMacSystemFont, 'Segoe UI', Roboto, Helvetica, Arial, sans-serif" font-size="12" font-weight="400" fill="#7C8BA3">Lưu vết mọi quyết định</text><path d="M 300 205 H 640" fill="none" stroke="#334155" stroke-width="2"/><path class="flow" d="M 300 205 H 640" fill="none" stroke="#b8a2fb" stroke-opacity="0.9" stroke-width="2"/><path d="M 300 359 H 1040" fill="none" stroke="#334155" stroke-width="2"/><path class="flow" d="M 300 359 H 1040" fill="none" stroke="#f98d8d" stroke-opacity="0.9" stroke-width="2"/><path d="M 300 513 H 640" fill="none" stroke="#334155" stroke-width="2"/><path class="flow" d="M 300 513 H 640" fill="none" stroke="#57dccb" stroke-opacity="0.9" stroke-width="2"/><path d="M 300 667 H 840" fill="none" stroke="#334155" stroke-width="2"/><path class="flow" d="M 300 667 H 840" fill="none" stroke="#fbcb4f" stroke-opacity="0.9" stroke-width="2"/><path d="M 300 260 V 334" fill="none" stroke="#334155" stroke-width="2"/><path class="flow" d="M 300 260 V 334" fill="none" stroke="#94A3B8" stroke-opacity="0.9" stroke-width="2" marker-end="url(#arrow)"/><path d="M 300 414 V 488" fill="none" stroke="#334155" stroke-width="2"/><path class="flow" d="M 300 414 V 488" fill="none" stroke="#94A3B8" stroke-opacity="0.9" stroke-width="2" marker-end="url(#arrow)"/><path d="M 300 568 V 642" fill="none" stroke="#334155" stroke-width="2"/><path class="flow" d="M 300 568 V 642" fill="none" stroke="#94A3B8" stroke-opacity="0.9" stroke-width="2" marker-end="url(#arrow)"/><path d="M 300 186 V 721" fill="none" stroke="#334155" stroke-width="2"/><text x="300.0" y="172.0" text-anchor="middle" font-family="ui-monospace, SFMono-Regular, 'Cascadia Code', Consolas, Menlo, monospace" font-size="11.5" font-weight="400" fill="#64748B">LLM request</text><circle r="4.5" fill="#E9D5FF" filter="url(#dotglow)" opacity="0"><animateMotion dur="7s" begin="0.0s" repeatCount="indefinite" path="M 300 186 V 721"/><animate attributeName="opacity" values="0;1;1;0" keyTimes="0;0.05;0.92;1" dur="7s" begin="0.0s" repeatCount="indefinite"/></circle><circle r="4.5" fill="#FCA5A5" filter="url(#dotglow)" opacity="0"><animate attributeName="opacity" values="0;1;1;0;0" keyTimes="0;0.05;0.4;0.43;1" dur="7s" begin="3.5s" repeatCount="indefinite"/><animateMotion path="M 300 186 V 359" keyPoints="0;1;1" keyTimes="0;0.4;1" calcMode="linear" dur="7s" begin="3.5s" repeatCount="indefinite"/></circle><g opacity="0" transform="translate(300 359)"><circle r="15" fill="#7F1D1D" stroke="#F87171" stroke-width="2"/><path d="M -6 -6 L 6 6 M 6 -6 L -6 6" stroke="#FECACA" stroke-width="2.6" stroke-linecap="round"/><text x="-26" y="5" text-anchor="end" font-family="ui-monospace, SFMono-Regular, 'Cascadia Code', Consolas, Menlo, monospace" font-size="11.5" fill="#FCA5A5">blocked</text><animate attributeName="opacity" values="0;0;1;1;0" keyTimes="0;0.4;0.43;0.75;0.8" dur="7s" begin="3.5s" repeatCount="indefinite"/></g><ellipse cx="440" cy="236.5" rx="30.4" ry="9.6" fill="#000" opacity="0.45" filter="url(#soft)"/><g class="float" style="animation-delay:-0.00s"><polygon points="408.0,196.0 440.0,214.5 440.0,232.5 408.0,214.0" fill="#67569b"/><polygon points="440.0,214.5 472.0,196.0 472.0,214.0 440.0,232.5" fill="#463a69"/><polygon points="440.0,177.5 472.0,196.0 440.0,214.5 408.0,196.0" fill="url(#g0)"/><polyline points="408.0,196.0 440.0,214.5 472.0,196.0" fill="none" stroke="#fff" stroke-opacity="0.35" stroke-width="1.1"/><polygon points="440.0,177.5 472.0,196.0 440.0,214.5 408.0,196.0" fill="none" stroke="#fff" stroke-opacity="0.22"/><g transform="matrix(0.866 0.500 -0.866 0.500 440 196)"><text x="0" y="4.5" text-anchor="middle" font-family="ui-monospace, SFMono-Regular, 'Cascadia Code', Consolas, Menlo, monospace" font-size="12.5" font-weight="800" fill="#0B1222" fill-opacity="0.75">SYS</text></g></g><ellipse cx="640" cy="236.5" rx="30.4" ry="9.6" fill="#000" opacity="0.45" filter="url(#soft)"/><g class="float" style="animation-delay:-0.37s"><polygon points="608.0,196.0 640.0,214.5 640.0,232.5 608.0,214.0" fill="#67569b"/><polygon points="640.0,214.5 672.0,196.0 672.0,214.0 640.0,232.5" fill="#463a69"/><polygon points="640.0,177.5 672.0,196.0 640.0,214.5 608.0,196.0" fill="url(#g0)"/><polyline points="608.0,196.0 640.0,214.5 672.0,196.0" fill="none" stroke="#fff" stroke-opacity="0.35" stroke-width="1.1"/><polygon points="640.0,177.5 672.0,196.0 640.0,214.5 608.0,196.0" fill="none" stroke="#fff" stroke-opacity="0.22"/><g transform="matrix(0.866 0.500 -0.866 0.500 640 196)"><text x="0" y="4.5" text-anchor="middle" font-family="ui-monospace, SFMono-Regular, 'Cascadia Code', Consolas, Menlo, monospace" font-size="12.5" font-weight="800" fill="#0B1222" fill-opacity="0.75">INJ</text></g></g><ellipse cx="440" cy="390.5" rx="30.4" ry="9.6" fill="#000" opacity="0.45" filter="url(#soft)"/><g class="float" style="animation-delay:-0.74s"><polygon points="408.0,350.0 440.0,368.5 440.0,386.5 408.0,368.0" fill="#994646"/><polygon points="440.0,368.5 472.0,350.0 472.0,368.0 440.0,386.5" fill="#682f2f"/><polygon points="440.0,331.5 472.0,350.0 440.0,368.5 408.0,350.0" fill="url(#g1)"/><polyline points="408.0,350.0 440.0,368.5 472.0,350.0" fill="none" stroke="#fff" stroke-opacity="0.35" stroke-width="1.1"/><polygon points="440.0,331.5 472.0,350.0 440.0,368.5 408.0,350.0" fill="none" stroke="#fff" stroke-opacity="0.22"/><g transform="matrix(0.866 0.500 -0.866 0.500 440 350)"><text x="0" y="4.5" text-anchor="middle" font-family="ui-monospace, SFMono-Regular, 'Cascadia Code', Consolas, Menlo, monospace" font-size="12.5" font-weight="800" fill="#0B1222" fill-opacity="0.75">NUM</text></g></g><ellipse cx="640" cy="390.5" rx="30.4" ry="9.6" fill="#000" opacity="0.45" filter="url(#soft)"/><g class="float" style="animation-delay:-1.11s"><polygon points="608.0,350.0 640.0,368.5 640.0,386.5 608.0,368.0" fill="#994646"/><polygon points="640.0,368.5 672.0,350.0 672.0,368.0 640.0,386.5" fill="#682f2f"/><polygon points="640.0,331.5 672.0,350.0 640.0,368.5 608.0,350.0" fill="url(#g1)"/><polyline points="608.0,350.0 640.0,368.5 672.0,350.0" fill="none" stroke="#fff" stroke-opacity="0.35" stroke-width="1.1"/><polygon points="640.0,331.5 672.0,350.0 640.0,368.5 608.0,350.0" fill="none" stroke="#fff" stroke-opacity="0.22"/><g transform="matrix(0.866 0.500 -0.866 0.500 640 350)"><text x="0" y="4.5" text-anchor="middle" font-family="ui-monospace, SFMono-Regular, 'Cascadia Code', Consolas, Menlo, monospace" font-size="12.5" font-weight="800" fill="#0B1222" fill-opacity="0.75">LEN</text></g></g><ellipse cx="840" cy="390.5" rx="30.4" ry="9.6" fill="#000" opacity="0.45" filter="url(#soft)"/><g class="float" style="animation-delay:-1.48s"><polygon points="808.0,350.0 840.0,368.5 840.0,386.5 808.0,368.0" fill="#994646"/><polygon points="840.0,368.5 872.0,350.0 872.0,368.0 840.0,386.5" fill="#682f2f"/><polygon points="840.0,331.5 872.0,350.0 840.0,368.5 808.0,350.0" fill="url(#g1)"/><polyline points="808.0,350.0 840.0,368.5 872.0,350.0" fill="none" stroke="#fff" stroke-opacity="0.35" stroke-width="1.1"/><polygon points="840.0,331.5 872.0,350.0 840.0,368.5 808.0,350.0" fill="none" stroke="#fff" stroke-opacity="0.22"/><g transform="matrix(0.866 0.500 -0.866 0.500 840 350)"><text x="0" y="4.5" text-anchor="middle" font-family="ui-monospace, SFMono-Regular, 'Cascadia Code', Consolas, Menlo, monospace" font-size="12.5" font-weight="800" fill="#0B1222" fill-opacity="0.75">SCP</text></g></g><ellipse cx="1040" cy="390.5" rx="30.4" ry="9.6" fill="#000" opacity="0.45" filter="url(#soft)"/><g class="float" style="animation-delay:-1.85s"><polygon points="1008.0,350.0 1040.0,368.5 1040.0,386.5 1008.0,368.0" fill="#994646"/><polygon points="1040.0,368.5 1072.0,350.0 1072.0,368.0 1040.0,386.5" fill="#682f2f"/><polygon points="1040.0,331.5 1072.0,350.0 1040.0,368.5 1008.0,350.0" fill="url(#g1)"/><polyline points="1008.0,350.0 1040.0,368.5 1072.0,350.0" fill="none" stroke="#fff" stroke-opacity="0.35" stroke-width="1.1"/><polygon points="1040.0,331.5 1072.0,350.0 1040.0,368.5 1008.0,350.0" fill="none" stroke="#fff" stroke-opacity="0.22"/><g transform="matrix(0.866 0.500 -0.866 0.500 1040 350)"><text x="0" y="4.5" text-anchor="middle" font-family="ui-monospace, SFMono-Regular, 'Cascadia Code', Consolas, Menlo, monospace" font-size="12.5" font-weight="800" fill="#0B1222" fill-opacity="0.75">SAN</text></g></g><ellipse cx="440" cy="544.5" rx="30.4" ry="9.6" fill="#000" opacity="0.45" filter="url(#soft)"/><g class="float" style="animation-delay:-2.22s"><polygon points="408.0,504.0 440.0,522.5 440.0,540.5 408.0,522.0" fill="#1b8376"/><polygon points="440.0,522.5 472.0,504.0 472.0,522.0 440.0,540.5" fill="#125950"/><polygon points="440.0,485.5 472.0,504.0 440.0,522.5 408.0,504.0" fill="url(#g2)"/><polyline points="408.0,504.0 440.0,522.5 472.0,504.0" fill="none" stroke="#fff" stroke-opacity="0.35" stroke-width="1.1"/><polygon points="440.0,485.5 472.0,504.0 440.0,522.5 408.0,504.0" fill="none" stroke="#fff" stroke-opacity="0.22"/><g transform="matrix(0.866 0.500 -0.866 0.500 440 504)"><text x="0" y="4.5" text-anchor="middle" font-family="ui-monospace, SFMono-Regular, 'Cascadia Code', Consolas, Menlo, monospace" font-size="12.5" font-weight="800" fill="#0B1222" fill-opacity="0.75">DIF</text></g></g><ellipse cx="640" cy="544.5" rx="30.4" ry="9.6" fill="#000" opacity="0.45" filter="url(#soft)"/><g class="float" style="animation-delay:-2.59s"><polygon points="608.0,504.0 640.0,522.5 640.0,540.5 608.0,522.0" fill="#1b8376"/><polygon points="640.0,522.5 672.0,504.0 672.0,522.0 640.0,540.5" fill="#125950"/><polygon points="640.0,485.5 672.0,504.0 640.0,522.5 608.0,504.0" fill="url(#g2)"/><polyline points="608.0,504.0 640.0,522.5 672.0,504.0" fill="none" stroke="#fff" stroke-opacity="0.35" stroke-width="1.1"/><polygon points="640.0,485.5 672.0,504.0 640.0,522.5 608.0,504.0" fill="none" stroke="#fff" stroke-opacity="0.22"/><g transform="matrix(0.866 0.500 -0.866 0.500 640 504)"><text x="0" y="4.5" text-anchor="middle" font-family="ui-monospace, SFMono-Regular, 'Cascadia Code', Consolas, Menlo, monospace" font-size="12.5" font-weight="800" fill="#0B1222" fill-opacity="0.75">BLK</text></g></g><ellipse cx="440" cy="698.5" rx="30.4" ry="9.6" fill="#000" opacity="0.45" filter="url(#soft)"/><g class="float" style="animation-delay:-2.96s"><polygon points="408.0,658.0 440.0,676.5 440.0,694.5 408.0,676.0" fill="#9b7616"/><polygon points="440.0,676.5 472.0,658.0 472.0,676.0 440.0,694.5" fill="#69500f"/><polygon points="440.0,639.5 472.0,658.0 440.0,676.5 408.0,658.0" fill="url(#g3)"/><polyline points="408.0,658.0 440.0,676.5 472.0,658.0" fill="none" stroke="#fff" stroke-opacity="0.35" stroke-width="1.1"/><polygon points="440.0,639.5 472.0,658.0 440.0,676.5 408.0,658.0" fill="none" stroke="#fff" stroke-opacity="0.22"/><g transform="matrix(0.866 0.500 -0.866 0.500 440 658)"><text x="0" y="4.5" text-anchor="middle" font-family="ui-monospace, SFMono-Regular, 'Cascadia Code', Consolas, Menlo, monospace" font-size="12.5" font-weight="800" fill="#0B1222" fill-opacity="0.75">REV</text></g></g><ellipse cx="640" cy="698.5" rx="30.4" ry="9.6" fill="#000" opacity="0.45" filter="url(#soft)"/><g class="float" style="animation-delay:-3.33s"><polygon points="608.0,658.0 640.0,676.5 640.0,694.5 608.0,676.0" fill="#9b7616"/><polygon points="640.0,676.5 672.0,658.0 672.0,676.0 640.0,694.5" fill="#69500f"/><polygon points="640.0,639.5 672.0,658.0 640.0,676.5 608.0,658.0" fill="url(#g3)"/><polyline points="608.0,658.0 640.0,676.5 672.0,658.0" fill="none" stroke="#fff" stroke-opacity="0.35" stroke-width="1.1"/><polygon points="640.0,639.5 672.0,658.0 640.0,676.5 608.0,658.0" fill="none" stroke="#fff" stroke-opacity="0.22"/><g transform="matrix(0.866 0.500 -0.866 0.500 640 658)"><text x="0" y="4.5" text-anchor="middle" font-family="ui-monospace, SFMono-Regular, 'Cascadia Code', Consolas, Menlo, monospace" font-size="12.5" font-weight="800" fill="#0B1222" fill-opacity="0.75">ACK</text></g></g><ellipse cx="840" cy="698.5" rx="30.4" ry="9.6" fill="#000" opacity="0.45" filter="url(#soft)"/><g class="float" style="animation-delay:-3.70s"><polygon points="808.0,658.0 840.0,676.5 840.0,694.5 808.0,676.0" fill="#9b7616"/><polygon points="840.0,676.5 872.0,658.0 872.0,676.0 840.0,694.5" fill="#69500f"/><polygon points="840.0,639.5 872.0,658.0 840.0,676.5 808.0,658.0" fill="url(#g3)"/><polyline points="808.0,658.0 840.0,676.5 872.0,658.0" fill="none" stroke="#fff" stroke-opacity="0.35" stroke-width="1.1"/><polygon points="840.0,639.5 872.0,658.0 840.0,676.5 808.0,658.0" fill="none" stroke="#fff" stroke-opacity="0.22"/><g transform="matrix(0.866 0.500 -0.866 0.500 840 658)"><text x="0" y="4.5" text-anchor="middle" font-family="ui-monospace, SFMono-Regular, 'Cascadia Code', Consolas, Menlo, monospace" font-size="12.5" font-weight="800" fill="#0B1222" fill-opacity="0.75">FPR</text></g></g><text x="440.0" y="258.0" text-anchor="middle" font-family="-apple-system, BlinkMacSystemFont, 'Segoe UI', Roboto, Helvetica, Arial, sans-serif" font-size="14" font-weight="650" fill="#F1F5F9">System prompt rules</text><text x="440.0" y="274.0" text-anchor="middle" font-family="-apple-system, BlinkMacSystemFont, 'Segoe UI', Roboto, Helvetica, Arial, sans-serif" font-size="11.5" font-weight="400" fill="#94A3B8">prompts.default.yaml</text><text x="640.0" y="258.0" text-anchor="middle" font-family="-apple-system, BlinkMacSystemFont, 'Segoe UI', Roboto, Helvetica, Arial, sans-serif" font-size="14" font-weight="650" fill="#F1F5F9">Injection guard</text><text x="640.0" y="274.0" text-anchor="middle" font-family="-apple-system, BlinkMacSystemFont, 'Segoe UI', Roboto, Helvetica, Arial, sans-serif" font-size="11.5" font-weight="400" fill="#94A3B8">request_guard.py</text><text x="440.0" y="412.0" text-anchor="middle" font-family="-apple-system, BlinkMacSystemFont, 'Segoe UI', Roboto, Helvetica, Arial, sans-serif" font-size="14" font-weight="650" fill="#F1F5F9">Numeric drift</text><text x="440.0" y="428.0" text-anchor="middle" font-family="-apple-system, BlinkMacSystemFont, 'Segoe UI', Roboto, Helvetica, Arial, sans-serif" font-size="11.5" font-weight="400" fill="#94A3B8">metric changes</text><text x="640.0" y="412.0" text-anchor="middle" font-family="-apple-system, BlinkMacSystemFont, 'Segoe UI', Roboto, Helvetica, Arial, sans-serif" font-size="14" font-weight="650" fill="#F1F5F9">Length / semantic</text><text x="640.0" y="428.0" text-anchor="middle" font-family="-apple-system, BlinkMacSystemFont, 'Segoe UI', Roboto, Helvetica, Arial, sans-serif" font-size="11.5" font-weight="400" fill="#94A3B8">rewrite bounds</text><text x="840.0" y="412.0" text-anchor="middle" font-family="-apple-system, BlinkMacSystemFont, 'Segoe UI', Roboto, Helvetica, Arial, sans-serif" font-size="14" font-weight="650" fill="#F1F5F9">Editor scope</text><text x="840.0" y="428.0" text-anchor="middle" font-family="-apple-system, BlinkMacSystemFont, 'Segoe UI', Roboto, Helvetica, Arial, sans-serif" font-size="11.5" font-weight="400" fill="#94A3B8">off-topic guard</text><text x="1040.0" y="412.0" text-anchor="middle" font-family="-apple-system, BlinkMacSystemFont, 'Segoe UI', Roboto, Helvetica, Arial, sans-serif" font-size="14" font-weight="650" fill="#F1F5F9">Output sanitize</text><text x="1040.0" y="428.0" text-anchor="middle" font-family="-apple-system, BlinkMacSystemFont, 'Segoe UI', Roboto, Helvetica, Arial, sans-serif" font-size="11.5" font-weight="400" fill="#94A3B8">strip unsafe</text><text x="440.0" y="566.0" text-anchor="middle" font-family="-apple-system, BlinkMacSystemFont, 'Segoe UI', Roboto, Helvetica, Arial, sans-serif" font-size="14" font-weight="650" fill="#F1F5F9">Line diff</text><text x="440.0" y="582.0" text-anchor="middle" font-family="-apple-system, BlinkMacSystemFont, 'Segoe UI', Roboto, Helvetica, Arial, sans-serif" font-size="11.5" font-weight="400" fill="#94A3B8">no silent overwrite</text><text x="640.0" y="566.0" text-anchor="middle" font-family="-apple-system, BlinkMacSystemFont, 'Segoe UI', Roboto, Helvetica, Arial, sans-serif" font-size="14" font-weight="650" fill="#F1F5F9">Blocking flags</text><text x="640.0" y="582.0" text-anchor="middle" font-family="-apple-system, BlinkMacSystemFont, 'Segoe UI', Roboto, Helvetica, Arial, sans-serif" font-size="11.5" font-weight="400" fill="#94A3B8">disable Accept</text><text x="440.0" y="720.0" text-anchor="middle" font-family="-apple-system, BlinkMacSystemFont, 'Segoe UI', Roboto, Helvetica, Arial, sans-serif" font-size="14" font-weight="650" fill="#F1F5F9">Revision history</text><text x="440.0" y="736.0" text-anchor="middle" font-family="-apple-system, BlinkMacSystemFont, 'Segoe UI', Roboto, Helvetica, Arial, sans-serif" font-size="11.5" font-weight="400" fill="#94A3B8">AuditLog DB</text><text x="640.0" y="720.0" text-anchor="middle" font-family="-apple-system, BlinkMacSystemFont, 'Segoe UI', Roboto, Helvetica, Arial, sans-serif" font-size="14" font-weight="650" fill="#F1F5F9">Accept → API</text><text x="640.0" y="736.0" text-anchor="middle" font-family="-apple-system, BlinkMacSystemFont, 'Segoe UI', Roboto, Helvetica, Arial, sans-serif" font-size="11.5" font-weight="400" fill="#94A3B8">revision record</text><text x="840.0" y="720.0" text-anchor="middle" font-family="-apple-system, BlinkMacSystemFont, 'Segoe UI', Roboto, Helvetica, Arial, sans-serif" font-size="14" font-weight="650" fill="#F1F5F9">Score fingerprint</text><text x="840.0" y="736.0" text-anchor="middle" font-family="-apple-system, BlinkMacSystemFont, 'Segoe UI', Roboto, Helvetica, Arial, sans-serif" font-size="11.5" font-weight="400" fill="#94A3B8">publication gate</text></svg>
