<svg xmlns="http://www.w3.org/2000/svg" viewBox="0 0 1280 650" width="1280" height="650" role="img" aria-label="LangGraph Orchestrator"><defs><linearGradient id="bg" x1="0" y1="0" x2="1" y2="1"><stop offset="0" stop-color="#0B1222"/><stop offset="1" stop-color="#151E3A"/></linearGradient><linearGradient id="headfade" x1="0" y1="0" x2="0" y2="1"><stop offset="0" stop-color="#0B1222" stop-opacity="0.95"/><stop offset="0.55" stop-color="#0D1428" stop-opacity="0.6"/><stop offset="1" stop-color="#0F1730" stop-opacity="0"/></linearGradient><clipPath id="card"><rect width="1280" height="650" rx="28"/></clipPath><filter id="soft" x="-50%" y="-50%" width="200%" height="200%"><feGaussianBlur stdDeviation="7"/></filter><filter id="dotglow" x="-200%" y="-200%" width="500%" height="500%"><feGaussianBlur stdDeviation="2.6" result="b"/><feMerge><feMergeNode in="b"/><feMergeNode in="SourceGraphic"/></feMerge></filter><marker id="arrow" viewBox="0 0 10 10" refX="8" refY="5" markerWidth="6.5" markerHeight="6.5" orient="auto-start-reverse"><path d="M0,0 L10,5 L0,10 z" fill="#64748B"/></marker><radialGradient id="glow0" cx="0.55" cy="0.45" r="0.6"><stop offset="0" stop-color="#7C3AED" stop-opacity="0.18"/><stop offset="1" stop-color="#7C3AED" stop-opacity="0"/></radialGradient><linearGradient id="g0" x1="0" y1="0" x2="1" y2="1"><stop offset="0" stop-color="#fcd570"/><stop offset="1" stop-color="#FBBF24"/></linearGradient><linearGradient id="g1" x1="0" y1="0" x2="1" y2="1"><stop offset="0" stop-color="#c5b3fb"/><stop offset="1" stop-color="#A78BFA"/></linearGradient><linearGradient id="g2" x1="0" y1="0" x2="1" y2="1"><stop offset="0" stop-color="#7dd4fa"/><stop offset="1" stop-color="#38BDF8"/></linearGradient><linearGradient id="g3" x1="0" y1="0" x2="1" y2="1"><stop offset="0" stop-color="#97c4fb"/><stop offset="1" stop-color="#60A5FA"/></linearGradient><linearGradient id="g4" x1="0" y1="0" x2="1" y2="1"><stop offset="0" stop-color="#faa2a2"/><stop offset="1" stop-color="#F87171"/></linearGradient><linearGradient id="g5" x1="0" y1="0" x2="1" y2="1"><stop offset="0" stop-color="#7be2bc"/><stop offset="1" stop-color="#34D399"/></linearGradient></defs><style>.flow{stroke-dasharray:6 8;animation:dash 1.1s linear infinite}@keyframes dash{to{stroke-dashoffset:-28}}.float{animation:float 5s ease-in-out infinite}@keyframes float{0%,100%{transform:translateY(0)}50%{transform:translateY(-4px)}}.pulse{transform-box:fill-box;transform-origin:center;animation:pulse 2.6s ease-out infinite}@keyframes pulse{0%{opacity:.85;transform:scale(1)}100%{opacity:0;transform:scale(1.45)}}@media (prefers-reduced-motion:reduce){.flow,.float,.pulse{animation:none}}</style><g clip-path="url(#card)"><rect width="1280" height="650" fill="url(#bg)"/><line x1="-1196" y1="0" x2="-70.2" y2="650" stroke="#1E293B" stroke-width="1" opacity="0.5"/><line x1="-1196" y1="0" x2="-2321.8" y2="650" stroke="#1E293B" stroke-width="1" opacity="0.5"/><line x1="-1150" y1="0" x2="-24.2" y2="650" stroke="#1E293B" stroke-width="1" opacity="0.5"/><line x1="-1150" y1="0" x2="-2275.8" y2="650" stroke="#1E293B" stroke-width="1" opacity="0.5"/><line x1="-1104" y1="0" x2="21.8" y2="650" stroke="#1E293B" stroke-width="1" opacity="0.5"/><line x1="-1104" y1="0" x2="-2229.8" y2="650" stroke="#1E293B" stroke-width="1" opacity="0.5"/><line x1="-1058" y1="0" x2="67.8" y2="650" stroke="#1E293B" stroke-width="1" opacity="0.5"/><line x1="-1058" y1="0" x2="-2183.8" y2="650" stroke="#1E293B" stroke-width="1" opacity="0.5"/><line x1="-1012" y1="0" x2="113.8" y2="650" stroke="#1E293B" stroke-width="1" opacity="0.5"/><line x1="-1012" y1="0" x2="-2137.8" y2="650" stroke="#1E293B" stroke-width="1" opacity="0.5"/><line x1="-966" y1="0" x2="159.8" y2="650" stroke="#1E293B" stroke-width="1" opacity="0.5"/><line x1="-966" y1="0" x2="-2091.8" y2="650" stroke="#1E293B" stroke-width="1" opacity="0.5"/><line x1="-920" y1="0" x2="205.8" y2="650" stroke="#1E293B" stroke-width="1" opacity="0.5"/><line x1="-920" y1="0" x2="-2045.8" y2="650" stroke="#1E293B" stroke-width="1" opacity="0.5"/><line x1="-874" y1="0" x2="251.8" y2="650" stroke="#1E293B" stroke-width="1" opacity="0.5"/><line x1="-874" y1="0" x2="-1999.8" y2="650" stroke="#1E293B" stroke-width="1" opacity="0.5"/><line x1="-828" y1="0" x2="297.8" y2="650" stroke="#1E293B" stroke-width="1" opacity="0.5"/><line x1="-828" y1="0" x2="-1953.8" y2="650" stroke="#1E293B" stroke-width="1" opacity="0.5"/><line x1="-782" y1="0" x2="343.8" y2="650" stroke="#1E293B" stroke-width="1" opacity="0.5"/><line x1="-782" y1="0" x2="-1907.8" y2="650" stroke="#1E293B" stroke-width="1" opacity="0.5"/><line x1="-736" y1="0" x2="389.8" y2="650" stroke="#1E293B" stroke-width="1" opacity="0.5"/><line x1="-736" y1="0" x2="-1861.8" y2="650" stroke="#1E293B" stroke-width="1" opacity="0.5"/><line x1="-690" y1="0" x2="435.8" y2="650" stroke="#1E293B" stroke-width="1" opacity="0.5"/><line x1="-690" y1="0" x2="-1815.8" y2="650" stroke="#1E293B" stroke-width="1" opacity="0.5"/><line x1="-644" y1="0" x2="481.8" y2="650" stroke="#1E293B" stroke-width="1" opacity="0.5"/><line x1="-644" y1="0" x2="-1769.8" y2="650" stroke="#1E293B" stroke-width="1" opacity="0.5"/><line x1="-598" y1="0" x2="527.8" y2="650" stroke="#1E293B" stroke-width="1" opacity="0.5"/><line x1="-598" y1="0" x2="-1723.8" y2="650" stroke="#1E293B" stroke-width="1" opacity="0.5"/><line x1="-552" y1="0" x2="573.8" y2="650" stroke="#1E293B" stroke-width="1" opacity="0.5"/><line x1="-552" y1="0" x2="-1677.8" y2="650" stroke="#1E293B" stroke-width="1" opacity="0.5"/><line x1="-506" y1="0" x2="619.8" y2="650" stroke="#1E293B" stroke-width="1" opacity="0.5"/><line x1="-506" y1="0" x2="-1631.8" y2="650" stroke="#1E293B" stroke-width="1" opacity="0.5"/><line x1="-460" y1="0" x2="665.8" y2="650" stroke="#1E293B" stroke-width="1" opacity="0.5"/><line x1="-460" y1="0" x2="-1585.8" y2="650" stroke="#1E293B" stroke-width="1" opacity="0.5"/><line x1="-414" y1="0" x2="711.8" y2="650" stroke="#1E293B" stroke-width="1" opacity="0.5"/><line x1="-414" y1="0" x2="-1539.8" y2="650" stroke="#1E293B" stroke-width="1" opacity="0.5"/><line x1="-368" y1="0" x2="757.8" y2="650" stroke="#1E293B" stroke-width="1" opacity="0.5"/><line x1="-368" y1="0" x2="-1493.8" y2="650" stroke="#1E293B" stroke-width="1" opacity="0.5"/><line x1="-322" y1="0" x2="803.8" y2="650" stroke="#1E293B" stroke-width="1" opacity="0.5"/><line x1="-322" y1="0" x2="-1447.8" y2="650" stroke="#1E293B" stroke-width="1" opacity="0.5"/><line x1="-276" y1="0" x2="849.8" y2="650" stroke="#1E293B" stroke-width="1" opacity="0.5"/><line x1="-276" y1="0" x2="-1401.8" y2="650" stroke="#1E293B" stroke-width="1" opacity="0.5"/><line x1="-230" y1="0" x2="895.8" y2="650" stroke="#1E293B" stroke-width="1" opacity="0.5"/><line x1="-230" y1="0" x2="-1355.8" y2="650" stroke="#1E293B" stroke-width="1" opacity="0.5"/><line x1="-184" y1="0" x2="941.8" y2="650" stroke="#1E293B" stroke-width="1" opacity="0.5"/><line x1="-184" y1="0" x2="-1309.8" y2="650" stroke="#1E293B" stroke-width="1" opacity="0.5"/><line x1="-138" y1="0" x2="987.8" y2="650" stroke="#1E293B" stroke-width="1" opacity="0.5"/><line x1="-138" y1="0" x2="-1263.8" y2="650" stroke="#1E293B" stroke-width="1" opacity="0.5"/><line x1="-92" y1="0" x2="1033.8" y2="650" stroke="#1E293B" stroke-width="1" opacity="0.5"/><line x1="-92" y1="0" x2="-1217.8" y2="650" stroke="#1E293B" stroke-width="1" opacity="0.5"/><line x1="-46" y1="0" x2="1079.8" y2="650" stroke="#1E293B" stroke-width="1" opacity="0.5"/><line x1="-46" y1="0" x2="-1171.8" y2="650" stroke="#1E293B" stroke-width="1" opacity="0.5"/><line x1="0" y1="0" x2="1125.8" y2="650" stroke="#1E293B" stroke-width="1" opacity="0.5"/><line x1="0" y1="0" x2="-1125.8" y2="650" stroke="#1E293B" stroke-width="1" opacity="0.5"/><line x1="46" y1="0" x2="1171.8" y2="650" stroke="#1E293B" stroke-width="1" opacity="0.5"/><line x1="46" y1="0" x2="-1079.8" y2="650" stroke="#1E293B" stroke-width="1" opacity="0.5"/><line x1="92" y1="0" x2="1217.8" y2="650" stroke="#1E293B" stroke-width="1" opacity="0.5"/><line x1="92" y1="0" x2="-1033.8" y2="650" stroke="#1E293B" stroke-width="1" opacity="0.5"/><line x1="138" y1="0" x2="1263.8" y2="650" stroke="#1E293B" stroke-width="1" opacity="0.5"/><line x1="138" y1="0" x2="-987.8" y2="650" stroke="#1E293B" stroke-width="1" opacity="0.5"/><line x1="184" y1="0" x2="1309.8" y2="650" stroke="#1E293B" stroke-width="1" opacity="0.5"/><line x1="184" y1="0" x2="-941.8" y2="650" stroke="#1E293B" stroke-width="1" opacity="0.5"/><line x1="230" y1="0" x2="1355.8" y2="650" stroke="#1E293B" stroke-width="1" opacity="0.5"/><line x1="230" y1="0" x2="-895.8" y2="650" stroke="#1E293B" stroke-width="1" opacity="0.5"/><line x1="276" y1="0" x2="1401.8" y2="650" stroke="#1E293B" stroke-width="1" opacity="0.5"/><line x1="276" y1="0" x2="-849.8" y2="650" stroke="#1E293B" stroke-width="1" opacity="0.5"/><line x1="322" y1="0" x2="1447.8" y2="650" stroke="#1E293B" stroke-width="1" opacity="0.5"/><line x1="322" y1="0" x2="-803.8" y2="650" stroke="#1E293B" stroke-width="1" opacity="0.5"/><line x1="368" y1="0" x2="1493.8" y2="650" stroke="#1E293B" stroke-width="1" opacity="0.5"/><line x1="368" y1="0" x2="-757.8" y2="650" stroke="#1E293B" stroke-width="1" opacity="0.5"/><line x1="414" y1="0" x2="1539.8" y2="650" stroke="#1E293B" stroke-width="1" opacity="0.5"/><line x1="414" y1="0" x2="-711.8" y2="650" stroke="#1E293B" stroke-width="1" opacity="0.5"/><line x1="460" y1="0" x2="1585.8" y2="650" stroke="#1E293B" stroke-width="1" opacity="0.5"/><line x1="460" y1="0" x2="-665.8" y2="650" stroke="#1E293B" stroke-width="1" opacity="0.5"/><line x1="506" y1="0" x2="1631.8" y2="650" stroke="#1E293B" stroke-width="1" opacity="0.5"/><line x1="506" y1="0" x2="-619.8" y2="650" stroke="#1E293B" stroke-width="1" opacity="0.5"/><line x1="552" y1="0" x2="1677.8" y2="650" stroke="#1E293B" stroke-width="1" opacity="0.5"/><line x1="552" y1="0" x2="-573.8" y2="650" stroke="#1E293B" stroke-width="1" opacity="0.5"/><line x1="598" y1="0" x2="1723.8" y2="650" stroke="#1E293B" stroke-width="1" opacity="0.5"/><line x1="598" y1="0" x2="-527.8" y2="650" stroke="#1E293B" stroke-width="1" opacity="0.5"/><line x1="644" y1="0" x2="1769.8" y2="650" stroke="#1E293B" stroke-width="1" opacity="0.5"/><line x1="644" y1="0" x2="-481.8" y2="650" stroke="#1E293B" stroke-width="1" opacity="0.5"/><line x1="690" y1="0" x2="1815.8" y2="650" stroke="#1E293B" stroke-width="1" opacity="0.5"/><line x1="690" y1="0" x2="-435.8" y2="650" stroke="#1E293B" stroke-width="1" opacity="0.5"/><line x1="736" y1="0" x2="1861.8" y2="650" stroke="#1E293B" stroke-width="1" opacity="0.5"/><line x1="736" y1="0" x2="-389.8" y2="650" stroke="#1E293B" stroke-width="1" opacity="0.5"/><line x1="782" y1="0" x2="1907.8" y2="650" stroke="#1E293B" stroke-width="1" opacity="0.5"/><line x1="782" y1="0" x2="-343.8" y2="650" stroke="#1E293B" stroke-width="1" opacity="0.5"/><line x1="828" y1="0" x2="1953.8" y2="650" stroke="#1E293B" stroke-width="1" opacity="0.5"/><line x1="828" y1="0" x2="-297.8" y2="650" stroke="#1E293B" stroke-width="1" opacity="0.5"/><line x1="874" y1="0" x2="1999.8" y2="650" stroke="#1E293B" stroke-width="1" opacity="0.5"/><line x1="874" y1="0" x2="-251.8" y2="650" stroke="#1E293B" stroke-width="1" opacity="0.5"/><line x1="920" y1="0" x2="2045.8" y2="650" stroke="#1E293B" stroke-width="1" opacity="0.5"/><line x1="920" y1="0" x2="-205.8" y2="650" stroke="#1E293B" stroke-width="1" opacity="0.5"/><line x1="966" y1="0" x2="2091.8" y2="650" stroke="#1E293B" stroke-width="1" opacity="0.5"/><line x1="966" y1="0" x2="-159.8" y2="650" stroke="#1E293B" stroke-width="1" opacity="0.5"/><line x1="1012" y1="0" x2="2137.8" y2="650" stroke="#1E293B" stroke-width="1" opacity="0.5"/><line x1="1012" y1="0" x2="-113.8" y2="650" stroke="#1E293B" stroke-width="1" opacity="0.5"/><line x1="1058" y1="0" x2="2183.8" y2="650" stroke="#1E293B" stroke-width="1" opacity="0.5"/><line x1="1058" y1="0" x2="-67.8" y2="650" stroke="#1E293B" stroke-width="1" opacity="0.5"/><line x1="1104" y1="0" x2="2229.8" y2="650" stroke="#1E293B" stroke-width="1" opacity="0.5"/><line x1="1104" y1="0" x2="-21.8" y2="650" stroke="#1E293B" stroke-width="1" opacity="0.5"/><line x1="1150" y1="0" x2="2275.8" y2="650" stroke="#1E293B" stroke-width="1" opacity="0.5"/><line x1="1150" y1="0" x2="24.2" y2="650" stroke="#1E293B" stroke-width="1" opacity="0.5"/><line x1="1196" y1="0" x2="2321.8" y2="650" stroke="#1E293B" stroke-width="1" opacity="0.5"/><line x1="1196" y1="0" x2="70.2" y2="650" stroke="#1E293B" stroke-width="1" opacity="0.5"/><line x1="1242" y1="0" x2="2367.8" y2="650" stroke="#1E293B" stroke-width="1" opacity="0.5"/><line x1="1242" y1="0" x2="116.2" y2="650" stroke="#1E293B" stroke-width="1" opacity="0.5"/><line x1="1288" y1="0" x2="2413.8" y2="650" stroke="#1E293B" stroke-width="1" opacity="0.5"/><line x1="1288" y1="0" x2="162.2" y2="650" stroke="#1E293B" stroke-width="1" opacity="0.5"/><line x1="1334" y1="0" x2="2459.8" y2="650" stroke="#1E293B" stroke-width="1" opacity="0.5"/><line x1="1334" y1="0" x2="208.2" y2="650" stroke="#1E293B" stroke-width="1" opacity="0.5"/><line x1="1380" y1="0" x2="2505.8" y2="650" stroke="#1E293B" stroke-width="1" opacity="0.5"/><line x1="1380" y1="0" x2="254.2" y2="650" stroke="#1E293B" stroke-width="1" opacity="0.5"/><line x1="1426" y1="0" x2="2551.8" y2="650" stroke="#1E293B" stroke-width="1" opacity="0.5"/><line x1="1426" y1="0" x2="300.2" y2="650" stroke="#1E293B" stroke-width="1" opacity="0.5"/><line x1="1472" y1="0" x2="2597.8" y2="650" stroke="#1E293B" stroke-width="1" opacity="0.5"/><line x1="1472" y1="0" x2="346.2" y2="650" stroke="#1E293B" stroke-width="1" opacity="0.5"/><line x1="1518" y1="0" x2="2643.8" y2="650" stroke="#1E293B" stroke-width="1" opacity="0.5"/><line x1="1518" y1="0" x2="392.2" y2="650" stroke="#1E293B" stroke-width="1" opacity="0.5"/><line x1="1564" y1="0" x2="2689.8" y2="650" stroke="#1E293B" stroke-width="1" opacity="0.5"/><line x1="1564" y1="0" x2="438.2" y2="650" stroke="#1E293B" stroke-width="1" opacity="0.5"/><line x1="1610" y1="0" x2="2735.8" y2="650" stroke="#1E293B" stroke-width="1" opacity="0.5"/><line x1="1610" y1="0" x2="484.2" y2="650" stroke="#1E293B" stroke-width="1" opacity="0.5"/><line x1="1656" y1="0" x2="2781.8" y2="650" stroke="#1E293B" stroke-width="1" opacity="0.5"/><line x1="1656" y1="0" x2="530.2" y2="650" stroke="#1E293B" stroke-width="1" opacity="0.5"/><line x1="1702" y1="0" x2="2827.8" y2="650" stroke="#1E293B" stroke-width="1" opacity="0.5"/><line x1="1702" y1="0" x2="576.2" y2="650" stroke="#1E293B" stroke-width="1" opacity="0.5"/><line x1="1748" y1="0" x2="2873.8" y2="650" stroke="#1E293B" stroke-width="1" opacity="0.5"/><line x1="1748" y1="0" x2="622.2" y2="650" stroke="#1E293B" stroke-width="1" opacity="0.5"/><line x1="1794" y1="0" x2="2919.8" y2="650" stroke="#1E293B" stroke-width="1" opacity="0.5"/><line x1="1794" y1="0" x2="668.2" y2="650" stroke="#1E293B" stroke-width="1" opacity="0.5"/><line x1="1840" y1="0" x2="2965.8" y2="650" stroke="#1E293B" stroke-width="1" opacity="0.5"/><line x1="1840" y1="0" x2="714.2" y2="650" stroke="#1E293B" stroke-width="1" opacity="0.5"/><line x1="1886" y1="0" x2="3011.8" y2="650" stroke="#1E293B" stroke-width="1" opacity="0.5"/><line x1="1886" y1="0" x2="760.2" y2="650" stroke="#1E293B" stroke-width="1" opacity="0.5"/><line x1="1932" y1="0" x2="3057.8" y2="650" stroke="#1E293B" stroke-width="1" opacity="0.5"/><line x1="1932" y1="0" x2="806.2" y2="650" stroke="#1E293B" stroke-width="1" opacity="0.5"/><line x1="1978" y1="0" x2="3103.8" y2="650" stroke="#1E293B" stroke-width="1" opacity="0.5"/><line x1="1978" y1="0" x2="852.2" y2="650" stroke="#1E293B" stroke-width="1" opacity="0.5"/><line x1="2024" y1="0" x2="3149.8" y2="650" stroke="#1E293B" stroke-width="1" opacity="0.5"/><line x1="2024" y1="0" x2="898.2" y2="650" stroke="#1E293B" stroke-width="1" opacity="0.5"/><line x1="2070" y1="0" x2="3195.8" y2="650" stroke="#1E293B" stroke-width="1" opacity="0.5"/><line x1="2070" y1="0" x2="944.2" y2="650" stroke="#1E293B" stroke-width="1" opacity="0.5"/><line x1="2116" y1="0" x2="3241.8" y2="650" stroke="#1E293B" stroke-width="1" opacity="0.5"/><line x1="2116" y1="0" x2="990.2" y2="650" stroke="#1E293B" stroke-width="1" opacity="0.5"/><line x1="2162" y1="0" x2="3287.8" y2="650" stroke="#1E293B" stroke-width="1" opacity="0.5"/><line x1="2162" y1="0" x2="1036.2" y2="650" stroke="#1E293B" stroke-width="1" opacity="0.5"/><line x1="2208" y1="0" x2="3333.8" y2="650" stroke="#1E293B" stroke-width="1" opacity="0.5"/><line x1="2208" y1="0" x2="1082.2" y2="650" stroke="#1E293B" stroke-width="1" opacity="0.5"/><line x1="2254" y1="0" x2="3379.8" y2="650" stroke="#1E293B" stroke-width="1" opacity="0.5"/><line x1="2254" y1="0" x2="1128.2" y2="650" stroke="#1E293B" stroke-width="1" opacity="0.5"/><line x1="2300" y1="0" x2="3425.8" y2="650" stroke="#1E293B" stroke-width="1" opacity="0.5"/><line x1="2300" y1="0" x2="1174.2" y2="650" stroke="#1E293B" stroke-width="1" opacity="0.5"/><line x1="2346" y1="0" x2="3471.8" y2="650" stroke="#1E293B" stroke-width="1" opacity="0.5"/><line x1="2346" y1="0" x2="1220.2" y2="650" stroke="#1E293B" stroke-width="1" opacity="0.5"/><line x1="2392" y1="0" x2="3517.8" y2="650" stroke="#1E293B" stroke-width="1" opacity="0.5"/><line x1="2392" y1="0" x2="1266.2" y2="650" stroke="#1E293B" stroke-width="1" opacity="0.5"/><rect width="1280" height="650" fill="url(#glow0)"/><rect width="1280" height="200" fill="url(#headfade)"/></g><rect x="0.5" y="0.5" width="1279" height="649" rx="28" fill="none" stroke="#24304D"/><text x="64.0" y="78.0" text-anchor="start" font-family="-apple-system, BlinkMacSystemFont, 'Segoe UI', Roboto, Helvetica, Arial, sans-serif" font-size="30" font-weight="700" fill="#F8FAFC">LangGraph Orchestrator</text><text x="64.0" y="110.0" text-anchor="start" font-family="-apple-system, BlinkMacSystemFont, 'Segoe UI', Roboto, Helvetica, Arial, sans-serif" font-size="15.5" font-weight="400" fill="#94A3B8">Sync path POST /chat — router chọn nhánh, mọi chỉnh sửa văn bản đi qua integrity_node</text><rect x="1049.6" y="58" width="166.4" height="28" rx="14" fill="#111A30" stroke="#2A3656"/><circle cx="1063.6" cy="72" r="4" fill="#A78BFA"/><text x="1073.6" y="76.5" text-anchor="start" font-family="-apple-system, BlinkMacSystemFont, 'Segoe UI', Roboto, Helvetica, Arial, sans-serif" font-size="12.5" font-weight="400" fill="#CBD5E1">src/agents/graph.py</text><path d="M 106 367 H 177" fill="none" stroke="#334155" stroke-width="2"/><path class="flow" d="M 106 367 H 177" fill="none" stroke="#94A3B8" stroke-opacity="0.9" stroke-width="2" marker-end="url(#arrow)"/><path d="M 248 367.0 H 322" fill="none" stroke="#334155" stroke-width="2"/><path class="flow" d="M 248 367.0 H 322" fill="none" stroke="#94A3B8" stroke-opacity="0.9" stroke-width="2" marker-end="url(#arrow)"/><path d="M 393 367.0 H 470" fill="none" stroke="#334155" stroke-width="2"/><path class="flow" d="M 393 367.0 H 470" fill="none" stroke="#94A3B8" stroke-opacity="0.9" stroke-width="2"/><path d="M 470 183.0 V 551.0" fill="none" stroke="#334155" stroke-width="2"/><path class="flow" d="M 470 183.0 V 551.0" fill="none" stroke="#94A3B8" stroke-opacity="0.9" stroke-width="2"/><path d="M 470 183.0 H 602" fill="none" stroke="#334155" stroke-width="2"/><path class="flow" d="M 470 183.0 H 602" fill="none" stroke="#94A3B8" stroke-opacity="0.9" stroke-width="2" marker-end="url(#arrow)"/><text x="480.0" y="174.0" text-anchor="start" font-family="ui-monospace, SFMono-Regular, 'Cascadia Code', Consolas, Menlo, monospace" font-size="11.5" font-weight="400" fill="#64748B">style</text><path d="M 470 275.0 H 602" fill="none" stroke="#334155" stroke-width="2"/><path class="flow" d="M 470 275.0 H 602" fill="none" stroke="#94A3B8" stroke-opacity="0.9" stroke-width="2" marker-end="url(#arrow)"/><text x="480.0" y="266.0" text-anchor="start" font-family="ui-monospace, SFMono-Regular, 'Cascadia Code', Consolas, Menlo, monospace" font-size="11.5" font-weight="400" fill="#64748B">edit</text><path d="M 470 367.0 H 602" fill="none" stroke="#334155" stroke-width="2"/><path class="flow" d="M 470 367.0 H 602" fill="none" stroke="#94A3B8" stroke-opacity="0.9" stroke-width="2" marker-end="url(#arrow)"/><text x="480.0" y="358.0" text-anchor="start" font-family="ui-monospace, SFMono-Regular, 'Cascadia Code', Consolas, Menlo, monospace" font-size="11.5" font-weight="400" fill="#64748B">structure · logic</text><path d="M 470 459.0 H 602" fill="none" stroke="#334155" stroke-width="2"/><path class="flow" d="M 470 459.0 H 602" fill="none" stroke="#94A3B8" stroke-opacity="0.9" stroke-width="2" marker-end="url(#arrow)"/><text x="480.0" y="450.0" text-anchor="start" font-family="ui-monospace, SFMono-Regular, 'Cascadia Code', Consolas, Menlo, monospace" font-size="11.5" font-weight="400" fill="#64748B">citation</text><path d="M 470 551.0 H 602" fill="none" stroke="#334155" stroke-width="2"/><path class="flow" d="M 470 551.0 H 602" fill="none" stroke="#94A3B8" stroke-opacity="0.9" stroke-width="2" marker-end="url(#arrow)"/><text x="480.0" y="542.0" text-anchor="start" font-family="ui-monospace, SFMono-Regular, 'Cascadia Code', Consolas, Menlo, monospace" font-size="11.5" font-weight="400" fill="#64748B">chat</text><path d="M 673 183.0 H 760 V 229.0 H 812" fill="none" stroke="#334155" stroke-width="2"/><path class="flow" d="M 673 183.0 H 760 V 229.0 H 812" fill="none" stroke="#94A3B8" stroke-opacity="0.9" stroke-width="2" marker-end="url(#arrow)"/><path d="M 673 275.0 H 760 V 229.0 H 812" fill="none" stroke="#334155" stroke-width="2"/><path class="flow" d="M 673 275.0 H 760 V 229.0 H 812" fill="none" stroke="#94A3B8" stroke-opacity="0.9" stroke-width="2" marker-end="url(#arrow)"/><path d="M 883 229.0 H 950 V 361.0 H 1012" fill="none" stroke="#334155" stroke-width="2"/><path class="flow" d="M 883 229.0 H 950 V 361.0 H 1012" fill="none" stroke="#94A3B8" stroke-opacity="0.9" stroke-width="2" marker-end="url(#arrow)"/><path d="M 673 367.0 H 950 V 373.0 H 1012" fill="none" stroke="#334155" stroke-width="2"/><path class="flow" d="M 673 367.0 H 950 V 373.0 H 1012" fill="none" stroke="#94A3B8" stroke-opacity="0.9" stroke-width="2" marker-end="url(#arrow)"/><path d="M 673 459.0 H 950 V 373.0 H 1012" fill="none" stroke="#334155" stroke-width="2"/><path class="flow" d="M 673 459.0 H 950 V 373.0 H 1012" fill="none" stroke="#94A3B8" stroke-opacity="0.9" stroke-width="2" marker-end="url(#arrow)"/><path d="M 673 551.0 H 950 V 373.0 H 1012" fill="none" stroke="#334155" stroke-width="2"/><path class="flow" d="M 673 551.0 H 950 V 373.0 H 1012" fill="none" stroke="#94A3B8" stroke-opacity="0.9" stroke-width="2" marker-end="url(#arrow)"/><path d="M 1083 367.0 H 1166" fill="none" stroke="#334155" stroke-width="2"/><path class="flow" d="M 1083 367.0 H 1166" fill="none" stroke="#94A3B8" stroke-opacity="0.9" stroke-width="2" marker-end="url(#arrow)"/><circle r="4.5" fill="#E9D5FF" filter="url(#dotglow)" opacity="0"><animateMotion dur="7.5s" begin="0.0s" repeatCount="indefinite" path="M 104 367 H 470 V 183.0 H 760 V 229.0 H 950 V 367.0 H 1176"/><animate attributeName="opacity" values="0;1;1;0" keyTimes="0;0.05;0.92;1" dur="7.5s" begin="0.0s" repeatCount="indefinite"/></circle><circle r="4.5" fill="#DDD6FE" filter="url(#dotglow)" opacity="0"><animateMotion dur="7.5s" begin="1.5s" repeatCount="indefinite" path="M 104 367 H 470 V 275.0 H 760 V 229.0 H 950 V 367.0 H 1176"/><animate attributeName="opacity" values="0;1;1;0" keyTimes="0;0.05;0.92;1" dur="7.5s" begin="1.5s" repeatCount="indefinite"/></circle><circle r="4.5" fill="#C4B5FD" filter="url(#dotglow)" opacity="0"><animateMotion dur="7.5s" begin="3.0s" repeatCount="indefinite" path="M 104 367 H 470 V 367.0 H 950 V 367.0 H 1176"/><animate attributeName="opacity" values="0;1;1;0" keyTimes="0;0.05;0.92;1" dur="7.5s" begin="3.0s" repeatCount="indefinite"/></circle><circle r="4.5" fill="#BAE6FD" filter="url(#dotglow)" opacity="0"><animateMotion dur="7.5s" begin="4.5s" repeatCount="indefinite" path="M 104 367 H 470 V 459.0 H 950 V 367.0 H 1176"/><animate attributeName="opacity" values="0;1;1;0" keyTimes="0;0.05;0.92;1" dur="7.5s" begin="4.5s" repeatCount="indefinite"/></circle><circle r="4.5" fill="#BFDBFE" filter="url(#dotglow)" opacity="0"><animateMotion dur="7.5s" begin="6.0s" repeatCount="indefinite" path="M 104 367 H 470 V 551.0 H 950 V 367.0 H 1176"/><animate attributeName="opacity" values="0;1;1;0" keyTimes="0;0.05;0.92;1" dur="7.5s" begin="6.0s" repeatCount="indefinite"/></circle><circle cx="80" cy="367" r="24" fill="#0F172A" stroke="#34D399" stroke-width="2"/><circle class="pulse" cx="80" cy="367" r="24" fill="none" stroke="#34D399" stroke-width="2"/><circle cx="1200" cy="367" r="24" fill="#0F172A" stroke="#34D399" stroke-width="2"/><circle class="pulse" cx="1200" cy="367" r="24" fill="none" stroke="#34D399" stroke-width="2"/><ellipse cx="215" cy="395.2" rx="26.6" ry="8.4" fill="#000" opacity="0.45" filter="url(#soft)"/><g class="float" style="animation-delay:-0.00s"><polygon points="187.0,359.0 215.0,375.2 215.0,391.2 187.0,375.0" fill="#9b7616"/><polygon points="215.0,375.2 243.0,359.0 243.0,375.0 215.0,391.2" fill="#69500f"/><polygon points="215.0,342.8 243.0,359.0 215.0,375.2 187.0,359.0" fill="url(#g0)"/><polyline points="187.0,359.0 215.0,375.2 243.0,359.0" fill="none" stroke="#fff" stroke-opacity="0.35" stroke-width="1.1"/><polygon points="215.0,342.8 243.0,359.0 215.0,375.2 187.0,359.0" fill="none" stroke="#fff" stroke-opacity="0.22"/><g transform="matrix(0.866 0.500 -0.866 0.500 215 359)"><text x="0" y="5.0" text-anchor="middle" font-family="ui-monospace, SFMono-Regular, 'Cascadia Code', Consolas, Menlo, monospace" font-size="14" font-weight="800" fill="#0B1222" fill-opacity="0.75">IR</text></g></g><ellipse cx="360" cy="395.2" rx="26.6" ry="8.4" fill="#000" opacity="0.45" filter="url(#soft)"/><g class="float" style="animation-delay:-0.37s"><polygon points="332.0,359.0 360.0,375.2 360.0,391.2 332.0,375.0" fill="#9b7616"/><polygon points="360.0,375.2 388.0,359.0 388.0,375.0 360.0,391.2" fill="#69500f"/><polygon points="360.0,342.8 388.0,359.0 360.0,375.2 332.0,359.0" fill="url(#g0)"/><polyline points="332.0,359.0 360.0,375.2 388.0,359.0" fill="none" stroke="#fff" stroke-opacity="0.35" stroke-width="1.1"/><polygon points="360.0,342.8 388.0,359.0 360.0,375.2 332.0,359.0" fill="none" stroke="#fff" stroke-opacity="0.22"/><g transform="matrix(0.866 0.500 -0.866 0.500 360 359)"><text x="0" y="4.5" text-anchor="middle" font-family="ui-monospace, SFMono-Regular, 'Cascadia Code', Consolas, Menlo, monospace" font-size="12.5" font-weight="800" fill="#0B1222" fill-opacity="0.75">TEX</text></g></g><ellipse cx="640" cy="211.2" rx="26.6" ry="8.4" fill="#000" opacity="0.45" filter="url(#soft)"/><g class="float" style="animation-delay:-0.74s"><polygon points="612.0,175.0 640.0,191.2 640.0,207.2 612.0,191.0" fill="#67569b"/><polygon points="640.0,191.2 668.0,175.0 668.0,191.0 640.0,207.2" fill="#463a69"/><polygon points="640.0,158.8 668.0,175.0 640.0,191.2 612.0,175.0" fill="url(#g1)"/><polyline points="612.0,175.0 640.0,191.2 668.0,175.0" fill="none" stroke="#fff" stroke-opacity="0.35" stroke-width="1.1"/><polygon points="640.0,158.8 668.0,175.0 640.0,191.2 612.0,175.0" fill="none" stroke="#fff" stroke-opacity="0.22"/><g transform="matrix(0.866 0.500 -0.866 0.500 640 175)"><text x="0" y="4.5" text-anchor="middle" font-family="ui-monospace, SFMono-Regular, 'Cascadia Code', Consolas, Menlo, monospace" font-size="12.5" font-weight="800" fill="#0B1222" fill-opacity="0.75">STY</text></g></g><ellipse cx="640" cy="303.2" rx="26.6" ry="8.4" fill="#000" opacity="0.45" filter="url(#soft)"/><g class="float" style="animation-delay:-1.11s"><polygon points="612.0,267.0 640.0,283.2 640.0,299.2 612.0,283.0" fill="#67569b"/><polygon points="640.0,283.2 668.0,267.0 668.0,283.0 640.0,299.2" fill="#463a69"/><polygon points="640.0,250.8 668.0,267.0 640.0,283.2 612.0,267.0" fill="url(#g1)"/><polyline points="612.0,267.0 640.0,283.2 668.0,267.0" fill="none" stroke="#fff" stroke-opacity="0.35" stroke-width="1.1"/><polygon points="640.0,250.8 668.0,267.0 640.0,283.2 612.0,267.0" fill="none" stroke="#fff" stroke-opacity="0.22"/><g transform="matrix(0.866 0.500 -0.866 0.500 640 267)"><text x="0" y="4.5" text-anchor="middle" font-family="ui-monospace, SFMono-Regular, 'Cascadia Code', Consolas, Menlo, monospace" font-size="12.5" font-weight="800" fill="#0B1222" fill-opacity="0.75">EDT</text></g></g><ellipse cx="640" cy="395.2" rx="26.6" ry="8.4" fill="#000" opacity="0.45" filter="url(#soft)"/><g class="float" style="animation-delay:-1.48s"><polygon points="612.0,359.0 640.0,375.2 640.0,391.2 612.0,375.0" fill="#67569b"/><polygon points="640.0,375.2 668.0,359.0 668.0,375.0 640.0,391.2" fill="#463a69"/><polygon points="640.0,342.8 668.0,359.0 640.0,375.2 612.0,359.0" fill="url(#g1)"/><polyline points="612.0,359.0 640.0,375.2 668.0,359.0" fill="none" stroke="#fff" stroke-opacity="0.35" stroke-width="1.1"/><polygon points="640.0,342.8 668.0,359.0 640.0,375.2 612.0,359.0" fill="none" stroke="#fff" stroke-opacity="0.22"/><g transform="matrix(0.866 0.500 -0.866 0.500 640 359)"><text x="0" y="4.5" text-anchor="middle" font-family="ui-monospace, SFMono-Regular, 'Cascadia Code', Consolas, Menlo, monospace" font-size="12.5" font-weight="800" fill="#0B1222" fill-opacity="0.75">STR</text></g></g><ellipse cx="640" cy="487.2" rx="26.6" ry="8.4" fill="#000" opacity="0.45" filter="url(#soft)"/><g class="float" style="animation-delay:-1.85s"><polygon points="612.0,451.0 640.0,467.2 640.0,483.2 612.0,467.0" fill="#227599"/><polygon points="640.0,467.2 668.0,451.0 668.0,467.0 640.0,483.2" fill="#174f68"/><polygon points="640.0,434.8 668.0,451.0 640.0,467.2 612.0,451.0" fill="url(#g2)"/><polyline points="612.0,451.0 640.0,467.2 668.0,451.0" fill="none" stroke="#fff" stroke-opacity="0.35" stroke-width="1.1"/><polygon points="640.0,434.8 668.0,451.0 640.0,467.2 612.0,451.0" fill="none" stroke="#fff" stroke-opacity="0.22"/><g transform="matrix(0.866 0.500 -0.866 0.500 640 451)"><text x="0" y="4.5" text-anchor="middle" font-family="ui-monospace, SFMono-Regular, 'Cascadia Code', Consolas, Menlo, monospace" font-size="12.5" font-weight="800" fill="#0B1222" fill-opacity="0.75">REF</text></g></g><ellipse cx="640" cy="579.2" rx="26.6" ry="8.4" fill="#000" opacity="0.45" filter="url(#soft)"/><g class="float" style="animation-delay:-2.22s"><polygon points="612.0,543.0 640.0,559.2 640.0,575.2 612.0,559.0" fill="#3b669b"/><polygon points="640.0,559.2 668.0,543.0 668.0,559.0 640.0,575.2" fill="#284569"/><polygon points="640.0,526.8 668.0,543.0 640.0,559.2 612.0,543.0" fill="url(#g3)"/><polyline points="612.0,543.0 640.0,559.2 668.0,543.0" fill="none" stroke="#fff" stroke-opacity="0.35" stroke-width="1.1"/><polygon points="640.0,526.8 668.0,543.0 640.0,559.2 612.0,543.0" fill="none" stroke="#fff" stroke-opacity="0.22"/><g transform="matrix(0.866 0.500 -0.866 0.500 640 543)"><text x="0" y="4.5" text-anchor="middle" font-family="ui-monospace, SFMono-Regular, 'Cascadia Code', Consolas, Menlo, monospace" font-size="12.5" font-weight="800" fill="#0B1222" fill-opacity="0.75">MSG</text></g></g><ellipse cx="850" cy="257.2" rx="26.6" ry="8.4" fill="#000" opacity="0.45" filter="url(#soft)"/><g class="float" style="animation-delay:-2.59s"><polygon points="822.0,221.0 850.0,237.2 850.0,253.2 822.0,237.0" fill="#994646"/><polygon points="850.0,237.2 878.0,221.0 878.0,237.0 850.0,253.2" fill="#682f2f"/><polygon points="850.0,204.8 878.0,221.0 850.0,237.2 822.0,221.0" fill="url(#g4)"/><polyline points="822.0,221.0 850.0,237.2 878.0,221.0" fill="none" stroke="#fff" stroke-opacity="0.35" stroke-width="1.1"/><polygon points="850.0,204.8 878.0,221.0 850.0,237.2 822.0,221.0" fill="none" stroke="#fff" stroke-opacity="0.22"/><g transform="matrix(0.866 0.500 -0.866 0.500 850 221.0)"><text x="0" y="5.0" text-anchor="middle" font-family="ui-monospace, SFMono-Regular, 'Cascadia Code', Consolas, Menlo, monospace" font-size="14" font-weight="800" fill="#0B1222" fill-opacity="0.75">L2</text></g></g><ellipse cx="1050" cy="395.2" rx="26.6" ry="8.4" fill="#000" opacity="0.45" filter="url(#soft)"/><g class="float" style="animation-delay:-2.96s"><polygon points="1022.0,359.0 1050.0,375.2 1050.0,391.2 1022.0,375.0" fill="#20825e"/><polygon points="1050.0,375.2 1078.0,359.0 1078.0,375.0 1050.0,391.2" fill="#155840"/><polygon points="1050.0,342.8 1078.0,359.0 1050.0,375.2 1022.0,359.0" fill="url(#g5)"/><polyline points="1022.0,359.0 1050.0,375.2 1078.0,359.0" fill="none" stroke="#fff" stroke-opacity="0.35" stroke-width="1.1"/><polygon points="1050.0,342.8 1078.0,359.0 1050.0,375.2 1022.0,359.0" fill="none" stroke="#fff" stroke-opacity="0.22"/><g transform="matrix(0.866 0.500 -0.866 0.500 1050 359)"><text x="0" y="4.5" text-anchor="middle" font-family="ui-monospace, SFMono-Regular, 'Cascadia Code', Consolas, Menlo, monospace" font-size="12.5" font-weight="800" fill="#0B1222" fill-opacity="0.75">OUT</text></g></g><text x="80.0" y="371.5" text-anchor="middle" font-family="ui-monospace, SFMono-Regular, 'Cascadia Code', Consolas, Menlo, monospace" font-size="11.5" font-weight="700" fill="#34D399">START</text><text x="1200.0" y="371.5" text-anchor="middle" font-family="ui-monospace, SFMono-Regular, 'Cascadia Code', Consolas, Menlo, monospace" font-size="11.5" font-weight="700" fill="#34D399">END</text><text x="215.0" y="413.2" text-anchor="middle" font-family="-apple-system, BlinkMacSystemFont, 'Segoe UI', Roboto, Helvetica, Arial, sans-serif" font-size="13.5" font-weight="650" fill="#F1F5F9">route_node</text><text x="215.0" y="429.2" text-anchor="middle" font-family="-apple-system, BlinkMacSystemFont, 'Segoe UI', Roboto, Helvetica, Arial, sans-serif" font-size="11.5" font-weight="400" fill="#94A3B8">intent</text><text x="360.0" y="413.2" text-anchor="middle" font-family="-apple-system, BlinkMacSystemFont, 'Segoe UI', Roboto, Helvetica, Arial, sans-serif" font-size="13.5" font-weight="650" fill="#F1F5F9">parse_node</text><text x="360.0" y="429.2" text-anchor="middle" font-family="-apple-system, BlinkMacSystemFont, 'Segoe UI', Roboto, Helvetica, Arial, sans-serif" font-size="11.5" font-weight="400" fill="#94A3B8">sections</text><text x="640.0" y="229.2" text-anchor="middle" font-family="-apple-system, BlinkMacSystemFont, 'Segoe UI', Roboto, Helvetica, Arial, sans-serif" font-size="13.5" font-weight="650" fill="#F1F5F9">style_node</text><text x="640.0" y="321.2" text-anchor="middle" font-family="-apple-system, BlinkMacSystemFont, 'Segoe UI', Roboto, Helvetica, Arial, sans-serif" font-size="13.5" font-weight="650" fill="#F1F5F9">edit_node</text><text x="640.0" y="413.2" text-anchor="middle" font-family="-apple-system, BlinkMacSystemFont, 'Segoe UI', Roboto, Helvetica, Arial, sans-serif" font-size="13.5" font-weight="650" fill="#F1F5F9">structure / logic</text><text x="640.0" y="505.2" text-anchor="middle" font-family="-apple-system, BlinkMacSystemFont, 'Segoe UI', Roboto, Helvetica, Arial, sans-serif" font-size="13.5" font-weight="650" fill="#F1F5F9">citation_node</text><text x="640.0" y="597.2" text-anchor="middle" font-family="-apple-system, BlinkMacSystemFont, 'Segoe UI', Roboto, Helvetica, Arial, sans-serif" font-size="13.5" font-weight="650" fill="#F1F5F9">chat_node</text><text x="850.0" y="275.2" text-anchor="middle" font-family="-apple-system, BlinkMacSystemFont, 'Segoe UI', Roboto, Helvetica, Arial, sans-serif" font-size="13.5" font-weight="650" fill="#F1F5F9">integrity_node</text><text x="850.0" y="291.2" text-anchor="middle" font-family="-apple-system, BlinkMacSystemFont, 'Segoe UI', Roboto, Helvetica, Arial, sans-serif" font-size="11.5" font-weight="400" fill="#94A3B8">guardrail L2</text><text x="1050.0" y="413.2" text-anchor="middle" font-family="-apple-system, BlinkMacSystemFont, 'Segoe UI', Roboto, Helvetica, Arial, sans-serif" font-size="13.5" font-weight="650" fill="#F1F5F9">respond_node</text><text x="1050.0" y="429.2" text-anchor="middle" font-family="-apple-system, BlinkMacSystemFont, 'Segoe UI', Roboto, Helvetica, Arial, sans-serif" font-size="11.5" font-weight="400" fill="#94A3B8">SSE / JSON</text></svg>
