<svg xmlns="http://www.w3.org/2000/svg" viewBox="0 0 1040 650" width="1040" height="650" role="img" aria-label="Paper &amp; Session Persistence. Ba lớp lưu trữ có chủ đích — UI phản hồi tức thì, PostgreSQL là nguồn sự thật"><title>Paper &amp; Session Persistence. Ba lớp lưu trữ có chủ đích — UI phản hồi tức thì, PostgreSQL là nguồn sự thật</title><style>:root{--pp:#F7F6F2;--ik:#0A0A0A;--rd:#C9000C;--mu:#555555;--tp:#FEFDFB;--fl:#E2E1DF;--fr:#C9C7C1;--on:#F7F6F2}.d{font-family:'Playfair Display', Georgia, 'Times New Roman', serif}.dv{font-family:'Playfair Display', 'Noto Serif Display', 'Noto Serif', 'Times New Roman', Times, serif}.s{font-family:'Source Serif 4', 'Source Serif Pro', Georgia, 'Times New Roman', serif}.sv{font-family:'Source Serif 4', 'Noto Serif', 'Times New Roman', Times, serif}.m{font-family:'JetBrains Mono', ui-monospace, 'Cascadia Mono', Consolas, Menlo, monospace}.u{font-family:Inter, 'Helvetica Neue', Arial, sans-serif}.k{letter-spacing:.12em}.i{fill:var(--ik)}.p{fill:var(--pp)}.r{fill:var(--rd)}.q{fill:var(--mu)}.t{fill:var(--tp)}.L{fill:var(--fl)}.R{fill:var(--fr)}.o{fill:var(--on)}.e{stroke:var(--ik);stroke-width:1.3;stroke-linejoin:round}.h{paint-order:stroke;stroke:var(--pp);stroke-width:5px;stroke-linejoin:round}.ln{fill:none;stroke:var(--ik)}.sh{fill:var(--ik);fill-opacity:.18}.tk{fill:none;stroke:var(--ik);stroke-opacity:.42;stroke-width:1.3}.dt{fill:none;stroke:var(--ik);stroke-opacity:.6;stroke-width:1.3;stroke-dasharray:2 5;stroke-linecap:round}.fw{fill:none;stroke:var(--rd);stroke-width:2;stroke-dasharray:6 10;animation:fw 1.4s linear infinite}@keyframes fw{to{stroke-dashoffset:-32}}.pl{fill:none;stroke:var(--rd);stroke-width:1.6;transform-box:fill-box;transform-origin:center;animation:pl 2.8s ease-out infinite}@keyframes pl{0%{opacity:.9;transform:scale(1)}100%{opacity:0;transform:scale(1.35)}}@media (prefers-reduced-motion:reduce){.fw,.pl{animation:none}.pl{opacity:.5}.pk{display:none}}</style><defs><pattern id="dots" width="4" height="4" patternUnits="userSpaceOnUse"><path d="M1 3h1v1H1zM3 1h1v1H3z" class="i" fill-opacity=".05"/></pattern><pattern id="hatch" width="4" height="4" patternUnits="userSpaceOnUse"><path d="M1 0V4" class="ln" stroke-width=".8" stroke-opacity=".26"/></pattern><marker id="ah" viewBox="0 0 10 10" refX="9" refY="5" markerWidth="9" markerHeight="9" markerUnits="userSpaceOnUse" orient="auto-start-reverse"><path d="M0,1 L10,5 L0,9 z" class="i"/></marker></defs><rect width="1040" height="650" class="p"/><rect width="1040" height="650" fill="url(#dots)"/><rect x=".75" y=".75" width="1038.5" height="648.5" class="ln" stroke-width="1.5"/><text x="40.0" y="38.0" class="m k i" font-size="14" font-weight="700">ARIONEAR · BACKEND DESK</text><text x="1000.0" y="38.0" class="m k r" font-size="14" text-anchor="end" font-weight="700">FIG. 2.5</text><path d="M 40.0 50.0 L 1000.0 50.0" class="ln" stroke-width="1.0"/><rect x="40.0" y="66.0" width="88.6" height="26" class="r"/><text x="50.0" y="84.0" class="m k o" font-size="14" font-weight="700">STORAGE</text><text x="142.6" y="84.0" class="m q" font-size="14">project-store.ts · sessions.py · paper_repository.py</text><text x="40.0" y="140.0" class="d i" font-size="42" font-weight="700">Paper &amp; Session Persistence</text><text x="40.0" y="172.0" class="sv q" font-size="18" font-style="italic">Ba lớp lưu trữ có chủ đích — UI phản hồi tức thì, PostgreSQL là nguồn sự thật</text><rect x="40" y="188" width="960" height="3" class="i"/><path d="M 40.0 196.0 L 1000.0 196.0" class="ln" stroke-width="1.0"/><rect x="0" y="610" width="1040" height="40" class="i"/><text x="40.0" y="635.0" class="m k o" font-size="14" font-weight="700">COALESCED SAVES</text><path d="M 203.2 624 l 6 6 l -6 6 l -6 -6 z" class="r"/><text x="221.2" y="635.0" class="m k o" font-size="14" font-weight="700">BEST-EFFORT SYNC</text><path d="M 394.5 624 l 6 6 l -6 6 l -6 -6 z" class="r"/><text x="412.5" y="635.0" class="m k o" font-size="14" font-weight="700">POSTGRESQL = SOURCE OF TRUTH</text><path d="M 234 304.0 H 764" class="tk" marker-end="url(#ah)"/><path d="M 234 304.0 H 764" class="fw"/><path d="M 170 422.33161507461904 V 484.0 H 434" class="tk" marker-end="url(#ah)"/><path d="M 170 422.33161507461904 V 484.0 H 434" class="fw"/><path d="M 564 484.0 H 978 V 304.0 H 896" class="dt" marker-end="url(#ah)"/><g class="b"><polygon points="114.0,290.0 170.0,257.7 226.0,290.0 226.0,318.0 170.0,350.3 114.0,318.0" class="sh" transform="translate(4 4)"/><polygon points="114.0,290.0 170.0,322.3 170.0,350.3 114.0,318.0" class="L e"/><polygon points="170.0,322.3 226.0,290.0 226.0,318.0 170.0,350.3" class="R e"/><polygon points="170.0,322.3 226.0,290.0 226.0,318.0 170.0,350.3" fill="url(#hatch)"/><polygon points="170.0,257.7 226.0,290.0 170.0,322.3 114.0,290.0" class="t e"/><g transform="matrix(.866 .5 -.866 .5 170.0 290.0)"><text x="0" y="5.0" text-anchor="middle" class="m i" font-size="14.0" font-weight="700" fill-opacity="0.8">LS</text></g></g><g class="b"><polygon points="774.0,290.0 830.0,257.7 886.0,290.0 886.0,318.0 830.0,350.3 774.0,318.0" class="sh" transform="translate(4 4)"/><polygon points="774.0,290.0 830.0,322.3 830.0,350.3 774.0,318.0" class="L e"/><polygon points="830.0,322.3 886.0,290.0 886.0,318.0 830.0,350.3" class="R e"/><polygon points="830.0,322.3 886.0,290.0 886.0,318.0 830.0,350.3" fill="url(#hatch)"/><polygon points="830.0,257.7 886.0,290.0 830.0,322.3 774.0,290.0" class="r e"/><g transform="matrix(.866 .5 -.866 .5 830.0 290.0)"><text x="0" y="5.0" text-anchor="middle" class="m o" font-size="14.0" font-weight="700" fill-opacity="0.8">PG</text></g></g><g class="b"><polygon points="444.0,470.0 500.0,437.7 556.0,470.0 556.0,498.0 500.0,530.3 444.0,498.0" class="sh" transform="translate(4 4)"/><polygon points="444.0,470.0 500.0,502.3 500.0,530.3 444.0,498.0" class="L e"/><polygon points="500.0,502.3 556.0,470.0 556.0,498.0 500.0,530.3" class="R e"/><polygon points="500.0,502.3 556.0,470.0 556.0,498.0 500.0,530.3" fill="url(#hatch)"/><polygon points="500.0,437.7 556.0,470.0 500.0,502.3 444.0,470.0" class="t e"/><g transform="matrix(.866 .5 -.866 .5 500.0 470.0)"><text x="0" y="5.0" text-anchor="middle" class="m i" font-size="14.0" font-weight="700" fill-opacity="0.8">MEM</text></g></g><g class="pk" opacity="0"><path d="M0,-5.5 L5.5,0 L0,5.5 L-5.5,0z" class="r"/><animateMotion dur="4.5s" begin="0.0s" repeatCount="indefinite" path="M 170 304.0 H 830"/><animate attributeName="opacity" values="0;1;1;0" keyTimes="0;0.06;0.92;1" dur="4.5s" begin="0.0s" repeatCount="indefinite"/></g><g class="pk" opacity="0"><path d="M0,-5.5 L5.5,0 L0,5.5 L-5.5,0z" class="r"/><animateMotion dur="4.5s" begin="1.6s" repeatCount="indefinite" path="M 170 410.33161507461904 V 484.0 H 500"/><animate attributeName="opacity" values="0;1;1;0" keyTimes="0;0.06;0.92;1" dur="4.5s" begin="1.6s" repeatCount="indefinite"/></g><text x="170.0" y="376.3" class="s i" font-size="18" text-anchor="middle" font-weight="700">Frontend cache</text><text x="170.0" y="395.3" class="u q" font-size="14" text-anchor="middle">localStorage · project-store</text><text x="830.0" y="376.3" class="s i" font-size="18" text-anchor="middle" font-weight="700">PostgreSQL</text><text x="830.0" y="395.3" class="u q" font-size="14" text-anchor="middle">papers · users · suggestions</text><text x="830.0" y="413.3" class="u q" font-size="14" text-anchor="middle">ai_sessions · usage</text><text x="500.0" y="556.3" class="s i" font-size="18" text-anchor="middle" font-weight="700">Session store</text><text x="500.0" y="575.3" class="u q" font-size="14" text-anchor="middle">revisions · citations</text><text x="500.0" y="593.3" class="u q" font-size="14" text-anchor="middle">in-memory khi chưa có DB</text><text x="500.0" y="293.0" class="m q h" font-size="14" text-anchor="middle">PATCH /papers — coalesced</text><text x="182.0" y="473.0" class="m q h" font-size="14">best-effort sync</text><text x="767.0" y="473.0" class="u q h" font-size="14" text-anchor="middle">DatabaseSessionStore khi DB sẵn sàng</text></svg>
