<svg xmlns="http://www.w3.org/2000/svg" viewBox="0 0 1040 830" width="1040" height="830" role="img" aria-label="Tech stack. Mỗi tầng dùng công cụ đã được kiểm chứng — không tự xây lại thứ đã có sẵn"><title>Tech stack. Mỗi tầng dùng công cụ đã được kiểm chứng — không tự xây lại thứ đã có sẵn</title><style>:root{--pp:#F7F6F2;--ik:#0A0A0A;--ac:#1A57AD;--mu:#555555;--tp:#FEFDFB;--fl:#E2E1DF;--fr:#C9C7C1;--on:#F7F6F2}.d{font-family:'Fraunces', Georgia, 'Times New Roman', serif}.dv{font-family:'Fraunces', 'Noto Serif Display', 'Noto Serif', 'Times New Roman', Times, serif}.s{font-family:'Source Serif 4', 'Source Serif Pro', Georgia, 'Times New Roman', serif}.sv{font-family:'Source Serif 4', 'Noto Serif', 'Times New Roman', Times, serif}.m{font-family:'JetBrains Mono', ui-monospace, 'Cascadia Mono', Consolas, Menlo, monospace}.u{font-family:Inter, 'Helvetica Neue', Arial, sans-serif}.k{letter-spacing:.12em}.i{fill:var(--ik)}.p{fill:var(--pp)}.r{fill:var(--ac)}.q{fill:var(--mu)}.t{fill:var(--tp)}.L{fill:var(--fl)}.R{fill:var(--fr)}.o{fill:var(--on)}.e{stroke:var(--ik);stroke-width:1.3;stroke-linejoin:round}.h{paint-order:stroke;stroke:var(--pp);stroke-width:5px;stroke-linejoin:round}.ln{fill:none;stroke:var(--ik)}.sh{fill:var(--ik);fill-opacity:.18}.tk{fill:none;stroke:var(--ik);stroke-opacity:.42;stroke-width:1.3}.dt{fill:none;stroke:var(--ik);stroke-opacity:.6;stroke-width:1.3;stroke-dasharray:2 5;stroke-linecap:round}.fw{fill:none;stroke:var(--ac);stroke-width:2;stroke-dasharray:6 10;animation:fw 1.4s linear infinite}@keyframes fw{to{stroke-dashoffset:-32}}.pl{fill:none;stroke:var(--ac);stroke-width:1.6;transform-box:fill-box;transform-origin:center;animation:pl 2.8s ease-out infinite}@keyframes pl{0%{opacity:.9;transform:scale(1)}100%{opacity:0;transform:scale(1.35)}}@media (prefers-reduced-motion:reduce){.fw,.pl{animation:none}.pl{opacity:.5}.pk{display:none}}</style><defs><pattern id="dots" width="4" height="4" patternUnits="userSpaceOnUse"><path d="M1 3h1v1H1zM3 1h1v1H3z" class="i" fill-opacity=".05"/></pattern><pattern id="hatch" width="4" height="4" patternUnits="userSpaceOnUse"><path d="M1 0V4" class="ln" stroke-width=".8" stroke-opacity=".26"/></pattern><marker id="ah" viewBox="0 0 10 10" refX="9" refY="5" markerWidth="9" markerHeight="9" markerUnits="userSpaceOnUse" orient="auto-start-reverse"><path d="M0,1 L10,5 L0,9 z" class="i"/></marker></defs><rect width="1040" height="830" class="p"/><rect width="1040" height="830" fill="url(#dots)"/><rect x=".75" y=".75" width="1038.5" height="828.5" class="ln" stroke-width="1.5"/><text x="40.0" y="38.0" class="m k i" font-size="14" font-weight="700">EDICO · ENGINEERING DESK</text><text x="1000.0" y="38.0" class="m k r" font-size="14" text-anchor="end" font-weight="700">FIG. 1.0</text><path d="M 40.0 50.0 L 1000.0 50.0" class="ln" stroke-width="1.0"/><rect x="40.0" y="66.0" width="68.4" height="26" class="r"/><text x="50.0" y="84.0" class="m k o" font-size="14" font-weight="700">STACK</text><text x="122.4" y="84.0" class="m q" font-size="14">requirements.txt · frontend/package.json</text><text x="40.0" y="140.0" class="d i" font-size="42" font-weight="700">Tech stack</text><text x="40.0" y="172.0" class="sv q" font-size="18" font-style="italic">Mỗi tầng dùng công cụ đã được kiểm chứng — không tự xây lại thứ đã có sẵn</text><rect x="40" y="188" width="960" height="3" class="i"/><path d="M 40.0 196.0 L 1000.0 196.0" class="ln" stroke-width="1.0"/><rect x="0" y="790" width="1040" height="40" class="i"/><text x="40.0" y="815.0" class="m k o" font-size="14" font-weight="700">PYTHON 3.11+</text><path d="M 173.0 804 l 6 6 l -6 6 l -6 -6 z" class="r"/><text x="191.0" y="815.0" class="m k o" font-size="14" font-weight="700">NODE 22</text><path d="M 273.5 804 l 6 6 l -6 6 l -6 -6 z" class="r"/><text x="291.5" y="815.0" class="m k o" font-size="14" font-weight="700">POSTGRES 16</text><path d="M 414.4 804 l 6 6 l -6 6 l -6 -6 z" class="r"/><text x="432.4" y="815.0" class="m k o" font-size="14" font-weight="700">TEX LIVE</text><path d="M 525.0 804 l 6 6 l -6 6 l -6 -6 z" class="r"/><text x="543.0" y="815.0" class="m k o" font-size="14" font-weight="700">DOCKER</text><path d="M 232 268.0 H 280" class="dt"/><path d="M 232 344.0 H 280" class="dt"/><path d="M 232 420.0 H 280" class="dt"/><path d="M 232 496.0 H 280" class="dt"/><path d="M 232 572.0 H 280" class="dt"/><path d="M 232 648.0 H 280" class="dt"/><path d="M 232 724.0 H 280" class="dt"/><g class="b"><polygon points="116.0,718.0 170.0,686.8 224.0,718.0 224.0,730.0 170.0,761.2 116.0,730.0" class="sh" transform="translate(4 4)"/><polygon points="116.0,718.0 170.0,749.2 170.0,761.2 116.0,730.0" class="L e"/><polygon points="170.0,749.2 224.0,718.0 224.0,730.0 170.0,761.2" class="R e"/><polygon points="170.0,749.2 224.0,718.0 224.0,730.0 170.0,761.2" fill="url(#hatch)"/><polygon points="170.0,686.8 224.0,718.0 170.0,749.2 116.0,718.0" class="t e"/><g transform="matrix(.866 .5 -.866 .5 170.0 718.0)"><text x="0" y="5.0" text-anchor="middle" class="m i" font-size="14.0" font-weight="700" fill-opacity="0.8">OBS</text></g></g><g class="b"><polygon points="116.0,642.0 170.0,610.8 224.0,642.0 224.0,654.0 170.0,685.2 116.0,654.0" class="sh" transform="translate(4 4)"/><polygon points="116.0,642.0 170.0,673.2 170.0,685.2 116.0,654.0" class="L e"/><polygon points="170.0,673.2 224.0,642.0 224.0,654.0 170.0,685.2" class="R e"/><polygon points="170.0,673.2 224.0,642.0 224.0,654.0 170.0,685.2" fill="url(#hatch)"/><polygon points="170.0,610.8 224.0,642.0 170.0,673.2 116.0,642.0" class="t e"/><g transform="matrix(.866 .5 -.866 .5 170.0 642.0)"><text x="0" y="5.0" text-anchor="middle" class="m i" font-size="14.0" font-weight="700" fill-opacity="0.8">OPS</text></g></g><g class="b"><polygon points="116.0,566.0 170.0,534.8 224.0,566.0 224.0,578.0 170.0,609.2 116.0,578.0" class="sh" transform="translate(4 4)"/><polygon points="116.0,566.0 170.0,597.2 170.0,609.2 116.0,578.0" class="L e"/><polygon points="170.0,597.2 224.0,566.0 224.0,578.0 170.0,609.2" class="R e"/><polygon points="170.0,597.2 224.0,566.0 224.0,578.0 170.0,609.2" fill="url(#hatch)"/><polygon points="170.0,534.8 224.0,566.0 170.0,597.2 116.0,566.0" class="t e"/><g transform="matrix(.866 .5 -.866 .5 170.0 566.0)"><text x="0" y="5.0" text-anchor="middle" class="m i" font-size="14.0" font-weight="700" fill-opacity="0.8">DB</text></g></g><g class="b"><polygon points="116.0,490.0 170.0,458.8 224.0,490.0 224.0,502.0 170.0,533.2 116.0,502.0" class="sh" transform="translate(4 4)"/><polygon points="116.0,490.0 170.0,521.2 170.0,533.2 116.0,502.0" class="L e"/><polygon points="170.0,521.2 224.0,490.0 224.0,502.0 170.0,533.2" class="R e"/><polygon points="170.0,521.2 224.0,490.0 224.0,502.0 170.0,533.2" fill="url(#hatch)"/><polygon points="170.0,458.8 224.0,490.0 170.0,521.2 116.0,490.0" class="t e"/><g transform="matrix(.866 .5 -.866 .5 170.0 490.0)"><text x="0" y="5.0" text-anchor="middle" class="m i" font-size="14.0" font-weight="700" fill-opacity="0.8">TEX</text></g></g><g class="b"><polygon points="116.0,414.0 170.0,382.8 224.0,414.0 224.0,426.0 170.0,457.2 116.0,426.0" class="sh" transform="translate(4 4)"/><polygon points="116.0,414.0 170.0,445.2 170.0,457.2 116.0,426.0" class="L e"/><polygon points="170.0,445.2 224.0,414.0 224.0,426.0 170.0,457.2" class="R e"/><polygon points="170.0,445.2 224.0,414.0 224.0,426.0 170.0,457.2" fill="url(#hatch)"/><polygon points="170.0,382.8 224.0,414.0 170.0,445.2 116.0,414.0" class="r e"/><g transform="matrix(.866 .5 -.866 .5 170.0 414.0)"><text x="0" y="5.0" text-anchor="middle" class="m o" font-size="14.0" font-weight="700" fill-opacity="0.8">LLM</text></g></g><g class="b"><polygon points="116.0,338.0 170.0,306.8 224.0,338.0 224.0,350.0 170.0,381.2 116.0,350.0" class="sh" transform="translate(4 4)"/><polygon points="116.0,338.0 170.0,369.2 170.0,381.2 116.0,350.0" class="L e"/><polygon points="170.0,369.2 224.0,338.0 224.0,350.0 170.0,381.2" class="R e"/><polygon points="170.0,369.2 224.0,338.0 224.0,350.0 170.0,381.2" fill="url(#hatch)"/><polygon points="170.0,306.8 224.0,338.0 170.0,369.2 116.0,338.0" class="t e"/><g transform="matrix(.866 .5 -.866 .5 170.0 338.0)"><text x="0" y="5.0" text-anchor="middle" class="m i" font-size="14.0" font-weight="700" fill-opacity="0.8">API</text></g></g><g class="b"><polygon points="116.0,262.0 170.0,230.8 224.0,262.0 224.0,274.0 170.0,305.2 116.0,274.0" class="sh" transform="translate(4 4)"/><polygon points="116.0,262.0 170.0,293.2 170.0,305.2 116.0,274.0" class="L e"/><polygon points="170.0,293.2 224.0,262.0 224.0,274.0 170.0,305.2" class="R e"/><polygon points="170.0,293.2 224.0,262.0 224.0,274.0 170.0,305.2" fill="url(#hatch)"/><polygon points="170.0,230.8 224.0,262.0 170.0,293.2 116.0,262.0" class="t e"/><g transform="matrix(.866 .5 -.866 .5 170.0 262.0)"><text x="0" y="5.0" text-anchor="middle" class="m i" font-size="14.0" font-weight="700" fill-opacity="0.8">UI</text></g></g><rect x="293.0" y="267.0" width="130.4" height="28" class="sh"/><rect x="290.0" y="264.0" width="130.4" height="28" class="t e"/><rect x="433.4" y="267.0" width="84.8" height="28" class="sh"/><rect x="430.4" y="264.0" width="84.8" height="28" class="t e"/><rect x="528.2" y="267.0" width="92.4" height="28" class="sh"/><rect x="525.2" y="264.0" width="92.4" height="28" class="t e"/><rect x="630.6" y="267.0" width="138.0" height="28" class="sh"/><rect x="627.6" y="264.0" width="138.0" height="28" class="t e"/><rect x="778.6" y="267.0" width="54.4" height="28" class="sh"/><rect x="775.6" y="264.0" width="54.4" height="28" class="t e"/><rect x="843.0" y="267.0" width="69.6" height="28" class="sh"/><rect x="840.0" y="264.0" width="69.6" height="28" class="t e"/><rect x="293.0" y="343.0" width="77.2" height="28" class="sh"/><rect x="290.0" y="340.0" width="77.2" height="28" class="t e"/><rect x="380.2" y="343.0" width="115.2" height="28" class="sh"/><rect x="377.2" y="340.0" width="115.2" height="28" class="t e"/><rect x="505.4" y="343.0" width="92.4" height="28" class="sh"/><rect x="502.4" y="340.0" width="92.4" height="28" class="t e"/><rect x="607.8" y="343.0" width="100.0" height="28" class="sh"/><rect x="604.8" y="340.0" width="100.0" height="28" class="t e"/><rect x="717.8" y="343.0" width="46.8" height="28" class="sh"/><rect x="714.8" y="340.0" width="46.8" height="28" class="t e"/><rect x="774.6" y="343.0" width="92.4" height="28" class="sh"/><rect x="771.6" y="340.0" width="92.4" height="28" class="t e"/><rect x="293.0" y="419.0" width="69.6" height="28" class="sh"/><rect x="290.0" y="416.0" width="69.6" height="28" class="t e"/><rect x="372.6" y="419.0" width="100.0" height="28" class="sh"/><rect x="369.6" y="416.0" width="100.0" height="28" class="t e"/><rect x="482.6" y="419.0" width="69.6" height="28" class="sh"/><rect x="479.6" y="416.0" width="69.6" height="28" class="t e"/><rect x="562.2" y="419.0" width="92.4" height="28" class="sh"/><rect x="559.2" y="416.0" width="92.4" height="28" class="t e"/><rect x="664.6" y="419.0" width="84.8" height="28" class="sh"/><rect x="661.6" y="416.0" width="84.8" height="28" class="t e"/><rect x="293.0" y="495.0" width="84.8" height="28" class="sh"/><rect x="290.0" y="492.0" width="84.8" height="28" class="t e"/><rect x="387.8" y="495.0" width="84.8" height="28" class="sh"/><rect x="384.8" y="492.0" width="84.8" height="28" class="t e"/><rect x="482.6" y="495.0" width="77.2" height="28" class="sh"/><rect x="479.6" y="492.0" width="77.2" height="28" class="t e"/><rect x="569.8" y="495.0" width="92.4" height="28" class="sh"/><rect x="566.8" y="492.0" width="92.4" height="28" class="t e"/><rect x="293.0" y="571.0" width="122.8" height="28" class="sh"/><rect x="290.0" y="568.0" width="122.8" height="28" class="t e"/><rect x="425.8" y="571.0" width="153.2" height="28" class="sh"/><rect x="422.8" y="568.0" width="153.2" height="28" class="t e"/><rect x="293.0" y="647.0" width="69.6" height="28" class="sh"/><rect x="290.0" y="644.0" width="69.6" height="28" class="t e"/><rect x="372.6" y="647.0" width="92.4" height="28" class="sh"/><rect x="369.6" y="644.0" width="92.4" height="28" class="t e"/><rect x="475.0" y="647.0" width="130.4" height="28" class="sh"/><rect x="472.0" y="644.0" width="130.4" height="28" class="t e"/><rect x="293.0" y="723.0" width="92.4" height="28" class="sh"/><rect x="290.0" y="720.0" width="92.4" height="28" class="t e"/><rect x="395.4" y="723.0" width="100.0" height="28" class="sh"/><rect x="392.4" y="720.0" width="100.0" height="28" class="t e"/><rect x="505.4" y="723.0" width="92.4" height="28" class="sh"/><rect x="502.4" y="720.0" width="92.4" height="28" class="t e"/><rect x="607.8" y="723.0" width="77.2" height="28" class="sh"/><rect x="604.8" y="720.0" width="77.2" height="28" class="t e"/><text x="290.0" y="252.0" class="m r" font-size="14" font-weight="700">01</text><text x="320.0" y="252.0" class="m k i" font-size="14" font-weight="700">FRONTEND</text><text x="302.0" y="283.0" class="u i" font-size="14">TanStack Start</text><text x="442.4" y="283.0" class="u i" font-size="14">React 19</text><text x="537.2" y="283.0" class="u i" font-size="14">shadcn/ui</text><text x="639.6" y="283.0" class="u i" font-size="14">Tailwind CSS v4</text><text x="787.6" y="283.0" class="u i" font-size="14">Vite</text><text x="852.0" y="283.0" class="u i" font-size="14">PDF.js</text><text x="290.0" y="328.0" class="m r" font-size="14" font-weight="700">02</text><text x="320.0" y="328.0" class="m k i" font-size="14" font-weight="700">BACKEND</text><text x="302.0" y="359.0" class="u i" font-size="14">FastAPI</text><text x="389.2" y="359.0" class="u i" font-size="14">Python 3.11+</text><text x="514.4" y="359.0" class="u i" font-size="14">LangGraph</text><text x="616.8" y="359.0" class="u i" font-size="14">SQLAlchemy</text><text x="726.8" y="359.0" class="u i" font-size="14">SSE</text><text x="783.6" y="359.0" class="u i" font-size="14">WebSocket</text><text x="290.0" y="404.0" class="m r" font-size="14" font-weight="700">03</text><text x="320.0" y="404.0" class="m k i" font-size="14" font-weight="700">LLM</text><text x="302.0" y="435.0" class="u i" font-size="14">Gemini</text><text x="381.6" y="435.0" class="u i" font-size="14">OpenRouter</text><text x="491.6" y="435.0" class="u i" font-size="14">OpenAI</text><text x="571.2" y="435.0" class="u i" font-size="14">Anthropic</text><text x="673.6" y="435.0" class="u i" font-size="14">Z.AI GLM</text><text x="290.0" y="480.0" class="m r" font-size="14" font-weight="700">04</text><text x="320.0" y="480.0" class="m k i" font-size="14" font-weight="700">LATEX</text><text x="302.0" y="511.0" class="u i" font-size="14">TeX Live</text><text x="396.8" y="511.0" class="u i" font-size="14">pdflatex</text><text x="491.6" y="511.0" class="u i" font-size="14">SyncTeX</text><text x="578.8" y="511.0" class="u i" font-size="14">PDF cache</text><text x="290.0" y="556.0" class="m r" font-size="14" font-weight="700">05</text><text x="320.0" y="556.0" class="m k i" font-size="14" font-weight="700">DATA</text><text x="302.0" y="587.0" class="u i" font-size="14">PostgreSQL 16</text><text x="434.8" y="587.0" class="u i" font-size="14">Prisma migrations</text><text x="290.0" y="632.0" class="m r" font-size="14" font-weight="700">06</text><text x="320.0" y="632.0" class="m k i" font-size="14" font-weight="700">INFRA</text><text x="302.0" y="663.0" class="u i" font-size="14">Docker</text><text x="381.6" y="663.0" class="u i" font-size="14">Cloud Run</text><text x="484.0" y="663.0" class="u i" font-size="14">GitHub Actions</text><text x="290.0" y="708.0" class="m r" font-size="14" font-weight="700">07</text><text x="320.0" y="708.0" class="m k i" font-size="14" font-weight="700">OBSERVABILITY</text><text x="302.0" y="739.0" class="u i" font-size="14">JSON logs</text><text x="404.4" y="739.0" class="u i" font-size="14">Request ID</text><text x="514.4" y="739.0" class="u i" font-size="14">LangSmith</text><text x="616.8" y="739.0" class="u i" font-size="14">Inngest</text></svg>
